<svg xmlns="http://www.w3.org/2000/svg" viewBox="0 0 966 451"><defs><style>.cls-1{fill:#474849;}</style></defs><g id="Capa_2" data-name="Capa 2"><g id="Capa_29" data-name="Capa 29"><ellipse class="cls-1" cx="164.63" cy="207.31" rx="28.14" ry="31.98"/><ellipse class="cls-1" cx="321.8" cy="207.31" rx="28.15" ry="32"/><ellipse class="cls-1" cx="478.97" cy="207.31" rx="28.15" ry="32"/><ellipse class="cls-1" cx="636.15" cy="207.31" rx="28.15" ry="32"/><path class="cls-1" d="M60.58,209.62V205c0-75.1,53.75-136.2,119.83-136.2H745.93a105.61,105.61,0,0,1,18.47,1.78l.77.14.66-.47a121,121,0,0,1,68-21.29,117.92,117.92,0,0,1,25.66,2.81l8.17,1.81-6.38-6C829,16.89,788,0,745.93,0H180.42C80.93,0,0,92,0,205v4.58c0,113,80.93,205,180.41,205H675.68v-68.8H180.41C114.33,345.82,60.58,284.72,60.58,209.62Z"/><path class="cls-1" d="M951.12,271.55H936.29V186.27c0-60.34-45.91-109.46-102.43-109.46s-102.48,49.1-102.48,109.46v85.28H716.55c-8.21,0-14.86,10.22-14.86,22.91V428c0,12.66,9.07,23,20.15,23h224C957,451,966,440.7,966,428V294.46C966,281.77,959.36,271.55,951.12,271.55ZM833.86,384c-13.92,0-25.22-12.88-25.22-28.7s11.3-28.64,25.22-28.64,25.22,12.79,25.22,28.64S847.8,384,833.86,384Zm68.9-112.44H765V186.27C765,147,795.88,115,833.86,115s68.9,32,68.9,71.26Z"/></g></g></svg>