<svg xmlns="http://www.w3.org/2000/svg" viewBox="0 0 299.4 299.76"><defs><style>.cls-1{fill:#fff;}</style></defs><g id="Capa_2" data-name="Capa 2"><g id="Capa_1-2" data-name="Capa 1"><path id="node1" class="cls-1" d="M269.9.82c-2.7.8-17.2,14.8-61.7,59.1-53.3,53.2-58.4,58-60,56.7-1-.8-26.7-26.3-57.2-56.7C32.6,1.42,31.7.72,22.8.72,11.7.72,1,11.32.9,22.32c0,9.2.7,10.1,59.3,68.7,30.4,30.3,55.8,56,56.6,57,1.3,1.6-3.6,6.8-56.6,60C6.6,261.82,2.1,266.62.9,270.92c-3.8,14.2,4.8,27.5,18.6,28.6,11.1.9,9.1,2.6,72.3-60.5,31.6-31.5,57.8-57.3,58.3-57.3s25.6,24.7,55.8,54.8c33.9,34,56.2,55.5,58.5,56.6,7.5,3.6,18.1,1.9,24.3-3.8,6.9-6.2,8.7-19.2,3.8-26.6-1.4-2.2-26.9-28.2-56.6-57.9s-54-54.4-54-54.9,25.1-26.1,55.8-56.8,57.1-57.7,58.8-59.8c2.6-3.6,2.9-4.7,2.9-11.6,0-6.7-.4-8.2-2.8-11.8-4.2-6.4-9.7-9.6-17.1-9.9A43,43,0,0,0,269.9.82Z"/></g></g></svg>