<svg xmlns="http://www.w3.org/2000/svg" viewBox="0 0 969.32 841.59"><defs><style>.cls-1,.cls-2{fill:#fff;}.cls-1{fill-rule:evenodd;}</style></defs><g id="Capa_2" data-name="Capa 2"><g id="Capa_44" data-name="Capa 44"><g id="layer1"><g id="g4667"><path id="path4640" class="cls-1" d="M457.3,837.71c-148.59-16-285.5-106-353.12-232.12C91,581,68.89,525.92,68.89,517.63c0-1.89,28.31-3.4,62.9-3.37l62.89,0L207,543C246.15,634,328.69,702,432.59,729c37.35,9.68,122.89,9.51,161.54-.36,39.34-10,94.23-35.76,124.56-58.43,51.79-38.71,98.77-106.14,115.93-166.4,11-38.65,13.38-102,5.31-142C826.46,295,798.64,245.74,746.4,196.05,682.78,135.52,616.18,107.47,527.92,104c-41.47-1.63-57.8-.42-89.25,6.67-106.62,24-198.26,99.1-235.19,192.69l-7.79,19.73h-127l2.89-11.42C78,286.43,105.08,229,124.31,200,151,159.6,206,105.38,247.63,78.3,499.57-85.61,848.38,19.05,945.8,287.79c91.66,252.85-94.66,519.73-384,550.1-47.11,5-56.85,4.89-104.46,0Z"/><g id="g4592-5-0"><rect id="rect3717-9-8-2" class="cls-2" x="5.57" y="500.53" width="259.81" height="50.6"/><path id="path3783-0-6" class="cls-1" d="M0,295.76l271,3.36L132.12,501.79Z"/></g></g><g id="g73"><path id="path68" class="cls-1" d="M422.52,381.49l.18-41.84,1.36-7.66c9.64-54.15,43.86-93.34,88.61-101.45,7.33-1.33,22-1.33,29.35,0,41.76,7.58,75.3,42.94,86.61,91.3,3.53,15.1,3.67,17.42,3.67,61.49v39.38H600.46V383.85c0-32.9-.11-39.64-.79-44-5.67-36.9-29.55-66-59.64-72.59-6.55-1.45-18.67-1.49-24.87-.1a69.92,69.92,0,0,0-28.91,14.3c-5.81,4.7-15.92,17.12-19.67,24.15a108.88,108.88,0,0,0-10.75,29.73l-1.31,6.13-.18,40.92-.17,40.91H422.33Z"/><path id="rect12" class="cls-1" d="M422.09,363H632.54c12.12,0,21.94,11.45,21.94,25.58v141c0,14.13-9.82,25.58-21.94,25.58H422.09c-12.12,0-21.94-11.45-21.94-25.58v-141C400.15,374.42,410,363,422.09,363Z"/><path id="path39" class="cls-1" d="M499.75,474.33c0-16.68,0-31.34,0-32.59.31-8,4.26-16.86,9.76-21.8a23.3,23.3,0,0,1,14.68-6.44c12.19-.75,23.14,8.57,26.54,22.59.55,2.28.63,6.24.75,35.57l.13,33H499.81Z"/></g></g></g></g></svg>