<svg xmlns="http://www.w3.org/2000/svg" viewBox="0 0 1082 844"><defs><style>.cls-1{fill:#fff;}</style></defs><g id="Capa_2" data-name="Capa 2"><g id="Capa_41" data-name="Capa 41"><path class="cls-1" d="M1021.46,754a49.21,49.21,0,0,0,2-13.82V233c0-24-17.11-43.53-38.2-43.53H772.68v539.9a82.51,82.51,0,0,1-3.8,24.69H743.94a49.21,49.21,0,0,0,2-13.82V43.54c0-24-17.1-43.54-38.19-43.54H374.24c-21.09,0-38.19,19.49-38.19,43.54V740.19a49.21,49.21,0,0,0,2,13.82H313.12a82.51,82.51,0,0,1-3.8-24.69V189.42H101.84c-21.09,0-38.18,19.48-38.18,43.53V740.19a49.58,49.58,0,0,0,2,13.82H0v90H1082V754ZM178.21,576.18H123.47v-62.4h54.74Zm0-109.56H123.47V404.21h54.74Zm0-105.95H123.47V298.26h54.74ZM263.5,576.18H208.76v-62.4H263.5Zm0-109.56H208.76V404.21H263.5Zm0-105.95H208.76V298.26H263.5ZM626,751.09H465.26V522.49H626ZM541,326.55c-74.33,0-134.6-68.72-134.6-153.48S466.67,19.58,541,19.58,675.61,88.3,675.61,173.07,615.34,326.55,541,326.55ZM888.51,576.18H833.78v-62.4h54.73Zm0-109.56H833.78V404.21h54.73Zm0-105.95H833.78V298.26h54.73Zm85.28,215.51H919.07v-62.4h54.72Zm0-109.56H919.07V404.21h54.72Zm0-105.95H919.07V298.26h54.72ZM574.4,135H626v76.18H574.4V270H507.59V211.16H456V135h51.56V76.2H574.4Z"/></g></g></svg>