<svg xmlns="http://www.w3.org/2000/svg" viewBox="0 0 78.2 81.16"><defs><style>.cls-1{fill:#fff;}</style></defs><g id="Capa_2" data-name="Capa 2"><g id="Capa_1-2" data-name="Capa 1"><path class="cls-1" d="M72.7,5.26A5.76,5.76,0,0,0,68.59,3.6a7.22,7.22,0,0,0-4.93,2.06l-5.89,4.78-.23.21a5.58,5.58,0,0,0-1.5,5L42.33,28.93l-2.3-2c1.65-6.45,1.44-15-4.12-20.61A20.76,20.76,0,0,0,21.23,0a19.33,19.33,0,0,0-6.3,1.06A3,3,0,0,0,13,3.1a3,3,0,0,0,.59,2.72L21,14.66l-.37,5.68L14.5,21,5.73,13.71A3,3,0,0,0,1,15C-1.43,21.94.68,29.4,6.76,35.47c3.27,3.28,8,5,13.63,5,.41,0,.83,0,1.24,0A8.09,8.09,0,0,0,21,41L4.16,57.85a12,12,0,0,0,0,17L7,77.64a12,12,0,0,0,17,0L40.81,60.79A11.41,11.41,0,0,0,43,57.69L58,75l.15.16a9.89,9.89,0,0,0,7.1,2.6,13.55,13.55,0,0,0,9.32-3.61c3.92-3.92,5.16-12.27,1-16.42a1.07,1.07,0,0,0-.16-.14L53.63,38.71,66.2,25.76a6.18,6.18,0,0,0,1,.09,5.53,5.53,0,0,0,3.92-1.58l5-6.12a7.28,7.28,0,0,0,2-4.25,5.84,5.84,0,0,0-1.63-4.79ZM36.57,56.55,19.72,73.4a6,6,0,0,1-8.49,0L8.4,70.57a6,6,0,0,1,0-8.48L25.26,45.24a5.93,5.93,0,0,1,4.24-1.76,6.35,6.35,0,0,1,1.38.16l7.44,8.6A6,6,0,0,1,36.57,56.55ZM70.33,69.89a7.62,7.62,0,0,1-5.09,1.85A4.36,4.36,0,0,1,62.45,71L30.64,34.2a3,3,0,0,0-3.22-.88,22.13,22.13,0,0,1-7,1.15c-4,0-7.3-1.15-9.39-3.25C9.1,29.33,6.44,26,6,21.79l5.59,4.68a3,3,0,0,0,2.27.68L23.81,26a3,3,0,0,0,2.66-2.79l.6-9.38a3,3,0,0,0-.7-2.12L21.59,6a14.86,14.86,0,0,1,10.07,4.55c3.92,3.92,3.84,11.26,2.1,16.42a3,3,0,0,0,.88,3.23L71.39,62C72.73,63.48,72.41,67.8,70.33,69.89ZM71.78,14l-4.7,5.78-.17-.08-2-1.21L49.09,34.78l-2.21-1.91L63.29,16.93l-1.21-2L62,14.73l5.54-4.5.23-.21a1.39,1.39,0,0,1,.79-.41l3.64,3.64A1.35,1.35,0,0,1,71.78,14Z"/></g></g></svg>