<svg xmlns="http://www.w3.org/2000/svg" viewBox="0 0 964.27 840.37"><defs><style>.cls-1{fill:#fff;}</style></defs><g id="Capa_2" data-name="Capa 2"><g id="Capa_47" data-name="Capa 47"><path class="cls-1" d="M939.21,226.38,513.05,7.15a65.68,65.68,0,0,0-59.59,0L23.77,228.32C1.93,239.5-5.65,264.42,6.84,284a43.5,43.5,0,0,0,16.93,15.16L453.46,520.29a65.61,65.61,0,0,0,59.38,0L939.05,300.92c23-11.81,31-38.09,17.79-58.7a45.85,45.85,0,0,0-17.63-15.84Zm-793.05,37.3L472.45,98.07a24.38,24.38,0,0,1,21.83,0L820.57,263.63,494.28,429.18a24.32,24.32,0,0,1-21.83,0Z"/><path class="cls-1" d="M846,408.84,494.33,587.23a24.36,24.36,0,0,1-21.88,0L73.39,383.06a50.16,50.16,0,0,0-46,.43l-5.28,2.83C.52,397.93-6.44,423,6.53,442.29a43.54,43.54,0,0,0,16.29,14.32L453.68,678.48a65.59,65.59,0,0,0,59.37,0L940.16,458.59c23-11.83,30.94-38.12,17.72-58.71A45.68,45.68,0,0,0,941,384.43a52.92,52.92,0,0,0-49.41,0Z"/><path class="cls-1" d="M846,563.86,488.9,745A24.36,24.36,0,0,1,467,745L72.12,543a50.28,50.28,0,0,0-43-1.09C6.66,552-2.43,576.52,8.84,596.65a43.06,43.06,0,0,0,18,17.06L453.46,833.27a65.61,65.61,0,0,0,59.38,0L940,613.38c23-11.83,30.94-38.12,17.72-58.71a45.68,45.68,0,0,0-16.93-15.45,52.92,52.92,0,0,0-49.41,0Z"/></g></g></svg>