<svg xmlns="http://www.w3.org/2000/svg" viewBox="0 0 844 844"><defs><style>.cls-1{fill:#fff;}</style></defs><g id="Capa_2" data-name="Capa 2"><g id="Capa_31" data-name="Capa 31"><path class="cls-1" d="M422,0C188.94,0,0,188.94,0,422S188.94,844,422,844,844,655.06,844,422,655.06,0,422,0Zm0,773.67C227.78,773.67,70.33,616.22,70.33,422S227.78,70.33,422,70.33,773.67,227.78,773.67,422,616.22,773.67,422,773.67Z"/><path class="cls-1" d="M661.13,443c.38-.5.77-1,1.11-1.51s.63-1,.93-1.54.58-.93.84-1.41.52-1.06.77-1.6.49-1,.71-1.52.39-1,.57-1.57.42-1.11.59-1.68.28-1.06.41-1.59.31-1.16.43-1.75.19-1.23.28-1.85.17-1,.22-1.55a35,35,0,0,0,0-6.94c0-.52-.15-1-.22-1.55s-.16-1.24-.28-1.85-.28-1.17-.43-1.75-.25-1.06-.41-1.59-.38-1.12-.59-1.68-.36-1.05-.57-1.57-.47-1-.71-1.52-.49-1.07-.77-1.6-.55-.94-.84-1.41-.59-1-.93-1.54-.73-1-1.11-1.51-.6-.84-.93-1.25a33.07,33.07,0,0,0-2.32-2.56v0L517.2,256.47a35.16,35.16,0,0,0-49.73,49.73l80.63,80.63H211a35.17,35.17,0,1,0,0,70.34H548.1L467.47,537.8a35.16,35.16,0,0,0,49.73,49.73L657.87,446.87v0c.82-.82,1.59-1.67,2.32-2.56C660.53,443.88,660.82,443.45,661.13,443Z"/></g></g></svg>