<svg xmlns="http://www.w3.org/2000/svg" viewBox="0 0 744.37 844"><defs><style>.cls-1{fill:#fff;}</style></defs><g id="Capa_2" data-name="Capa 2"><g id="Capa_38" data-name="Capa 38"><path class="cls-1" d="M321.53,427.79c118.85,0,161.61-119,172.81-216.75C508.12,90.63,451.18,0,321.53,0s-186.6,90.62-172.8,211C159.94,308.79,202.69,427.8,321.53,427.79Z"/><path class="cls-1" d="M581.4,477.32c3.83,0,7.63.12,11.4.33a90.91,90.91,0,0,0-19.86-20.91c-22.84-17-52.42-22.63-78.56-32.91a338.91,338.91,0,0,1-34.83-15.62c-36.11,39.6-83.19,60.32-138,60.32s-101.9-20.71-138-60.32a339.68,339.68,0,0,1-34.82,15.62C122.54,434.11,93,439.7,70.13,456.74c-39.49,29.48-49.7,95.79-57.72,141A810.92,810.92,0,0,0,.05,711.14c-1,29.38,13.5,33.5,38.08,42.37,30.77,11.1,62.55,19.34,94.54,26.09,61.77,13,125.46,23.07,188.86,23.52a759,759,0,0,0,92.11-6.67A202.54,202.54,0,0,1,377.69,681C377.69,568.7,469.08,477.32,581.4,477.32Z"/><path class="cls-1" d="M581.4,518.06a163,163,0,1,0,163,163A163,163,0,0,0,581.4,518.06ZM652.7,709H609.36v43.34a28,28,0,0,1-55.92,0V709H510.11a28,28,0,1,1,0-55.92h43.33V609.73a28,28,0,0,1,55.92,0v43.34H652.7a28,28,0,0,1,0,55.92Z"/></g></g></svg>