<svg xmlns="http://www.w3.org/2000/svg" viewBox="0 0 841 841.17"><defs><style>.cls-1{fill:#fff;}</style></defs><g id="Capa_2" data-name="Capa 2"><g id="Capa_39" data-name="Capa 39"><path class="cls-1" d="M506.88,432.5,421,406.9c-22.82,27.15-51.59,45.88-84.1,45.88s-61.28-18.73-84.09-45.88l-85.89,25.6A39.23,39.23,0,0,0,139,469.28a237.81,237.81,0,0,0,395.82,0A39.21,39.21,0,0,0,506.88,432.5Z"/><path class="cls-1" d="M828.57,768.74,603.12,543.29C705.59,411.19,696.47,220,575.23,98.72a337.06,337.06,0,0,0-476.67,0C-32.85,230.15-32.85,444,98.56,575.39A336.47,336.47,0,0,0,543.14,603.3L768.58,828.74a42.42,42.42,0,0,0,60-60Zm-690-233.35C29.21,426,29.21,248.08,138.55,138.72a280.51,280.51,0,0,1,396.68,0c109.35,109.36,109.35,287.3,0,396.67a280.51,280.51,0,0,1-396.68,0Z"/><path class="cls-1" d="M209.82,328.37c7.66,9.65,17.42,15.46,26.74,15.28,21,48.26,58.14,89.7,100.51,89.7s79.48-41.44,100.52-89.7c9.32.18,19.08-5.63,26.74-15.28a61.8,61.8,0,0,0,10-18.13c4.55-13.07,4.48-26,.89-36-2.81-7.8-7.76-13.79-14.68-16.22a15.17,15.17,0,0,1-3.48.87c-.38,0-.76,0-1.13,0a14.55,14.55,0,0,1-6.3-1.63,15,15,0,0,1-8-9.12c-.3-1-7.85-24.44-52.42-24.44q-6.44,0-13.6.65s-4.66.42-11.85.42c-23.77,0-55.8-4.11-73.33-23.66a45.75,45.75,0,0,1-8.54-13.81c-16.48,10.46-40.17,30.24-49.29,61.32a15.68,15.68,0,0,1-14.21,10.64,14.79,14.79,0,0,1-1.75-.1,14.15,14.15,0,0,1-3.35-1c-6.76,2.51-11.6,8.39-14.38,16.07-3.59,9.94-3.66,22.9.9,36A61.78,61.78,0,0,0,209.82,328.37Z"/><path class="cls-1" d="M293.69,164.36C289.18,205.5,340.89,210,363.78,210c6.43,0,10.59-.36,10.59-.36,5.27-.49,10.22-.71,14.86-.71,58,0,66.71,35.38,66.71,35.38l3.6-26.64a103,103,0,0,0-87.3-115.74,68.79,68.79,0,0,0-9.79-.7,68.06,68.06,0,0,0-49.67,21.52l-1,1a64.61,64.61,0,0,0-64.1,6,75.23,75.23,0,0,0-31.79,65.29l2.49,49.44C235.26,187.08,293.69,164.36,293.69,164.36Z"/></g></g></svg>