<svg xmlns="http://www.w3.org/2000/svg" viewBox="0 0 963.74 789.08"><defs><style>.cls-1{fill:#fff;}</style></defs><g id="Capa_2" data-name="Capa 2"><g id="Capa_22" data-name="Capa 22"><polygon class="cls-1" points="806.03 289.64 697.51 398.96 807.3 398.96 807.3 289.56 806.03 289.64"/><path class="cls-1" d="M191.88,399h52.65l-21.81-52.43c-.51-1.26-.73-2.55-1.14-3.8a49.69,49.69,0,0,1,28-61.27l.11,0-.16-.06a49.83,49.83,0,0,1-27-65l24.41-59.17a49.77,49.77,0,0,1,65-26.94l.13.05-.06-.15a49.47,49.47,0,0,1-3.38-14.69,76.88,76.88,0,0,0-36.85-9.7H77.68A77.68,77.68,0,0,0,0,183.44V673.37L98.15,459.11A103.36,103.36,0,0,1,191.88,399Z"/><path class="cls-1" d="M299.66,160a17.46,17.46,0,0,0-6.71-1.34,17.7,17.7,0,0,0-16.35,10.91l-24.38,59.1a17.7,17.7,0,0,0,9.58,23l33.56,13.82a166.2,166.2,0,0,0,0,31.7L261.9,311.13a17.67,17.67,0,0,0-9.51,23.06l24.57,59c1,2.43,2.93,4,4.76,5.73h27.37l24.35-10.14c3.11,3.72,6.83,6.72,10.22,10.14h92.22l6.32-6.37a113.59,113.59,0,1,1,126-155.16A114.86,114.86,0,0,1,574.82,259l79.11-79.71-4.3-10.34a17.64,17.64,0,0,0-23.06-9.53L593.1,173.33A168.6,168.6,0,0,0,570.59,151l13.84-33.55a17.65,17.65,0,0,0-9.61-23L515.75,70a17.62,17.62,0,0,0-23,9.57l-13.86,33.59c-5.3-.49-10.63-.76-16-.76s-10.48.25-15.75.77L433.21,79.73a17.65,17.65,0,0,0-16.27-10.87,17.37,17.37,0,0,0-6.76,1.36l-59,24.54a17.66,17.66,0,0,0-9.5,23.06l13.93,33.47a164.7,164.7,0,0,0-22.39,22.5Z"/><path class="cls-1" d="M463.27,199.52A81.56,81.56,0,0,0,388,312.41c13.93,33.5,49.85,52.94,85,49.11L544,290a80.82,80.82,0,0,0-80.72-90.52Z"/><path class="cls-1" d="M928,105.08,877.1,156.3a22.93,22.93,0,0,1-32.46.1c-62.27-61.77-61.21-45.9,13.22-120.9C877,16.26,820.63-17.56,780.56,11c-76.5,54.44-70,63.21-74.88,161.72L481.15,399H652.23l139.66-140.7,61.31-3.52A105.45,105.45,0,0,0,933.55,210l19.5-27.8C981.07,142.19,947.36,85.57,928,105.08Z"/><path class="cls-1" d="M878.42,447.15H191.88a54.89,54.89,0,0,0-49.91,32L20.72,743.85a31.92,31.92,0,0,0,29.05,45.23h737a31.92,31.92,0,0,0,29-18.64L928.33,524.91a54.9,54.9,0,0,0-49.91-77.76Z"/></g></g></svg>