<svg xmlns="http://www.w3.org/2000/svg" viewBox="0 0 966 582.49"><defs><style>.cls-1{fill:#fff;}</style></defs><g id="Capa_2" data-name="Capa 2"><g id="Capa_16" data-name="Capa 16"><path class="cls-1" d="M760.92,307.56c49.26-33.1,83.14-98.44,83.14-157.25a150.21,150.21,0,0,0-285.21-66,70.06,70.06,0,0,1,15.9,44.09V252.21c13.83,22.1,31.44,41.58,51.88,55.35a294.74,294.74,0,0,0-51.88,18.8V432.51a70.51,70.51,0,0,1-70.48,70.41H455.71l28,28v29c52.33,15,131.12,22.5,209.89,22.53l-76.18-76.12,64.27-155.2h-.68l-24.92-28.56a106.26,106.26,0,0,0,75.28,0l-24.87,28.52h-.64l64.2,155.2-76.19,76.12C830,582.53,966,560.21,966,515.43,965.93,439.71,878.68,337.44,760.92,307.56Z"/><path class="cls-1" d="M295.52,520.91V480.23H504.31a47.88,47.88,0,0,0,47.77-47.72V128.44a47.89,47.89,0,0,0-47.77-47.77H47.74A47.84,47.84,0,0,0,0,128.44V432.51a47.89,47.89,0,0,0,47.74,47.72h208.8v40.68H110.47L91,540.43v19.46H461.09V540.43l-19.47-19.52Z"/></g></g></svg>