<svg xmlns="http://www.w3.org/2000/svg" viewBox="0 0 965.36 788.04"><defs><style>.cls-1{fill:#fff;}</style></defs><g id="Capa_2" data-name="Capa 2"><g id="Capa_12" data-name="Capa 12"><path class="cls-1" d="M394,728.94c-1.24-3.29-1.66-6.08-1.24-8.33s-1-4.11-4.31-5.54-4.93-2.57-4.93-3.38-2.36-1.44-7.08-1.84l-7.08-.62H177.31q-40.63,0-69.58-28.94T78.8,610.73V177.3q0-40.63,28.93-69.56t69.58-28.95h197c5.33,0,9.53-1.32,12.62-4s5.12-6.67,6.15-12a105,105,0,0,0,1.85-14.47A154.9,154.9,0,0,0,394.63,32Q394,22.17,394,19.69a19,19,0,0,0-5.85-13.85A19,19,0,0,0,374.32,0h-197Q104.05,0,52,52T0,177.3V610.72Q0,684,52,736t125.29,52h197q8,0,12.62-4t6.16-12A105.26,105.26,0,0,0,395,757.57a154.83,154.83,0,0,0-.31-16.31Q394,731.39,394,728.94Z"/><path class="cls-1" d="M953.66,366.31,618.74,31.39Q607.06,19.71,591,19.69t-27.71,11.7q-11.7,11.7-11.7,27.71V236.41H275.82q-16,0-27.71,11.69t-11.7,27.71V512.23q0,16,11.7,27.7t27.71,11.71H551.63v177.3q0,16,11.7,27.71T591,768.35q16,0,27.7-11.7L953.66,421.73q11.7-11.7,11.7-27.7T953.66,366.31Z"/></g></g></svg>