<svg xmlns="http://www.w3.org/2000/svg" viewBox="0 0 838 841.93"><defs><style>.cls-1{fill:#fff;}</style></defs><g id="Capa_2" data-name="Capa 2"><g id="Capa_24" data-name="Capa 24"><path class="cls-1" d="M335.6,0c-86,0-163.93,14.82-224.17,40.64-30.12,12.91-55.81,28-76,48.5S0,137.2,0,167.8V671.2C0,780.27,167.8,839,335.6,839c37.75,0,75.25-3.67,108.81-7.87-25.17-21-42.22-50.6-59-80-16.78,4.19-33,3.93-49.81,3.93-155.22,0-251.7-54.54-251.7-83.9V616.14c62.92,33.56,159.41,55.06,251.7,55.06h24.91c0-12.59-3.94-25.17-3.94-42,0-12.59-.26-29.37,3.94-42H335.6c-155.22,0-251.7-54.54-251.7-83.9V448.34c62.92,33.56,159.41,55.06,251.7,55.06,16.78,0,34.08.26,55.06-3.93,21-42,54-75.78,91.76-101-41.95,12.59-92.29,21-146.82,21C180.38,419.5,83.9,365,83.9,335.6V280.54c9,4.87,17.55,10.14,27.53,14.42,60.24,25.82,138.22,40.64,224.17,40.64S499.53,320.78,559.77,295c10-4.28,18.56-9.55,27.53-14.42V335.6c0,8.39-8.39,16.25-21,28.84,21-4.2,41.95-7.87,62.93-7.87,12.58,0,29.36-.26,42,3.94V167.8c0-30.6-15.17-58.16-35.4-78.66s-45.91-35.59-76-48.5C499.53,14.82,421.55,0,335.6,0Zm0,83.9C411.83,83.9,481,98.25,527,118c23,9.87,40.32,20.54,49.81,30.16s10.49,15.51,10.49,19.66-1,10-10.49,19.66S550,207.75,527,217.62c-46,19.73-115.17,34.08-191.4,34.08s-145.36-14.35-191.4-34.08c-23-9.87-40.32-20.54-49.81-30.16S83.9,172,83.9,167.8s1-10.05,10.49-19.66S121.18,127.85,144.2,118C190.24,98.25,259.37,83.9,335.6,83.9ZM654.16,411.63l17,175.67,45.88-45.88c51.67,51.67,51.67,127.92,0,179.59s-127.93,51.67-179.6,0-51.67-127.92,0-179.59l-59-59a210.42,210.42,0,1,0,297.58,0l49.82-49.81Z"/></g></g></svg>