<svg xmlns="http://www.w3.org/2000/svg" viewBox="0 0 167.89 110"><defs><style>.cls-1{fill:#fff;}</style></defs><g id="Capa_2" data-name="Capa 2"><g id="Layer_4" data-name="Layer 4"><path class="cls-1" d="M166.09,2.74A7.88,7.88,0,0,0,160,0H46.55a10.24,10.24,0,0,0-9.81,8.29l-.06.33H7.87A7.86,7.86,0,0,0,1.8,11.36,8,8,0,0,0,.13,18L14.9,101.69A10.24,10.24,0,0,0,24.71,110H143.15a7.86,7.86,0,0,0,6.07-2.74,7.7,7.7,0,0,0,1.7-3.8h0L167.75,9.33A8,8,0,0,0,166.09,2.74ZM144.72,103.48a2,2,0,0,1-1.57.64H24.71a4.39,4.39,0,0,1-4-3.45L5.92,16.92a2.15,2.15,0,0,1,.38-1.78,2,2,0,0,1,1.57-.64H42A4.39,4.39,0,0,1,46,18l.63,3.59a10.24,10.24,0,0,0,9.81,8.31H129a4.4,4.4,0,0,1,4,3.45l12.06,68.39A2.18,2.18,0,0,1,144.72,103.48ZM162,8.3,148.21,85.46l-9.38-53.19A10.24,10.24,0,0,0,129,24H56.46a4.4,4.4,0,0,1-4-3.45l-.63-3.6a10.29,10.29,0,0,0-9.09-8.27,4.42,4.42,0,0,1,3.83-2.77H160a2,2,0,0,1,1.57.64A2.2,2.2,0,0,1,162,8.3Z"/></g></g></svg>