<svg xmlns="http://www.w3.org/2000/svg" viewBox="0 0 841.21 841.21"><defs><style>.cls-1{fill:#fff;}</style></defs><g id="Capa_2" data-name="Capa 2"><g id="Capa_32" data-name="Capa 32"><path class="cls-1" d="M420.61,0C188.68,0,0,188.68,0,420.6S188.68,841.21,420.61,841.21s420.6-188.68,420.6-420.61S652.53,0,420.61,0Zm0,764.74c-189.76,0-344.14-154.38-344.14-344.14S230.85,76.47,420.61,76.47,764.74,230.85,764.74,420.6,610.36,764.74,420.61,764.74Z"/><path class="cls-1" d="M599,382.35H334.48l87.67-87.67a38.23,38.23,0,1,0-54.07-54.07l-152.95,153a38.23,38.23,0,0,0,0,54.07l153,153a38.24,38.24,0,0,0,54.07-54.08l-87.68-87.67,264.58,0a38.24,38.24,0,0,0,0-76.47Z"/></g></g></svg>