<svg xmlns="http://www.w3.org/2000/svg" viewBox="0 0 965 839.74"><defs><style>.cls-1{fill:#fff;}</style></defs><g id="Capa_2" data-name="Capa 2"><g id="Capa_15" data-name="Capa 15"><path class="cls-1" d="M948.44,389.75c-13.85,0-48.46,13.84-48.46,13.84L816.9,445.13h0L789.21,459c-20.77,6.92-27.69,20.77-27.69,20.77q0,31.15-20.77,62.3C733.83,549,720,555.9,706.14,562.82c-41.54,6.92-69.23,13.85-131.54,13.85-27.69,0-55.38-6.93-131.53-13.85-20.77-6.92-27.7-6.92-27.7-6.92,6.93-6.92,166.15,6.92,186.92,6.92,62.31,0,110.77-20.77,124.62-34.61s13.84-34.62,6.92-48.46S706.14,459,650.75,459c-27.69,0-55.38-6.92-83.07-6.92-13.85,0-27.69,0-41.54-6.93-90-34.61-200.76-76.15-283.84-13.84l-20.77,20.77c-6.92,6.92-6.92,13.84-13.84,20.76S193.84,486.67,180,493.59l-27.7,27.69,124.62,180q10.38-10.38,20.77-20.77l20.76-13.84c20.77-13.85,41.54-13.85,62.31-13.85H526.14l34.62-6.92c27.69,0,48.46-6.93,76.15-20.77l27.69-6.93,76.15-27.69h0c41.54-13.84,83.08-41.53,117.69-69.23l27.69-20.76c6.93-6.93,34.62-27.7,48.46-41.54,13.85-6.92,20.77-20.77,27.69-34.62V410.52C969.21,403.59,962.28,389.75,948.44,389.75Z"/><path class="cls-1" d="M0,583.59,173.07,839.74l110.77-90L117.69,507.44ZM200.76,729c13.85,0,20.77,13.85,20.77,20.77,0,13.85-13.84,20.77-20.77,20.77-13.84,0-20.76-13.85-20.76-20.77C173.07,735.89,186.92,729,200.76,729Z"/><path class="cls-1" d="M536.61,382.85c17.4,17.41,43.51,34.81,69.61,52.21,26.1,8.7,60.91,17.4,87,17.4s60.91-8.7,87-17.4,52.21-26.1,69.61-52.21c17.41-17.4,34.81-43.5,52.21-69.61,8.7-26.1,17.4-60.9,17.4-87s-8.7-60.91-17.4-87S876,87,849.85,69.61c-17.4-17.4-43.5-34.81-69.61-52.21C754.14,8.7,728,0,693.23,0c-26.1,0-60.91,8.7-87,17.4S554,43.51,536.61,69.61s-34.81,43.51-52.21,69.61c-8.7,26.1-17.4,60.91-17.4,87s8.7,60.91,17.4,87C501.8,339.35,510.51,365.45,536.61,382.85ZM693.23,52.21c95.72,0,165.33,78.31,165.33,165.32,0,95.71-78.32,165.32-165.33,165.32-95.71,0-165.32-78.31-165.32-165.32S597.52,52.21,693.23,52.21Z"/><path class="cls-1" d="M693.59,273.05c-22.86,0-34.28,0-45.71-10.38L625,252.29l-22.86,62.28L613.6,325c11.43,10.38,34.28,10.38,45.71,10.38v31.13h68.56V335.33c11.42,0,22.85-10.38,34.28-20.76S785,283.43,785,262.67s-11.43-41.52-22.85-51.9c0-10.37-22.86-20.75-45.71-31.13-11.43,0-22.85-10.38-22.85-10.38H705q17.15-15.57,34.28,0l22.86,10.38L785,117.36,762.15,107c0-10.38-11.43-10.38-34.28-10.38V65.46H659.31V107c-11.43,0-22.86,0-34.28,10.38s-22.86,31.14-22.86,51.9S613.6,210.77,625,221.15c22.85,10.38,34.28,20.76,57.13,20.76C705,252.29,705,262.67,705,262.67,705,273.05,693.59,273.05,693.59,273.05Z"/></g></g></svg>