<svg xmlns="http://www.w3.org/2000/svg" viewBox="0 0 964.72 844.13"><defs><style>.cls-1{fill:#fff;}</style></defs><g id="Capa_2" data-name="Capa 2"><g id="Capa_5" data-name="Capa 5"><path class="cls-1" d="M367.83,530.1A379.62,379.62,0,0,1,370.27,489H40.37V379.78H399.88c24.88-55.33,62.76-102.23,109.57-135.46H40.37V135.13H749.18V200a292.28,292.28,0,0,1,40.43,14.07V0H0V624.16H380.05A371,371,0,0,1,367.83,530.1Z"/><rect class="cls-1" x="76.87" y="164.85" width="90.65" height="51.08"/><rect class="cls-1" x="76.87" y="411.15" width="90.65" height="51.08"/><path class="cls-1" d="M396.48,672.52H267.2v61.63H0V792H267.2v41.33H534.6v-1.39C474,797.3,425.3,741.05,396.48,672.52Z"/><path class="cls-1" d="M679.77,215.93c-157.35,0-284.89,140.56-284.89,314.17s127.54,314,284.89,314,285-140.5,285-314S837.18,215.93,679.77,215.93Zm0,596c-141.23,0-255.67-126.24-255.67-281.8S538.54,248.23,679.77,248.23,935.29,374.47,935.29,530.1,820.93,811.9,679.77,811.9Z"/><path class="cls-1" d="M837.06,476.36l-10.95-28.72s25.48-63.42,23.17-65.81l-33.7-36.28C813.29,343,755.74,372,755.74,372L729.2,360.14s-23.41-64.21-26.6-64.21H655c-3.34,0-25,64.34-25,64.34l-26.54,11.88s-58.73-27.53-60.95-25.08l-33.64,36.35C506.53,386,533.34,448,533.34,448l-11,28.65S462.76,502,462.76,505.42v51.34c0,3.72,59.72,27.14,59.72,27.14l10.92,28.59S508,675.84,510.2,678.16l33.7,36.49c2.26,2.52,59.78-26.47,59.78-26.47L630.25,700S653.68,764.2,657,764.2h47.56c3.28,0,25.09-64.35,25.09-64.35L756.16,688s58.61,27.53,60.9,25.07l33.69-36.35c2.38-2.59-24.52-64.61-24.52-64.61l10.95-28.66s59.54-25.27,59.54-28.72V503.36C896.72,499.72,837.06,476.36,837.06,476.36ZM679.77,605.12c-38.33,0-69.53-33.7-69.53-75s31.2-75.1,69.53-75.1,69.5,33.64,69.5,75.1S718.13,605.12,679.77,605.12Z"/><path class="cls-1" d="M679.77,482.93C656.21,482.93,637,504,637,530.1s19.22,47.09,42.78,47.09,42.75-21.09,42.75-47.09S703.39,482.93,679.77,482.93Z"/></g></g></svg>