<svg xmlns="http://www.w3.org/2000/svg" viewBox="0 0 656.44 844"><defs><style>.cls-1{fill:#fff;}</style></defs><g id="Capa_2" data-name="Capa 2"><g id="Capa_18" data-name="Capa 18"><path class="cls-1" d="M562.67,0H93.78A93.78,93.78,0,0,0,0,93.78V750.22A93.78,93.78,0,0,0,93.78,844H562.67a93.78,93.78,0,0,0,93.77-93.78V93.78A93.78,93.78,0,0,0,562.67,0ZM93.78,140.67H328.22v46.89H93.78Zm0,93.77H328.22v46.89H93.78Zm0,93.78H328.22v46.89H93.78ZM562.67,656.44H93.78V609.56H562.67Zm0-93.77H93.78V515.78H562.67Zm0-93.78H93.78V422H562.67Zm0-93.78H375.11V140.67H562.67Z"/></g></g></svg>