<svg xmlns="http://www.w3.org/2000/svg" viewBox="0 0 843.86 844"><defs><style>.cls-1{fill:#fff;}</style></defs><g id="Capa_2" data-name="Capa 2"><g id="Capa_19" data-name="Capa 19"><path class="cls-1" d="M815.35,442.68H736.58A28.39,28.39,0,0,0,745.5,422v-1.42a28.51,28.51,0,1,0-57,0V422a28.42,28.42,0,0,0,8.91,20.68H421.93a28.51,28.51,0,0,0-28.51,28.51V648.34a28.38,28.38,0,0,0-20.67-8.92h-1.42a28.51,28.51,0,1,0,0,57h1.42a28.41,28.41,0,0,0,20.67-8.91v128A28.52,28.52,0,0,0,421.93,844H815.35a28.51,28.51,0,0,0,28.51-28.51V471.18A28.5,28.5,0,0,0,815.35,442.68Zm-28.51,57V688.62H450.44V499.7ZM450.44,787V745.63h336.4V787Z"/><path class="cls-1" d="M551.66,204.58h2.83a28.51,28.51,0,0,0,0-57h-2.83a28.51,28.51,0,0,0,0,57Z"/><path class="cls-1" d="M633.62,204.58h2.82a28.51,28.51,0,0,0,0-57h-2.82a28.51,28.51,0,1,0,0,57Z"/><path class="cls-1" d="M717,206a28.51,28.51,0,0,0,28.5-28.51v-1.43A28.51,28.51,0,0,0,717,147.56h-1.43A29.25,29.25,0,0,0,717,206Z"/><path class="cls-1" d="M745.5,256.64a28.51,28.51,0,1,0-57,0v2.83a28.51,28.51,0,1,0,57,0Z"/><path class="cls-1" d="M717,310.1a28.5,28.5,0,0,0-28.51,28.51v2.82a28.51,28.51,0,1,0,57,0v-2.82A28.5,28.5,0,0,0,717,310.1Z"/><path class="cls-1" d="M292.2,639.42h-2.82a28.51,28.51,0,1,0,0,57h2.82a28.51,28.51,0,0,0,0-57Z"/><path class="cls-1" d="M210.25,639.42h-2.82a28.51,28.51,0,1,0,0,57h2.82a28.51,28.51,0,0,0,0-57Z"/><path class="cls-1" d="M126.87,638a28.5,28.5,0,0,0-28.5,28.51v1.42a28.5,28.5,0,0,0,28.5,28.51h1.43a28.51,28.51,0,0,0,19.43-49.37A28.43,28.43,0,0,0,126.87,638Z"/><path class="cls-1" d="M155.38,502.57a28.51,28.51,0,1,0-57,0v2.83a28.51,28.51,0,1,0,57,0Z"/><path class="cls-1" d="M126.87,556a28.5,28.5,0,0,0-28.5,28.51v2.82a28.51,28.51,0,1,0,57,0v-2.82A28.5,28.5,0,0,0,126.87,556Z"/><path class="cls-1" d="M98.37,422v1.43a28.51,28.51,0,1,0,57,0V422a28.36,28.36,0,0,0-8.92-20.67H421.93a28.51,28.51,0,0,0,28.51-28.51V195.67a28.39,28.39,0,0,0,20.67,8.91h1.42a28.51,28.51,0,1,0,0-57h-1.42a28.4,28.4,0,0,0-20.67,8.92v-128A28.51,28.51,0,0,0,421.93,0H28.51A28.52,28.52,0,0,0,0,28.51V372.82a28.52,28.52,0,0,0,28.51,28.51h78.77A28.39,28.39,0,0,0,98.37,422ZM393.42,57V245.94H57V57ZM57,303h336.4v41.35H57Z"/></g></g></svg>