<svg xmlns="http://www.w3.org/2000/svg" viewBox="0 0 688.92 844"><defs><style>.cls-1{fill:#fff;}</style></defs><g id="Capa_2" data-name="Capa 2"><g id="Capa_11" data-name="Capa 11"><path class="cls-1" d="M606.86,0H82.06A82.15,82.15,0,0,0,0,82.06V761.94A82.15,82.15,0,0,0,82.06,844h524.8a82.15,82.15,0,0,0,82.06-82.06V82.06A82.15,82.15,0,0,0,606.86,0ZM116.2,142.63A31.82,31.82,0,0,1,148,110.82H540.9a31.81,31.81,0,0,1,31.81,31.81v99.61a31.81,31.81,0,0,1-31.81,31.81H148a31.81,31.81,0,0,1-31.81-31.81V142.63ZM219.18,730a12.83,12.83,0,0,1-12.84,12.83h-121A12.83,12.83,0,0,1,72.54,730V662.43a12.84,12.84,0,0,1,12.84-12.84h121a12.84,12.84,0,0,1,12.84,12.84Zm0-143.88A12.84,12.84,0,0,1,206.34,599h-121a12.84,12.84,0,0,1-12.84-12.84V518.55a12.84,12.84,0,0,1,12.84-12.84h121a12.84,12.84,0,0,1,12.84,12.84Zm0-145.11a12.84,12.84,0,0,1-12.84,12.84h-121a12.84,12.84,0,0,1-12.84-12.84V373.44a12.83,12.83,0,0,1,12.84-12.83h121a12.83,12.83,0,0,1,12.84,12.83ZM419.62,730h0a12.83,12.83,0,0,1-12.84,12.83h-121A12.82,12.82,0,0,1,273,730V662.43a12.83,12.83,0,0,1,12.83-12.84h121a12.84,12.84,0,0,1,12.84,12.84Zm0-143.88h0A12.84,12.84,0,0,1,406.78,599h-121A12.83,12.83,0,0,1,273,586.16V518.55a12.83,12.83,0,0,1,12.83-12.84h121a12.84,12.84,0,0,1,12.84,12.84Zm0-145.11h0a12.84,12.84,0,0,1-12.84,12.84h-121A12.83,12.83,0,0,1,273,441.05V373.44a12.82,12.82,0,0,1,12.83-12.83h121a12.83,12.83,0,0,1,12.84,12.83ZM616.38,730a12.83,12.83,0,0,1-12.84,12.83h-121A12.83,12.83,0,0,1,469.74,730V518.55a12.84,12.84,0,0,1,12.84-12.84h121a12.84,12.84,0,0,1,12.84,12.84Zm0-289a12.84,12.84,0,0,1-12.84,12.84h-121a12.84,12.84,0,0,1-12.84-12.84V373.44a12.83,12.83,0,0,1,12.84-12.83h121a12.83,12.83,0,0,1,12.84,12.83Z"/></g></g></svg>