<svg xmlns="http://www.w3.org/2000/svg" viewBox="0 0 960.98 606.07"><defs><style>.cls-1{fill:#fff;}</style></defs><g id="Capa_2" data-name="Capa 2"><g id="Capa_6" data-name="Capa 6"><g id="Layer_2" data-name="Layer 2"><g id="Object"><path class="cls-1" d="M210.87,49a155.9,155.9,0,1,0,132.4,237.73A201.62,201.62,0,0,1,326.69,101,155.5,155.5,0,0,0,210.87,49Z"/><path class="cls-1" d="M317.67,339.07l-6.82,5a107,107,0,0,1-200.69-.95A116.34,116.34,0,0,1,99.67,335l-2.42-2.1L95.89,334C-1.47,418.07,0,564.94,0,571.13v5.25H247.07c3.77-57,21-158.21,88.64-233.11A107.89,107.89,0,0,0,324,333.72l-4.09,3.67Z"/><path class="cls-1" d="M637.86,328.37l-4.72,4.2-2.31,2a215.42,215.42,0,0,1-96.52,42c-4.62.63-9.13,1.37-13.85,1.68s-7.87,0-12,0a191.12,191.12,0,0,1-42-4.82,230,230,0,0,1-85.29-44.17l-3.57-1.78-1.57,1.36c-110.58,96.1-109.11,264.27-109,271.3v6H742.77v-6.3C734.37,405.48,657,341.27,637.86,328.37Zm-66.1,131.56-66.82-34.1-66.83,34.1V377.68l66.83,35.67,66.82-35.67Z"/><path class="cls-1" d="M330.78,178.35A178.35,178.35,0,0,0,509.13,356.7h0A178.35,178.35,0,1,0,330.78,178.35Z"/><path class="cls-1" d="M760.6,567.36H961v-4.72c0-5.57-1.89-130.3-89.07-205.73l-1.15-1.05q-4.2,3.87-8.71,7.55l-61.9,120.75-10.49-70.81,17.63-28.54a150.47,150.47,0,0,1-35,4.2h-9.34a148.15,148.15,0,0,1-16.79-2l-6.39-1.25,17.41,28-12.27,67A486.37,486.37,0,0,1,760.6,567.36Z"/><path class="cls-1" d="M777.81,369.81A140.06,140.06,0,1,0,693.88,118a187.78,187.78,0,0,1-34.41,186.22A140.05,140.05,0,0,0,777.81,369.81Z"/></g></g></g></g></svg>