<svg xmlns="http://www.w3.org/2000/svg" viewBox="0 0 966 844"><defs><style>.cls-1{fill:#fff;}</style></defs><g id="Capa_2" data-name="Capa 2"><g id="Capa_42" data-name="Capa 42"><polygon class="cls-1" points="381.52 486.64 381.71 415.69 381.52 415.8 381.52 415.47 291.59 471.07 291.59 680.74 578.46 680.74 578.46 607.34 381.52 607.34 381.52 486.64"/><polygon class="cls-1" points="381.52 76.61 726.73 76.61 806.02 36.94 873.43 3.48 872.9 3.48 873.43 3.21 291.59 3.21 291.59 212.87 381.52 268.48 381.52 76.61"/><path class="cls-1" d="M966,.23l-.17.08V0L955.38,5.23,812.72,76.61,632.22,167c-5.46,2.74-8.79,7.6-8.79,12.83V828.93c0,11.76,15.79,19,28.07,12.83L952.26,691.2c8.43-4.22,13.56-11.71,13.56-19.78V229.77ZM685.7,450.52V408a16.85,16.85,0,0,1,6.74-13.12,25.12,25.12,0,0,1,16.08-5.51c12.59,0,22.82,8.35,22.82,18.63v42.57c0,10.28-10.23,18.63-22.82,18.63S685.7,460.8,685.7,450.52Z"/><path class="cls-1" d="M381.52,369.5l30.69-19c6.85-4.31,6.85-12.75,0-17.07l-30.69-19-89.93-55.6-59.24-36.62a15.32,15.32,0,0,0-7.87-2.1c-6.74,0-13.15,4.3-13.15,10.64v47.44c0,5.87-5.84,10.73-13,10.73H13.15C5.84,288.94,0,293.71,0,299.59v84.78c0,5.87,5.84,10.74,13.15,10.74H198.29c7.19,0,13,4.77,13,10.64v47.44c0,6.33,6.41,10.73,13.15,10.73a15.34,15.34,0,0,0,7.87-2.2l59.24-36.61Z"/></g></g></svg>