<svg xmlns="http://www.w3.org/2000/svg" viewBox="0 0 440.04 480.61"><defs><style>.cls-1{fill:#fff;}</style></defs><g id="Capa_2" data-name="Capa 2"><g id="Layer_1" data-name="Layer 1"><rect class="cls-1" x="65" y="192.5" width="200" height="30"/><path class="cls-1" d="M418.82,480.61,440,459.39,368.69,388A101.44,101.44,0,0,0,330,235.66V108.79L221.21,0H0V445H330V419.69a102.2,102.2,0,0,0,17.48-10.43ZM230,51.21,278.79,100H230V51.21ZM30,30H200V130H300v97a101.43,101.43,0,0,0-90.68,35.54H65v30H191.86a100.83,100.83,0,0,0-6.29,35.17q0,2.43.12,4.83H65v30H191.72A102.13,102.13,0,0,0,235.36,415H30ZM287.1,399.21a71.54,71.54,0,1,1,71.54-71.53A71.61,71.61,0,0,1,287.1,399.21Z"/></g></g></svg>