<svg xmlns="http://www.w3.org/2000/svg" viewBox="0 0 598 844"><defs><style>.cls-1{fill:#0e4432;}</style></defs><g id="Capa_2" data-name="Capa 2"><g id="Capa_35_copia" data-name="Capa 35 copia"><path class="cls-1" d="M587.3,174.19,423.81,10.7A35.34,35.34,0,0,0,398.61,0H35.91A36.11,36.11,0,0,0,0,35.91V607a36.1,36.1,0,0,0,35.91,35.9H264V808.09A36.1,36.1,0,0,0,299.86,844c19.68,0,35.91-16.23,35.91-34.18V643.06H563.82A34.25,34.25,0,0,0,598,608.87V199.39C598.17,190.41,594.55,181.44,587.3,174.19ZM436.41,121.53l67.85,67.16H436.41ZM529.81,573H335.94V430l30.56,28.14c17.26,17.26,43.16,5.35,48.51-1.73,12.6-14.33,12.6-37.63-1.73-50.24l-89.77-82.69c-14.33-12.6-35.9-12.6-48.51,0L185.23,406.2a35.55,35.55,0,0,0,48.51,52L264.3,430V573H72V71.82H364.77v149a36.1,36.1,0,0,0,35.91,35.9H530V573Z"/></g></g></svg>