<svg xmlns="http://www.w3.org/2000/svg" viewBox="0 0 966.26 840.94"><defs><style>.cls-1{fill:#fff;}</style></defs><g id="Capa_2" data-name="Capa 2"><g id="Capa_46" data-name="Capa 46"><path class="cls-1" d="M608.59,616.33H548.42l-8.41,3.2a57.23,57.23,0,0,1-47.71-3.2H396.56V527.16h86.56L504.86,500H396.56V405.86H580.18l21.75-27.15H396.55V276.86h212v93.5L636.86,335V276.86h46.55L692.87,265a56.19,56.19,0,0,1,19.38-15.33H636.86V150.12H854.38V249.7H761.87a55.63,55.63,0,0,1,19.45,15.23l9.54,11.93h63.52v79.4l28.27,35.32V31.68c0-17.47-14.8-31.68-33-31.68H33C14.78,0,0,14.22,0,31.68V725.75a31.3,31.3,0,0,0,14.13,25.92v5H26a33.85,33.85,0,0,0,7,.76H623.58V587.81l-15,5.68v22.84ZM636.86,27.15h212.8a4.63,4.63,0,0,1,4.72,4.53V123H636.86V27.15Zm-240.31,0h212V123h-212Zm0,123h212V249.7h-212ZM130.35,729.5H30.53a4.42,4.42,0,0,1-2.27-3.77V643.5H130.35Zm0-113.17H28.26V527.16H130.35Zm0-116.31H28.26V405.86H130.35Zm0-121.32H28.26V276.86H130.35Zm0-129H28.26V150.12H130.35ZM368.28,729.5H158.61v-86H368.28Zm0-113.17H158.61V527.16H368.28Zm0-116.31H158.61V405.86H368.28Zm0-121.32H158.61V276.86H368.28Zm0-129H158.61V150.12H368.28Zm0-126.74H158.61V27.14H368.28ZM608.59,729.5h-212v-86h212v86ZM966.26,553.72a10.78,10.78,0,0,1-2.33,6.68A11.82,11.82,0,0,1,950.46,564l-144.1-54.67V829.85a11.32,11.32,0,0,1-11.57,11.09H679.32a11.33,11.33,0,0,1-11.55-11.09V509.35L523.67,564a11.8,11.8,0,0,1-13.46-3.63,10.71,10.71,0,0,1,.06-13.44L727.9,275a11.86,11.86,0,0,1,18.33,0L963.86,547A10.87,10.87,0,0,1,966.26,553.72Z"/></g></g></svg>