<svg xmlns="http://www.w3.org/2000/svg" viewBox="0 0 790.06 842.03"><defs><style>.cls-1{fill:#fff;}</style></defs><g id="Capa_2" data-name="Capa 2"><g id="Capa_14" data-name="Capa 14"><path class="cls-1" d="M709.14,0H79.43C36.67,0,0,35.19,0,79.43V762.59C0,805.35,35.19,842,79.43,842H710.62c42.76,0,79.44-35.2,79.44-79.44V79.43C788.58,35.19,753.38,0,709.14,0Zm-26,735.13H105.42V105.42H683V735.13Zm-472.32-263H577.58v52H210.84Zm0,105.42H577.58v52H210.84Zm52-340.76c0-42.76,35.2-79.43,79.44-79.43a79.43,79.43,0,1,1,0,158.86C298,316.25,262.8,279.58,262.8,236.82Zm131.41,77.95H288.79c-42.76,0-79.43,22.86-79.43,52v53.45h262.8v-52C473.8,339.28,437.13,314.77,394.21,314.77Z"/></g></g></svg>