<svg xmlns="http://www.w3.org/2000/svg" viewBox="0 0 485.57 548.29"><defs><style>.cls-1{fill:#fff;}</style></defs><g id="Capa_2" data-name="Capa 2"><g id="Capa_1-2" data-name="Capa 1"><path class="cls-1" d="M454.84,196.12H441.67V132.59a9.73,9.73,0,0,0-.11-1.2,10.57,10.57,0,0,0-2.55-7L333.3,3.68a.36.36,0,0,1-.09-.08,10.44,10.44,0,0,0-2.14-1.79,7.2,7.2,0,0,0-.7-.42A10.94,10.94,0,0,0,328.25.5c-.2-.06-.38-.14-.58-.19A10.71,10.71,0,0,0,325.2,0H65.4A21.52,21.52,0,0,0,43.9,21.5V196.12H30.73A30.73,30.73,0,0,0,0,226.85V386.66a30.73,30.73,0,0,0,30.73,30.73H43.9v109.4a21.52,21.52,0,0,0,21.5,21.5H420.17a21.52,21.52,0,0,0,21.5-21.5V417.39h13.17a30.73,30.73,0,0,0,30.73-30.73V226.85A30.73,30.73,0,0,0,454.84,196.12ZM65.4,21.5H314.45v110a10.75,10.75,0,0,0,10.75,10.75h95v53.86H65.4ZM286.46,303.43c0,47.77-29,76.74-71.56,76.74-43.24,0-68.53-32.64-68.53-74.15,0-43.68,27.88-76.32,70.9-76.32C262,229.7,286.46,263.21,286.46,303.43ZM50.79,377.79V232.09H83.87v118h57.94v27.66h-91ZM420.17,521H65.4V417.39H420.17V521Zm9.65-149.87c-10.17,3.46-29.41,8.21-48.64,8.21-26.59,0-45.84-6.7-59.24-19.66-13.4-12.54-20.75-31.57-20.53-53,.21-48.44,35.44-76.11,83.23-76.11,18.81,0,33.29,3.69,40.43,7.14l-6.92,26.37c-8-3.46-17.95-6.27-33.95-6.27-27.44,0-48.2,15.57-48.2,47.14,0,30.05,18.8,47.77,45.83,47.77,7.56,0,13.62-.85,16.21-2.15V320.07H375.56V294.35h54.26v76.74Z"/><path class="cls-1" d="M181.17,305.37c0,28.53,13.41,48.64,35.46,48.64,22.26,0,35-21.19,35-49.5,0-26.15-12.54-48.65-35.24-48.65C194.14,255.85,181.17,277.05,181.17,305.37Z"/></g></g></svg>