<svg xmlns="http://www.w3.org/2000/svg" viewBox="0 0 819 840.2"><defs><style>.cls-1{fill:#fff;}</style></defs><g id="Capa_2" data-name="Capa 2"><g id="Capa_25" data-name="Capa 25"><path class="cls-1" d="M721.29.12a110.29,110.29,0,0,0-30.93,9.13c-11.23,5.72-23.84,16.16-30.8,25.61-1.64,2.17-82.41,105.66-179.47,230-114.26,146.24-176.84,225.9-177.3,225.57-3.61-2.17-141.38-102-146.7-106.38-16-13-31.45-21.08-48.46-25.54-8.86-2.3-24.56-3-34.08-1.32C36.91,363.46,8.47,391.43,1.12,428.4.33,432.41,0,437.34,0,445c-.06,11.76,1.18,19.51,4.66,29.16,2.37,6.63,8.21,17.73,11.89,22.72,1.77,2.36,30.34,35.13,63.5,72.89C202.78,709.26,249.67,762.78,282.9,801L317,840.2l1.77-2.43C328.8,823.85,804,138,806.72,133.49,827.54,99,821.37,53.12,792.14,25,775.66,9.12,755.63.65,733.11.12,727.86-.07,722.54,0,721.29.12Z"/></g></g></svg>