<svg xmlns="http://www.w3.org/2000/svg" viewBox="0 0 964.13 667"><defs><style>.cls-1{fill:#fff;}</style></defs><g id="Capa_2" data-name="Capa 2"><g id="Capa_21" data-name="Capa 21"><path class="cls-1" d="M907.71,0H56.42A56.42,56.42,0,0,0,0,56.42V610.58A56.42,56.42,0,0,0,56.42,667H907.71a56.41,56.41,0,0,0,56.42-56.42V56.42A56.41,56.41,0,0,0,907.71,0ZM491.54,94.86h211.8a24,24,0,1,1,0,48H491.54a24,24,0,0,1,0-48ZM375.15,269c-5.4,26.41-24.41,44.86-42.46,41.19a22.84,22.84,0,0,1-5-1.81c-14.83,32.27-36.35,61-61.76,78.12V403a69.92,69.92,0,0,0,45.27,65.41,9,9,0,0,1,4.9,12.45L278,558a69.33,69.33,0,0,1-124.26,0l-38.15-77.12a9,9,0,0,1,4.9-12.45A69.92,69.92,0,0,0,165.72,403V386.5c-25.41-17.16-46.92-45.85-61.75-78.12a22.92,22.92,0,0,1-5,1.81c-18,3.67-37.06-14.78-42.46-41.19s4.93-50.83,23-54.51a24.38,24.38,0,0,1,2.85-.16c1-79.63,60.22-143.91,133.43-143.91S348.3,134.7,349.27,214.33a24.08,24.08,0,0,1,2.84.16C370.21,218.17,380.49,242.57,375.15,269Zm424.1,321.4H587.45a24,24,0,0,1,0-48h211.8a24,24,0,1,1,0,48Zm63.94-127.88H491.54a24,24,0,0,1,0-47.95H863.19a24,24,0,1,1,0,47.95Zm0-127.88H491.54a24,24,0,0,1,0-48H863.19a24,24,0,0,1,0,48Z"/></g></g></svg>