<svg xmlns="http://www.w3.org/2000/svg" viewBox="0 0 722.12 844"><defs><style>.cls-1{fill:#fff;}</style></defs><g id="Capa_2" data-name="Capa 2"><g id="Capa_26" data-name="Capa 26"><path class="cls-1" d="M417.89,126.37v-54h55.86a15,15,0,0,0,15-15V15a15,15,0,0,0-15-15H238.46a15,15,0,0,0-15,15V57.4a15,15,0,0,0,15,15h65.79v54C131.84,153.63,0,302.87,0,482.94,0,682.35,161.65,844,361.06,844S722.12,682.35,722.12,482.94C722.12,302.87,590.31,153.63,417.89,126.37ZM361.06,774.13C200.5,774.13,69.87,643.5,69.87,482.94S200.5,191.75,361.06,191.75,652.25,322.38,652.25,482.94,521.64,774.13,361.06,774.13Z"/><path class="cls-1" d="M356.1,221.75V482.94H617.3C617.29,338.69,500.36,221.75,356.1,221.75Z"/><path class="cls-1" d="M356.1,656.71h46.65v77.36H356.1ZM113.9,446.27h77.69V504.5H113.9ZM541.58,585.85l42.5,24.54q5.65-10.15,10.45-20.84l-41.31-23.87ZM464.36,654.3l29.42,50.57q10-6.18,19.31-13.19l-28.61-49.09ZM253.38,705l-20.13-11.73,29.53-50.69,20.14,11.71Zm-98.55-89.76-11.64-20.17,50.92-29.41,11.63,20.18Zm39.23-230.15-50.9-29.41,11.65-20.17,50.9,29.41Zm68.69-76.93-29.53-50.69,20.14-11.72,29.53,50.69ZM47.92,142.79A74.87,74.87,0,0,0,43.76,248.6L153.73,147A74.87,74.87,0,0,0,47.92,142.79Z"/></g></g></svg>