<svg xmlns="http://www.w3.org/2000/svg" viewBox="0 0 859.4 834"><defs><style>.cls-1{fill:#fff;}</style></defs><g id="Capa_2" data-name="Capa 2"><g id="Capa_37" data-name="Capa 37"><path class="cls-1" d="M141.23,641.22a12.33,12.33,0,0,0-16.77-4.42L93.74,654.63V619.15a12.18,12.18,0,1,0-24.36,0v35.48L38.66,636.8A12.27,12.27,0,0,0,26.3,658l30.9,18L26.3,694a12.27,12.27,0,0,0,12.36,21.19l30.72-17.83v35.48a12.18,12.18,0,1,0,24.36,0V697.36l30.72,17.83A12.27,12.27,0,0,0,136.82,694l-30.9-18,30.9-18A12.21,12.21,0,0,0,141.23,641.22Z"/><path class="cls-1" d="M254,710.6A12.33,12.33,0,0,0,270.81,715l30.72-17.83v35.49a12.18,12.18,0,1,0,24.36,0V697.18L356.61,715A12.26,12.26,0,1,0,369,693.83l-30.89-18,30.89-18a12.26,12.26,0,1,0-12.36-21.18l-30.72,17.83V619a12.18,12.18,0,1,0-24.36,0v35.49L270.81,636.8A12.26,12.26,0,1,0,258.46,658l30.89,18-30.89,17.83A12.33,12.33,0,0,0,254,710.6Z"/><path class="cls-1" d="M232.15,803.11v21.53a9.42,9.42,0,0,0,9.36,9.36H386.1a9.42,9.42,0,0,0,9.35-9.36V803.11a9.42,9.42,0,0,0-9.35-9.36H241.51A9.31,9.31,0,0,0,232.15,803.11Z"/><path class="cls-1" d="M584.53,201.1h-1.06v-48C583.47,69.58,515.15-1.39,431.82,0c-81,1.41-146.71,67.79-146.71,149.18v4.59a12.58,12.58,0,0,0,12.54,12.53h40.07a12.58,12.58,0,0,0,12.54-12.53v-1.41c0-44.85,33.72-84.21,78.56-87A84,84,0,0,1,518.15,149v51.9H394.57v.18H280.35A39.39,39.39,0,0,0,242,240.29V457.44a39.41,39.41,0,0,0,39.37,39.37H584.35a39.41,39.41,0,0,0,39.37-39.37v-217A39.14,39.14,0,0,0,584.53,201.1ZM456.36,358.75c-3,2.12-3.89,4.42-3.89,7.95.18,15.88.18,31.77,0,47.84h0a16.73,16.73,0,0,1-9,16.06c-14,7.07-27.89-2.82-27.89-16.06v-48c0-3.18-.71-5.47-3.53-7.59-14.48-10.59-19.25-28.78-12-44.84,7.06-15.54,24.19-24.72,40.25-21.36,18,3.53,30.54,18.18,30.72,36C471.54,341.27,466.42,351.51,456.36,358.75Z"/><path class="cls-1" d="M464.13,803.11v21.53a9.42,9.42,0,0,0,9.35,9.36H618.07a9.42,9.42,0,0,0,9.36-9.36V803.11a9.42,9.42,0,0,0-9.36-9.36H473.48A9.42,9.42,0,0,0,464.13,803.11Z"/><path class="cls-1" d="M486,710.6A12.32,12.32,0,0,0,502.79,715l30.72-17.83v35.49a12.18,12.18,0,1,0,24.36,0V697.18L588.59,715A12.26,12.26,0,1,0,601,693.83l-30.9-18,30.9-18a12.26,12.26,0,1,0-12.36-21.18l-30.72,17.83V619a12.18,12.18,0,1,0-24.36,0v35.49l-30.72-17.83a12.26,12.26,0,0,0-12.36,21.18l30.9,18-30.9,18A12.31,12.31,0,0,0,486,710.6Z"/><path class="cls-1" d="M850,793.75H705.46a9.42,9.42,0,0,0-9.36,9.36v21.53a9.42,9.42,0,0,0,9.36,9.36H850a9.42,9.42,0,0,0,9.36-9.36V803.11A9.42,9.42,0,0,0,850,793.75Z"/><path class="cls-1" d="M9.36,834H153.94a9.42,9.42,0,0,0,9.36-9.36V803.11a9.42,9.42,0,0,0-9.36-9.36H9.36A9.42,9.42,0,0,0,0,803.11v21.53A9.42,9.42,0,0,0,9.36,834Z"/><path class="cls-1" d="M718.17,710.6A12.32,12.32,0,0,0,734.94,715l30.72-17.83v35.49a12.18,12.18,0,1,0,24.36,0V697.18L820.74,715a12.26,12.26,0,1,0,12.36-21.18l-30.9-18,30.9-18a12.26,12.26,0,1,0-12.36-21.18L790,654.46V619a12.18,12.18,0,1,0-24.36,0v35.49l-30.72-17.83a12.26,12.26,0,1,0-12.36,21.18l30.9,18-30.9,18A12.17,12.17,0,0,0,718.17,710.6Z"/></g></g></svg>