<svg xmlns="http://www.w3.org/2000/svg" viewBox="0 0 865.1 844"><defs><style>.cls-1{fill:#fff;}</style></defs><g id="Capa_2" data-name="Capa 2"><g id="Capa_34" data-name="Capa 34"><path class="cls-1" d="M865.1,797.34l-159.17-142A222.56,222.56,0,0,0,754.05,517c0-116.27-89.14-211.68-202.65-222.6a75.16,75.16,0,0,0-6-14l-3.87-6.73c8.85-12.59,13.81-26,13.81-40.08V153.66c0-10.86-3-21.88-9.06-32.79l-1.82-3.42c2.48-5.77,4.2-11.68,4.2-18C548.61,34.94,408.92,0,277.61,0S6.71,34.94,6.71,99.51a44.83,44.83,0,0,0,4.18,18L9,121c-6,10.81-9,21.83-9,32.69v79.93c0,14.07,4.91,27.49,13.79,40.08l-3.92,6.84C3.29,291.76,0,303.27,0,314.66v79.95c0,13.71,4.67,26.87,13.11,39.22l-3.24,5.56C3.29,450.72,0,462.24,0,473.52v80.05c0,71,121.91,126.64,277.61,126.64a590.55,590.55,0,0,0,90.47-6.79c-1.77-2.35-3.21-5-4.91-7.6,41,46,100.42,75.23,166.82,75.23a223,223,0,0,0,142.83-51.52L814.63,844Zm-430-375.94a138.9,138.9,0,0,1,196.43.52c54.13,54.47,53.77,142.54-.62,196.48a139,139,0,0,1-196.56-.6C380.3,563.36,380.77,475.4,435.13,421.4ZM277.61,29.79c149.43,0,241.26,40.6,241.26,69.72S427,169.28,277.61,169.28,36.4,128.67,36.4,99.51,128.1,29.79,277.61,29.79ZM29.77,167.06c44.51,37.73,147.78,57.26,247.84,57.26s203.32-19.53,247.89-57.26v66.5c0,45.85-101.72,96.95-247.89,96.95S29.77,279.41,29.77,233.56Zm0,152.33c45.53,41.77,139.32,68.43,247.84,68.43a590.46,590.46,0,0,0,73.87-5c-18.15,24.18-32,51.86-39.2,82.15a216.15,216.15,0,0,0-4.59,25.3c-10,.47-19.69,1.28-30.08,1.28-146.06,0-247.84-51.1-247.84-96.95ZM277.61,650.52c-146.06,0-247.84-51.1-247.84-96.95V478.35c45.53,41.77,139.32,68.38,247.84,68.38,10.34,0,20.34-.65,30.39-1.28a220.19,220.19,0,0,0,24.07,76.19,209.52,209.52,0,0,0,15.51,24.57A563.13,563.13,0,0,1,277.61,650.52Z"/><path class="cls-1" d="M637.1,510.65l9.9-29.48c-77.79-125.36-185.73-52.59-185.73-52.59C596.39,404.11,637.1,510.65,637.1,510.65Z"/></g></g></svg>