<svg xmlns="http://www.w3.org/2000/svg" viewBox="0 0 896 960"><defs><style>.cls-1{fill:#fff;}</style></defs><g id="Capa_2" data-name="Capa 2"><g id="Capa_1-2" data-name="Capa 1"><path class="cls-1" d="M704,896H64V320H704V512h64V192a64,64,0,0,0-64-64H512a128,128,0,0,0-256,0H64A64,64,0,0,0,0,192V896a63.94,63.94,0,0,0,64,64H704a64,64,0,0,0,64-64V768H704ZM192,192h64c64,0,64-64,64-64a64,64,0,0,1,128,0s0,64,64,64h64c64,0,64,64,64,64H128S128,192,192,192ZM128,704H256V640H128ZM576,576V448L320,640,576,832V704H896V576ZM128,832H320V768H128ZM448,384H128v64H448ZM256,512H128v64H256Z"/></g></g></svg>