<svg xmlns="http://www.w3.org/2000/svg" viewBox="0 0 963.12 838.91"><defs><style>.cls-1{fill:#fff;}</style></defs><g id="Capa_2" data-name="Capa 2"><g id="Capa_23" data-name="Capa 23"><path class="cls-1" d="M947.58,683.57H885.45V209.78a54.43,54.43,0,0,0-54.37-54.37h-101a15.37,15.37,0,0,0-7.13,1.75C663.9,23.82,507.93-36.37,374.59,22.7A264.08,264.08,0,0,0,240.14,157.16a15.4,15.4,0,0,0-7.13-1.75H132a54.42,54.42,0,0,0-54.37,54.37V683.57H15.53A15.53,15.53,0,0,0,0,699.1v85.44a54.42,54.42,0,0,0,54.37,54.37H908.75a54.43,54.43,0,0,0,54.37-54.37V699.1A15.54,15.54,0,0,0,947.58,683.57Zm-466-652.43c128.69,0,233,104.32,233,233s-104.32,233-233,233-233-104.32-233-233S352.93,31.28,481.56,31.14Zm0,497.09c145.61,0,264.08-118.47,264.08-264.08a266.52,266.52,0,0,0-1.84-31.07h64V637H155.34V233.08h64a264.35,264.35,0,0,0-1.84,31.07C217.48,409.76,336,528.23,481.56,528.23ZM108.74,209.78a23.32,23.32,0,0,1,23.3-23.3h97.11c-1.59,5.1-3,10.29-4.27,15.53H139.81a15.54,15.54,0,0,0-15.54,15.54v435A15.54,15.54,0,0,0,139.81,668h683.5a15.53,15.53,0,0,0,15.53-15.54V217.55A15.53,15.53,0,0,0,823.31,202H738.24c-1.28-5.24-2.68-10.43-4.27-15.53h97.11a23.32,23.32,0,0,1,23.3,23.3V683.57H108.74Zm460,504.86-5.18,15.53h-164l-5.19-15.53Zm363.31,69.9a23.32,23.32,0,0,1-23.3,23.3H54.37a23.32,23.32,0,0,1-23.3-23.3v-69.9H361.62l12,36a15.53,15.53,0,0,0,14.73,10.62H574.76a15.53,15.53,0,0,0,14.74-10.62l12-36H932.05Z"/><path class="cls-1" d="M481.56,466.09c111.53,0,201.94-90.41,201.94-201.94S593.09,62.2,481.56,62.2s-201.95,90.42-201.95,202S370.08,466,481.56,466.09ZM350.31,154.86l10.42,10.43a15.54,15.54,0,1,0,22-22l-10.43-10.43A170.14,170.14,0,0,1,466,94v14.82a15.54,15.54,0,0,0,31.07,0V94a170.11,170.11,0,0,1,93.75,38.9l-10.42,10.43a15.54,15.54,0,1,0,22,22l10.42-10.43a170.15,170.15,0,0,1,38.91,93.75H636.9a15.54,15.54,0,0,0,0,31.07h14.82a170,170,0,0,1-38.9,93.75L602.4,363a15.54,15.54,0,0,0-22,22l10.42,10.42a170,170,0,0,1-93.76,38.91V419.49a15.54,15.54,0,0,0-31.07,0v14.82a170.06,170.06,0,0,1-93.75-38.9L382.7,385a15.54,15.54,0,1,0-22-22l-10.42,10.42a170,170,0,0,1-38.91-93.76h14.82a15.54,15.54,0,0,0,0-31.07H311.4A170.08,170.08,0,0,1,350.31,154.86Z"/><path class="cls-1" d="M481.56,279.68h46.6a15.54,15.54,0,1,0,0-31.07H497.09V170.94a15.54,15.54,0,0,0-31.07,0v93.21A15.53,15.53,0,0,0,481.56,279.68Z"/></g></g></svg>