<svg xmlns="http://www.w3.org/2000/svg" viewBox="0 0 557.77 494"><defs><style>.cls-1{fill:#0e4432;}</style></defs><g id="Capa_2" data-name="Capa 2"><g id="Capa_1-2" data-name="Capa 1"><g id="Capa_2-2" data-name="Capa 2"><g id="Capa_1-2-2" data-name="Capa 1-2"><path class="cls-1" d="M0,274.06V384C0,494,110,494,110,494H219.42c109.47,0,109.47-109.5,109.47-109.5V334.67A712.85,712.85,0,0,1,219.42,281v89c0,13.68-10.66,14.53-10.66,14.53H120.61A10.25,10.25,0,0,1,110,375.78V291.5c0-16.35,11.63-16.47,11.63-16.47h88.15c-45.14-28.54-88.08-64-124-108C8.48,183,0,274.06,0,274.06Z"/><path class="cls-1" d="M557.34,390.28c-4.68-.38-48.33-4.2-109.59-18.7.13,57.42.3,122.39.3,122.39S552.68,473.58,557.34,390.28Z"/><path class="cls-1" d="M328.89,0H219.42V281.13a712.7,712.7,0,0,0,109.47,53.64Z"/><path class="cls-1" d="M209.73,275.12h0V164.69H110a119.15,119.15,0,0,0-24.2,2.39C121.65,211.12,164.59,246.59,209.73,275.12Z"/><path class="cls-1" d="M557.52,384.59V274.16s10.77-109.47-109.47-109.47H338.58V274.16h96.87s12.11-1.82,12.11,12.1c0,5.87.09,43.64.19,85.42C509,386.18,552.66,390,557.34,390.37,557.44,388.47,557.52,386.56,557.52,384.59Z"/></g></g></g></g></svg>