<svg xmlns="http://www.w3.org/2000/svg" viewBox="0 0 966 844"><defs><style>.cls-1{fill:#fff;}</style></defs><g id="Capa_2" data-name="Capa 2"><g id="Capa_40" data-name="Capa 40"><path class="cls-1" d="M963,375.15c-1.53-11.86-17.37-20.79-31.06-20.79-44.26,0-83.54-22.69-100-57.82-16.82-36-6-77.91,27-104.34,10.38-8.3,11.65-22.19,2.94-31.83a452.21,452.21,0,0,0-76.51-67.52c-11-7.71-27.17-6.64-36.71,2.59-28.79,27.86-80.51,38.21-120.47,23.64C586.59,103.8,560.35,67,562.93,27.47c.84-12.43-9.55-23.22-23.72-24.66a551.1,551.1,0,0,0-108.67-.25c-14,1.35-24.37,11.89-23.91,24.15,1.57,39.14-25,75.3-66.14,90C301,130.84,249.65,120.57,220.92,93c-9.49-9.09-25.37-10.21-36.45-2.66a455.79,455.79,0,0,0-78.13,67.49c-8.91,9.69-7.59,23.74,2.88,32.06,33.62,26.61,44.47,68.91,27,105.3-16.67,34.7-57.9,57-105.1,57-15.31-.43-26.21,8.56-27.9,20.73a370,370,0,0,0-.21,96c1.53,11.91,17.83,20.76,31.68,20.76,42.07-.94,82.43,21.8,99.39,57.82s6,77.89-27,104.36c-10.33,8.3-11.65,22.15-2.93,31.79a453.62,453.62,0,0,0,76.4,67.54c11.07,7.79,27.17,6.7,36.77-2.54,28.9-27.93,80.61-38.26,120.41-23.66,41.69,15.24,67.92,52,65.36,91.58-.84,12.42,9.57,23.25,23.69,24.66A546.46,546.46,0,0,0,482.42,844q26.5,0,53-2.56c14-1.35,24.37-11.9,23.9-24.17-1.62-39.11,25-75.28,66.1-90,39.75-14.18,90.87-3.8,119.62,23.77,9.54,9.08,25.33,10.18,36.45,2.66a456.28,456.28,0,0,0,78.13-67.5c8.92-9.67,7.66-23.73-2.87-32.07-33.62-26.59-44.52-68.91-27.06-105.26,16.41-34.23,56.1-57.21,98.8-57.21l6,.14c13.86,1,26.6-8.35,28.28-20.7A368.7,368.7,0,0,0,963,375.15ZM483,665.29c-153.79,0-278.46-108.92-278.46-243.28S329.21,178.72,483,178.72,761.46,287.64,761.46,422c0,45.6-14.4,88.26-39.39,124.74L600.14,440.22A132.81,132.81,0,0,0,613.63,382c0-39.84-17.76-77.29-50-105.46s-75.11-43.68-120.7-43.68a194.5,194.5,0,0,0-45,5.26c-6.42,1.52-11.66,6.15-13.37,11.76s.22,11.64,5.36,16.13c0,0,60.19,53,80.34,70.59,2.11,1.84,2.1,6.24,1.8,7.83l-.18,1.15c-2,19.35-5.95,42.57-9.18,51.49-.43.38-.84.7-1.28,1.08s-.89.8-1.34,1.2c-10.35,2.9-37.34,6.36-59.83,8.12v-.1l-1,.22a9.35,9.35,0,0,1-1,0,13.94,13.94,0,0,1-9.26-3.43c-21-18.32-78.8-68.49-78.8-68.49a21.16,21.16,0,0,0-14.06-5.47c-8.27,0-15.67,5.22-18,12.71-15.92,51.48,1,106.85,44.06,144.51,32.25,28.17,75.12,43.68,120.72,43.68a191.78,191.78,0,0,0,66.65-11.78L632.84,627C589.57,651.21,538.18,665.29,483,665.29Z"/></g></g></svg>