<svg xmlns="http://www.w3.org/2000/svg" viewBox="0 0 699.63 551.04"><defs><style>.cls-1{fill:#fff;}</style></defs><g id="Capa_2" data-name="Capa 2"><g id="Capa_3" data-name="Capa 3"><path class="cls-1" d="M420.21,143.79c48.86,7.54,87.05,37.55,96.63,76,3.29,13,19.3,21.51,35.86,18.93s27.38-15.17,24.09-28.19C562.56,152.83,505.21,107.86,432,96.56c-16.56-2.58-32.58,5.92-35.86,18.94s7.53,25.71,24.09,28.29Zm2.46-95.86c113.61,9.9,203.26,80.37,216,169.57,1.92,13.23,17,22.7,33.81,21.19s28.88-13.34,27-26.57c-15.87-111.58-128-199.48-269.91-212-16.84-1.51-31.9,8.07-33.81,21.19s10.26,25.18,27,26.58ZM638.52,406.54H608v72.3c0,13.24-13.69,24-30.39,24l.14,24,1.23-24-5.75-.22-1.23,24,3.29-23.88C486,495.09,400.22,471.1,324.81,432.68l-.28-.1c-70.08-35-129.48-81.67-174-136.76l-.13-.21C101.29,236.22,70.76,168.43,61.32,98l-30.39,2.47,30.39-2.15L61.18,96c0-12.26,11.91-22.81,27.79-23.88L86.23,48.25l1.37,24L92.39,72H184.1c15.19,0,28.06,8.82,30.25,20.66v-.22a275.41,275.41,0,0,0,23,72.74v.1a18.88,18.88,0,0,1,1.92,8.5c0,6.24-3,12.27-8.9,16.9l.14-.11-38.87,30.55c-9.72,7.64-11.78,19.48-4.93,28.84C233,313.9,300.3,366.84,381.61,403.2c11.91,5.38,27,3.77,36.68-3.87l38.87-30.56-.13.11a36.13,36.13,0,0,1,21.49-7,40.07,40.07,0,0,1,10.67,1.5h.14a518.19,518.19,0,0,0,92.53,18.08h-.28c15.06,1.61,26.28,11.84,26.28,23.78v1.18h30.66l30.53.54v-1.83c0-35.83-33.54-66.28-78.84-71.33h-.28a441.81,441.81,0,0,1-79.25-15.5h.14a114.08,114.08,0,0,0-32.3-4.62c-23.68,0-46.95,7.2-64.47,20.87l-.14.11L375,365.22l21.62,17,15.06-20.87C340,329.29,280.59,282.59,239.81,226.21l-26.56,11.84,21.63,17,38.87-30.56.14-.11c17.24-13.77,26.55-32.06,26.55-50.67a58.59,58.59,0,0,0-5.88-25.4v.11a233.78,233.78,0,0,1-19.71-62.3v-.21c-6.44-35.62-45.17-62-90.75-62H183l.41,24V24H90.34l-5.48.22-1.37.1C35.86,27.81,0,59.12,0,96.13a54.87,54.87,0,0,0,.41,6.56v.43C11,181.13,44.76,256.12,99,322l-.14-.21c49.28,61,115.12,112.75,192.86,151.6l-.27-.11c83.35,42.5,178.35,69.07,277.17,77.47l2,.1,5.75.22h1.37c50.51-.22,91.3-32.39,91.3-72.09v-72.3H638.52l30.53.54Z"/></g></g></svg>