<svg xmlns="http://www.w3.org/2000/svg" viewBox="0 0 951 764.17"><defs><style>.cls-1,.cls-2{fill:#474849;}.cls-2{fill-rule:evenodd;}</style></defs><g id="Capa_2" data-name="Capa 2"><g id="Capa_30" data-name="Capa 30"><path class="cls-1" d="M592.1,644.72c0-63.07,34.78-117.72,85.82-147.23a682,682,0,0,0-102.47-23.95c77.66-43.07,130.29-125.81,130.29-220.95C705.74,113.08,592.66,0,453.15,0S200.56,113.08,200.56,252.59c0,95.11,52.63,177.88,130.29,221C140,503.29,0,600.75,0,716.55H608.51C598.26,694.6,592.1,670.49,592.1,644.72Z"/><path class="cls-2" d="M842.44,560.9,951,418.26l-7.35-59.54-59.07,7.37,5.31,45.06-48.9,6.3,6.39,49.09-46.67,6.1-7.83,46.21a138.16,138.16,0,0,0-78.94-13A130.08,130.08,0,0,0,610.65,670c16.16,57.09,70.77,96.63,130.05,94.06A130.08,130.08,0,0,0,864.58,617a124.49,124.49,0,0,0-21.76-56.47ZM716.58,678.16a24.11,24.11,0,0,0,18.72-33.57,23.65,23.65,0,0,0-18.11-14.05c-20.37-2.95-35.29,18.29-24.24,37,4.72,8,14.25,11.85,23.45,10.64Z"/></g></g></svg>