<svg xmlns="http://www.w3.org/2000/svg" viewBox="0 0 1071.05 800.76"><defs><style>.cls-1{fill:#fb1806;}.cls-2{fill:#949599;}</style></defs><g id="Capa_2" data-name="Capa 2"><g id="Capa_1-2" data-name="Capa 1"><path class="cls-1" d="M646.18,475.25c5.73-11.72,8.19-24.51,12-36.85q20-64.69,39.56-129.51Q718.68,240,739.52,171q18.11-59.61,36.31-119.19,6.09-20,12.13-39.95c.44-1.43.42-3.08,2.51-4.34,1,6.91-1.66,13-2.86,19.14C781,60.65,773.86,94.52,767,128.46c-9.39,46.71-18.59,93.45-28,140.16-6.84,33.93-14,67.81-20.82,101.75-6.89,34.13-13.6,68.3-20.39,102.45-2.14,3-1.55,6.19-.31,9.51l2.16-9.54Q715.36,422,731,371.12T762.18,269.4q18.26-59.55,36.55-119.09,18.38-59.86,36.73-119.73C838.08,22,840.7,13.48,843.88,5c1.19,6-1.19,11.54-2.32,17.1-8.43,41.4-17.29,82.71-25.87,124.08-9.4,45.32-18.61,90.67-28,136-6.69,32.35-13.58,64.65-20.28,97-5.95,28.71-11.77,57.44-17.64,86.15-2.48,3.71-2.37,7.71-.81,12q1.59-5.93,3.19-11.83,14.58-47.79,29.17-95.57,19.67-64.4,39.36-128.78,19.24-62.79,38.62-125.52Q875,64.47,890.73,13.29c.37-1.2.08-2.82,2.49-3.16.66,6.6-1.89,12.68-3.16,18.79C879.89,78,869.28,127,859,176s-20.42,98.14-30.75,147.18q-13.14,62.32-26.63,124.57c-1.16,5.4-3.07,10.65-3,16.26-2.77,4.12-2,8.95-2.6,13.58,2-4.15,4.93-7.93,4.17-12.93,8.65-23.26,15.18-47.19,22.66-70.82,12.53-39.6,24.59-79.35,36.85-119q23.75-76.86,47.5-153.73Q925,63.51,943,6c.12-.39.55-.68,2.19-.73q-47.85,234-95.69,468l1.69.49L994.91,5.11l1.82.42q-47,229.65-94,459.31l1.74.56q72-230.82,144-461.64l1.44.33c-1.94,9.44-3.81,18.89-5.83,28.32q-16,74.82-32.11,149.62c-8.67,40.2-17.55,80.35-26.19,120.56-8.45,39.32-16.49,78.74-25.15,118-4,18-5.77,36.65-12.45,53.78-14.24,36.53-42.57,58.39-78.71,71.24-11.8,4.2-23.84,5.62-36.39,5.6q-163.2-.27-326.4-.06c-7.66,0-15.31-.4-23-.62-.81-1.65-2.32-2-4-2.07-7.73-.18-15-2.61-21.77-5.83-26-12.32-43.32-32.43-48-60.94a129.21,129.21,0,0,1,2.63-55.58c5.5-19.58,12.41-38.8,19.53-57.87,6.25-16.74,11.63-33.78,18-50.47,4.09-10.78,6.29-22.29,11.91-32.57,2.31,4.73-1.5,8.45-1.29,12.7.53,10.63-2.19,21-3.55,31.35-1.08,8.23-1.08,16.6-2.68,24.7-3.47,17.56-4.56,35.43-6.91,53.12-1.43,10.83-2.39,21.92-4.05,32.66-1.56,10.14-.56,20.61-4,30.58-1.29,3.77-1.41,8.49.53,14.08l74-199.29a44.39,44.39,0,0,1-.56,15.17c-2.26,11.81-5.12,23.54-6.65,35.45-1.74,13.53-4.6,26.85-6.4,40.37-2.43,18.32-7.21,36.34-9.61,54.66-1.81,13.75-4.4,27.37-6.56,41-1.17,7.41-2.15,15-3.79,22.46-1.57,7.18-5.3,14.62-2.71,22.16Q519.78,404,561.67,291.5a17.63,17.63,0,0,1,1.5,10.08c-1.45,9-3.49,17.91-4.89,26.91C556.08,342.62,555,357,552,370.92c-3.95,18.78-6.49,37.8-9.59,56.7-2.3,14.08-4.52,28.26-6.71,42.38-1.14,7.39-2.12,15-3.75,22.43-1.55,7.06-4.53,14.42-2.71,22.92l84.32-224.76c2,3.4,1.42,5.86,1.3,8.15-.57,10.76-3.63,21.12-5.23,31.72-2.16,14.35-3.9,28.76-6.24,43.08-3.09,18.94-7.29,37.71-9.68,56.73-1.79,14.21-4.71,28.22-6.58,42.41-.8,6-1.54,12.32-3.51,18.35a23.83,23.83,0,0,0,.63,16.52q38.87-107.93,77.79-216a2.77,2.77,0,0,1,1.63,3.33c-2.07,17.78-3.66,35.65-6.61,53.29-1,6.24-1.18,12.48-2.16,18.67-2.53,16.1-5.63,32.16-7.07,48.36-.92,10.29-3,20.39-3.91,30.67a209.27,209.27,0,0,1-2.8,21.31c-3,15.13-4.52,30.45-6.46,45.73,0,.18-.28.33-.42.5l.39-.09c3.45-5.43,5.11-11.58,6.38-17.47C642.52,488.9,646.6,482.61,646.18,475.25Z"/><path class="cls-2" d="M646.18,475.25c.42,7.36-3.66,13.65-5.15,20.59-1.27,5.89-2.93,12-6.38,17.47l-.39.09c.14-.17.4-.32.42-.5,1.94-15.28,3.48-30.6,6.46-45.73a209.27,209.27,0,0,0,2.8-21.31c.93-10.28,3-20.38,3.91-30.67,1.44-16.2,4.54-32.26,7.07-48.36,1-6.19,1.12-12.43,2.16-18.67,2.95-17.64,4.54-35.51,6.61-53.29a2.77,2.77,0,0,0-1.63-3.33q-39,108.15-77.79,216a23.83,23.83,0,0,1-.63-16.52c2-6,2.71-12.34,3.51-18.35,1.87-14.19,4.79-28.2,6.58-42.41,2.39-19,6.59-37.79,9.68-56.73,2.34-14.32,4.08-28.73,6.24-43.08,1.6-10.6,4.66-21,5.23-31.72.12-2.29.71-4.75-1.3-8.15L529.26,515.35c-1.82-8.5,1.16-15.86,2.71-22.92,1.63-7.43,2.61-15,3.75-22.43,2.19-14.12,4.41-28.3,6.71-42.38,3.1-18.9,5.64-37.92,9.59-56.7,3-14,4.06-28.3,6.26-42.43,1.4-9,3.44-17.91,4.89-26.91a17.63,17.63,0,0,0-1.5-10.08Q519.79,404,477.91,516.43c-2.59-7.54,1.14-15,2.71-22.16,1.64-7.45,2.62-15,3.79-22.46,2.16-13.67,4.75-27.29,6.56-41,2.4-18.32,7.18-36.34,9.61-54.66,1.8-13.52,4.66-26.84,6.4-40.37,1.53-11.91,4.39-23.64,6.65-35.45a44.39,44.39,0,0,0,.56-15.17l-74,199.29c-1.94-5.59-1.82-10.31-.53-14.08,3.42-10,2.42-20.44,4-30.58,1.66-10.74,2.62-21.83,4.05-32.66,2.35-17.69,3.44-35.56,6.91-53.12,1.6-8.1,1.6-16.47,2.68-24.7,1.36-10.39,4.08-20.72,3.55-31.35-.21-4.25,3.6-8,1.29-12.7-5.62,10.28-7.82,21.79-11.91,32.57-6.34,16.69-11.72,33.73-18,50.47-7.12,19.07-14,38.29-19.53,57.87a129.21,129.21,0,0,0-2.63,55.58c4.66,28.51,22,48.62,48,60.94,6.79,3.22,14,5.65,21.77,5.83,1.63,0,3.14.42,4,2.07-2.23.19-4.46.54-6.69.54-81.3,0-162.63,1.09-243.91-.4-44.27-.81-77.58-30.42-83.48-75.87-3.49-26.92,1.69-52,11.63-77,16.37-41.15,31.32-82.87,46.88-124.34a7.56,7.56,0,0,1,2.43-3.47q-12.27,96.56-24.53,193.12l1.3.39q36.69-94.26,73.39-188.5c1.86,8.79-.63,17.14-2,25.47-8.23,51.9-16.86,103.74-25.26,155.62-1.54,9.5-4.27,18.86-3.92,28.62-1.48.78-1.67,1.79-.29,3.44.09-1.43.15-2.46.22-3.5,6.44-12.1,10.25-25.25,15.07-38q32.57-86.12,64.84-172.35A5.84,5.84,0,0,1,312.1,271L278.8,483.94l1.79.7L363.7,271.85l1.4.41L332,484.49l1.48.45q38-105,76-210l2,.38Q397.78,377.67,384,480l2,.55Q460.59,242.49,535.15,4.39l1.93.47-88.47,438,1.35.38Q517.61,223.78,585.25,4.36l1.88.45q-43.9,218.06-87.82,436.12l1.76.51L636.55,5.29l2,.5L549.53,445l1.66.48Q618.93,222.76,686.68,0l1.44.36-87.36,445.9,1.73.49Q670.92,224.22,739.36,1.69l1.46.34C738.87,12.2,737,22.4,735,32.56q-28.25,140.06-56.54,280.12-16,78.94-32,157.89A32.89,32.89,0,0,0,646.18,475.25Z"/><path class="cls-2" d="M613.91,795.38l-46.75.17a23.41,23.41,0,0,1-22.67-16.43c-1.82-5.8-4.5-14.25-7.54-24l-21.15.08,11.31-31.73c-10-32.14-19.95-64.46-19.95-64.46L465.65,795.9l-52.55.19L470.28,607.5l65.29-.23a29.12,29.12,0,0,1,27.85,20.37c.3,1,.56,2,.86,2.91l-24.49,97.22,25.53-63.9-12.46,66.42,19.87-45.55L565.4,735l16.36-32.64-3.64,40.24L591,723.22l-1.52,28.59,9.08-10.89c6.8,21.94,12.53,40.42,15.33,49.09Zm254.37,1.41-47.72-.3c-7.14,0-12.49-5.89-12.71-13-.89-27-3.43-109-3.43-109L763.7,796.13l-46.53-.3a23,23,0,0,1-21.62-16c-7.78-25.42-30.35-100.22-30.35-100.22l-5.72,115.89-45.74-.06-.07-5.6,4.55-183,81.6.51a16.39,16.39,0,0,1,15.77,12.17C721.84,645.13,741.07,723,741.07,723l35.38-115.21,67.52.43a16.61,16.61,0,0,1,16.23,15.38c1.81,34,6.61,137.73,8.67,173.17m-.13,0,58.57-188.15,65.38.27a28.87,28.87,0,0,1,27.59,20.59c.31,1,.61,1.95,1,2.92l-25.28,97,26-63.7L1009,732l20.15-45.4-7.65,50.23,16.56-32.5-3.9,40.2,13-19.3-1.85,28.57,9.3-10.81c9.16,30.61,16.4,54.58,16.4,54.58l-48.25-.2a23.77,23.77,0,0,1-22.67-16.61c-1.69-5.81-4.21-14.28-7.24-24.07l-21.14-.09L983.34,725c-9.79-32.21-19.5-64.61-19.5-64.61L921.33,797l-52.59-.22m-528-57.46c0,14.32-13.83,25.93-31,26s-31.11-11.48-31.15-25.8l-.35-129.69L219,610l.38,138.66c.07,28.95,40.53,52.28,90.43,52.15s90.24-23.68,90.16-52.64l-.37-138.66-59.23.16Zm-219.33.12c-.14,14.31-14.17,25.74-31.28,25.57-17.28-.18-31-11.89-30.84-26.2l.24-23.33-59.2-.6L0,747.17c-.29,29,39.82,52.8,89.77,53.3S180.26,778,180.55,749L182,610.34l-59.23-.6Z"/></g></g></svg>