<svg xmlns="http://www.w3.org/2000/svg" xmlns:xlink="http://www.w3.org/1999/xlink" viewBox="0 0 281.85 281.85"><defs><style>.cls-1{mask:url(#mask);filter:url(#luminosity-noclip-2);}.cls-2{mix-blend-mode:multiply;fill:url(#linear-gradient);}.cls-3{fill:url(#linear-gradient-2);}.cls-4{fill:url(#linear-gradient-3);}.cls-5{fill:url(#radial-gradient);}.cls-6{mask:url(#mask-2);}.cls-7{fill:url(#linear-gradient-4);}.cls-8{fill:#fff;}.cls-9{filter:url(#luminosity-noclip);}</style><filter id="luminosity-noclip" x="31.01" y="-8366.29" width="219.83" height="32766" filterUnits="userSpaceOnUse" color-interpolation-filters="sRGB"><feFlood flood-color="#fff" result="bg"/><feBlend in="SourceGraphic" in2="bg"/></filter><mask id="mask" x="31.01" y="-8366.29" width="219.83" height="32766" maskUnits="userSpaceOnUse"><g class="cls-9"/></mask><linearGradient id="linear-gradient" x1="140.92" y1="250.84" x2="140.92" y2="31.01" gradientUnits="userSpaceOnUse"><stop offset="0.11"/><stop offset="0.44" stop-color="#020202"/><stop offset="0.56" stop-color="#090909"/><stop offset="0.65" stop-color="#141414"/><stop offset="0.71" stop-color="#252525"/><stop offset="0.77" stop-color="#3b3b3b"/><stop offset="0.83" stop-color="#575757"/><stop offset="0.87" stop-color="#777"/><stop offset="0.92" stop-color="#9d9d9d"/><stop offset="0.96" stop-color="#c8c8c8"/><stop offset="0.99" stop-color="#f6f6f6"/><stop offset="1" stop-color="#fff"/></linearGradient><linearGradient id="linear-gradient-2" y1="140.92" x2="281.85" y2="140.92" gradientUnits="userSpaceOnUse"><stop offset="0" stop-color="#5c5b5f"/><stop offset="0.19" stop-color="#c3c5ca"/><stop offset="0.46" stop-color="#fff"/><stop offset="0.69" stop-color="#89878c"/><stop offset="1" stop-color="#434041"/></linearGradient><linearGradient id="linear-gradient-3" x1="140.92" y1="273.6" x2="140.92" y2="8.24" gradientUnits="userSpaceOnUse"><stop offset="0" stop-color="#5c5b5f"/><stop offset="0.19" stop-color="#c3c5ca"/><stop offset="0.36" stop-color="#f7f8f8"/><stop offset="0.69" stop-color="#89878c"/><stop offset="1" stop-color="#434041"/></linearGradient><radialGradient id="radial-gradient" cx="140.92" cy="140.92" r="134.99" gradientUnits="userSpaceOnUse"><stop offset="0" stop-color="#e01a1a"/><stop offset="0.51" stop-color="#de1416"/><stop offset="1" stop-color="#d9090e"/></radialGradient><filter id="luminosity-noclip-2" x="31.01" y="31.01" width="219.83" height="219.83" filterUnits="userSpaceOnUse" color-interpolation-filters="sRGB"><feFlood flood-color="#fff" result="bg"/><feBlend in="SourceGraphic" in2="bg"/></filter><mask id="mask-2" x="31.01" y="31.01" width="219.83" height="219.83" maskUnits="userSpaceOnUse"><g class="cls-1"><path class="cls-2" d="M250.84,140.92A109.92,109.92,0,1,1,140.92,31,109.92,109.92,0,0,1,250.84,140.92Z"/></g></mask><linearGradient id="linear-gradient-4" x1="140.92" y1="250.84" x2="140.92" y2="31.01" gradientUnits="userSpaceOnUse"><stop offset="0.11" stop-color="#fff"/><stop offset="0.87" stop-color="#fff"/><stop offset="1" stop-color="#fff"/></linearGradient></defs><g id="Capa_2" data-name="Capa 2"><g id="Capa_1-2" data-name="Capa 1"><path class="cls-3" d="M140.92,0C63.22,0,0,63.22,0,140.92S63.22,281.85,140.92,281.85s140.93-63.22,140.93-140.93S218.63,0,140.92,0Zm0,225.17a84.25,84.25,0,1,1,84.25-84.25A84.35,84.35,0,0,1,140.92,225.17Z"/><path class="cls-4" d="M140.92,8.24C67.76,8.24,8.24,67.76,8.24,140.92S67.76,273.6,140.92,273.6,273.6,214.08,273.6,140.92,214.08,8.24,140.92,8.24Zm0,225.18a92.5,92.5,0,1,1,92.5-92.5A92.6,92.6,0,0,1,140.92,233.42Z"/><path class="cls-5" d="M259.86,140.92A118.94,118.94,0,1,1,140.92,22,118.94,118.94,0,0,1,259.86,140.92Z"/><g class="cls-6"><path class="cls-7" d="M250.84,140.92A109.92,109.92,0,1,1,140.92,31,109.92,109.92,0,0,1,250.84,140.92Z"/></g><path class="cls-8" d="M87.09,188.25c0,33.51,29.73,34.48,30.1,34.48l46.51-.14c10.72,0,31-6.51,31-31.15l.1-34.38.09.05V117.06a9.21,9.21,0,0,0-18.41,0l0,38.12-2.35-.17a15.12,15.12,0,0,0-9.83,4.31c-3.82,3.75-5.75,9.65-5.75,17.53v1.08h-4.22v-1.08c0-9.08,2.37-16,7-20.57a19.87,19.87,0,0,1,11-5.32l.05-70.8A9.28,9.28,0,0,0,154.13,82v55.37h-3.92V68.05a9.26,9.26,0,0,0-18.5,0v69.31h-4.06V76.14a9.26,9.26,0,0,0-18.51,0v61.22h-3.66V95.8a9.26,9.26,0,0,0-18.5,0Z"/></g></g></svg>