<svg xmlns="http://www.w3.org/2000/svg" viewBox="0 0 341.86 251.91"><defs><style>.cls-1,.cls-2,.cls-3{font-size:83.25px;font-family:Poppins-Bold, Poppins;font-weight:700;}.cls-1,.cls-4{fill:#22f5ec;}.cls-2,.cls-5{fill:#e60733;}.cls-18,.cls-3,.cls-6{fill:#1d262d;}.cls-4,.cls-5,.cls-6{font-size:28px;font-family:Poppins-Light, Poppins;font-weight:300;}.cls-7{opacity:0.05;}.cls-8{fill:#59ffd1;}.cls-9{opacity:0.16;}.cls-10{opacity:0.26;}.cls-11{opacity:0.37;}.cls-12{opacity:0.47;}.cls-13{opacity:0.58;}.cls-14{opacity:0.68;}.cls-15{opacity:0.79;}.cls-16{opacity:0.89;}.cls-17{fill:#cb193b;}.cls-19{fill:#fff;}</style></defs><g id="Capa_2" data-name="Capa 2"><g id="OBJECTS"><text class="cls-1" transform="translate(30 70.97)">ERROR</text><text class="cls-2" transform="translate(38 70.97)">ERROR</text><text class="cls-3" transform="translate(34 70.97)">ERROR</text><text class="cls-4" transform="translate(0 236.12)">PÁGINA NO ENCONTRADA</text><text class="cls-5" transform="translate(2 236.12)">PÁGINA NO ENCONTRADA</text><text class="cls-6" transform="translate(1 236.12)">PÁGINA NO ENCONTRADA</text><g class="cls-7"><path class="cls-8" d="M119.54,167V149.51H110v-11h-6v-7h6v-9.09h-5.38v-7H110v-5.37H89.65v-1.25H110v-1.37H89v8.33h-.5V119H84.15V115.8H79V112H77.49v-7H79V100.3H89V105h21V93.84H75.84l-9.11,13h9.73v1.25H65.85l-1,1.38h9.58V112H63.13l-9.55,13.62H71.4v5.63H49.63l-14.2,20.25v7.82H70.79v1.88H35.43v4.55h63V167h-63v4.25H46.15v4.25H35.43v2.62H77.12v3.63h23.53V189H77.12v3.77H110V178.09h9.59v-6.25H112.7V167ZM45.06,156.13H40.74V151.8h4.32ZM55.65,153h-7v-7h7Zm34.75-1.67H78.27v-1.83H69.41L78.27,136v-5.13H90.4Zm10.24-20.46H96.31v-4.33h4.33Z"/><path class="cls-8" d="M208.88,151.74a96,96,0,0,0,.57-10.58c0-10-1.36-18.55-4-25.7h-30.8v-4.87h28.71C196.7,97.3,184.69,90.25,168,90.25c-9.83,0-18,2.45-24.48,7.17h39.81v2.5H140.49a35.81,35.81,0,0,0-5,5.8h10.13V112H132c-3.58,7.78-5.43,17.55-5.43,29.19,0,2.11.07,4.15.19,6.14h10.92V162H129c.46,1.73,1,3.41,1.56,5h28.71v4.87H132.64a41.58,41.58,0,0,0,2.21,3.88h43.8v2.5h-42c7,9.16,17.6,14,31.37,14,23.14,0,37.27-13.58,40.66-38.58H187.48v-1.88Zm-23.15-49.82H190v4.3h-4.29Zm-1.33,53.55v10H168.65V161.2c-.22,0-.43,0-.66,0-7.92,0-9.42-7-9.42-20.07,0-11.85,1.28-18.71,7.58-19.78v-3.66h19V131h-8.43a62.77,62.77,0,0,1,.54,8.25h11.39V143H177.27c-.07,5.27-.44,9.46-1.49,12.5Z"/><rect class="cls-8" x="277.65" y="99.92" width="14.24" height="1.38"/><path class="cls-8" d="M291.89,149.51V131h-3.75v-7h3.75v-9.08h-3.16v-7h3.16v-5.37H277.65v18.92H264.9V110.72h-.5v-6.3h-2.76v-7h2.76V93.84h-6.62L254,99.3h6.67v1.25h-7.54l-1,1.37h6.51v2.5h-8.26l-4.94,7H262.9v6.75H240.69l-6.31,9h15V150h-31l-1.06,1.5v.27H255v1.88H217.37v4.55h65.26v1.25H217.37v5.3h25.78V174H217.37v4.12h41.69v6.63H273.9v2.75H259.06v5.27h32.83V178.09h9.59V149.51ZM273.65,153h-15v-3.46h-7.3l7.3-11.15v-6.89h15Zm11.14-29.63h-4.32V119h4.32Z"/><rect class="cls-8" x="277.65" y="93.84" width="14.24" height="3.58"/><rect class="cls-8" x="21.52" y="146.01" width="9.48" height="7"/><rect class="cls-8" x="111.86" y="111.96" width="7" height="7"/><rect class="cls-8" x="120.73" y="115.97" width="4.33" height="4.33"/><rect class="cls-8" x="215.16" y="128.97" width="2.74" height="7"/><rect class="cls-8" x="296.02" y="104.42" width="7" height="7"/><rect class="cls-8" x="304.88" y="108.43" width="4.33" height="4.33"/><rect class="cls-8" x="223.82" y="122.46" width="4.33" height="4.33"/><rect class="cls-8" x="203.23" y="101.92" width="4.29" height="4.29"/></g><g class="cls-9"><path class="cls-8" d="M119.77,167V149.51h-9.59v-11h-6v-7h6v-9.09h-5.39v-7h5.39v-5.37H89.87v-1.25h20.31v-1.37H89v8.33H88.7V119H84.38V115.8H79V112H77.71v-7H79V100.3H89V105h21.2V93.84H76.06l-9.11,13h9.73v1.25H66.07l-1,1.38h9.57V112H63.35L53.8,125.59H71.4v5.63H49.86L35.65,151.47v7.82H71v1.88H35.65v4.55h63V167h-63v4.25h10.5v4.25H35.65v2.62H77.34v3.63h23.31V189H77.34v3.77h32.84V178.09h9.59v-6.25h-6.85V167ZM45.28,156.13H41V151.8h4.32ZM55.87,153h-7v-7h7Zm34.53-1.67H78.27v-1.83H69.63l8.64-13.2v-5.47H90.4Zm10.46-20.46H96.53v-4.33h4.33Z"/><path class="cls-8" d="M209.1,151.74a96,96,0,0,0,.57-10.58c0-10-1.36-18.55-4-25.7H174.87v-4.87h28.72c-6.67-13.29-18.68-20.34-35.38-20.34-9.83,0-18,2.45-24.48,7.17h39.81v2.5H140.72a35.38,35.38,0,0,0-5,5.8h9.91V112H132.2c-3.59,7.78-5.44,17.55-5.44,29.19,0,2.11.07,4.15.19,6.14h10.7V162h-8.44c.46,1.73,1,3.41,1.56,5h28.72v4.87H132.86a41.58,41.58,0,0,0,2.21,3.88h43.8v2.5h-42c7,9.16,17.6,14,31.37,14,23.14,0,37.27-13.58,40.66-38.58H187.7v-1.88ZM186,101.92h4.3v4.3H186Zm-1.55,53.55v10H168.65v-4.26l-.44,0c-7.92,0-9.42-7-9.42-20.07,0-11.71,1.25-18.54,7.36-19.74v-3.7h19V131h-8.21a62.77,62.77,0,0,1,.54,8.25h11.17V143H177.49c-.07,5.27-.44,9.46-1.49,12.5Z"/><rect class="cls-8" x="277.65" y="93.84" width="14.47" height="3.58"/><rect class="cls-8" x="277.65" y="99.92" width="14.47" height="1.38"/><path class="cls-8" d="M292.11,149.51V131h-3.74v-7h3.74v-9.08H289v-7h3.16v-5.37H277.65v18.92H264.9V110.72h-.5v-6.3h-2.53v-7h2.53V93.84H258l-3.82,5.46h6.66v1.25H253.3l-1,1.37h6.5v2.5h-8.26l-4.94,7H262.9v6.75h-22l-6.31,9h14.8V150H218.65l-1.06,1.5v.27h37.58v1.88H217.59v4.55h65.26v1.25H217.59v5.3h25.56V174H217.59v4.12h41.69v6.63H273.9v2.75H259.28v5.27h32.83V178.09h9.59V149.51ZM273.65,153h-15v-3.46h-7.08l7.08-10.81v-7.23h15ZM285,123.34h-4.33V119H285Z"/><rect class="cls-8" x="21.75" y="146.01" width="9.48" height="7"/><rect class="cls-8" x="112.08" y="111.96" width="7" height="7"/><rect class="cls-8" x="120.95" y="115.97" width="4.33" height="4.33"/><rect class="cls-8" x="215.38" y="128.97" width="2.52" height="7"/><rect class="cls-8" x="296.24" y="104.42" width="7" height="7"/><rect class="cls-8" x="305.11" y="108.43" width="4.33" height="4.33"/><rect class="cls-8" x="224.04" y="122.46" width="4.33" height="4.33"/><rect class="cls-8" x="203.45" y="101.92" width="4.29" height="4.29"/></g><g class="cls-10"><path class="cls-8" d="M120,167V149.51H110.4v-11h-6v-7h6v-9.09H105v-7h5.38v-5.37H90.09v-1.25H110.4v-1.37H89v8.33h-.06V119H84.6V115.8H79V112h-1v-7h1V100.3H89V105H110.4V93.84H76.29l-9.12,13h9.74v1.25H66.29l-1,1.38h9.58V112H63.58L54,125.59H71.4v5.63H50.08l-14.2,20.25v7.82H71.24v1.88H35.88v4.55h63V167h-63v4.25H46.15v4.25H35.88v2.62H77.56v3.63h23.09V189H77.56v3.77H110.4V178.09H120v-6.25h-6.84V167ZM45.51,156.13H41.18V151.8h4.33ZM56.09,153h-7v-7h7Zm34.31-1.67H78.27v-1.83H69.85l8.42-12.86v-5.81H90.4Zm10.68-20.46H96.75v-4.33h4.33Z"/><path class="cls-8" d="M209.32,151.74a96,96,0,0,0,.57-10.58c0-10-1.36-18.55-4-25.7H175.09v-4.87h28.72c-6.67-13.29-18.68-20.34-35.37-20.34-9.84,0-18,2.45-24.48,7.17h39.8v2.5H140.94a34.85,34.85,0,0,0-5,5.8h9.68V112H132.42c-3.58,7.78-5.44,17.55-5.44,29.19,0,2.11.07,4.15.2,6.14h10.47V162h-8.22c.46,1.73,1,3.41,1.56,5h28.72v4.87H133.08a41.58,41.58,0,0,0,2.21,3.88h43.8v2.5h-42c7,9.16,17.6,14,31.37,14,23.13,0,37.26-13.58,40.65-38.58H187.92v-1.88Zm-23.14-49.82h4.29v4.3h-4.29Zm-1.78,53.55v10H168.65v-4.25h-.21c-7.92,0-9.43-7-9.43-20.07,0-11.57,1.22-18.38,7.14-19.69v-3.75h19V131h-8a62.77,62.77,0,0,1,.54,8.25h11V143H177.71c-.06,5.27-.44,9.46-1.49,12.5Z"/><rect class="cls-8" x="277.65" y="99.92" width="14.69" height="1.38"/><rect class="cls-8" x="277.65" y="93.84" width="14.69" height="3.58"/><path class="cls-8" d="M292.34,149.51V131h-3.75v-7h3.75v-9.08h-3.17v-7h3.17v-5.37H277.65v18.92H264.9V110.72h-.5v-6.3h-2.31v-7h2.31V93.84h-6.17L254.4,99.3h6.66v1.25h-7.54l-1,1.37h6.5v2.5H250.8l-4.93,7h17v6.75H241.13l-6.31,9H249.4V150H218.87l-1.05,1.5v.27h37.57v1.88H217.82v4.55h65.25v1.25H217.82v5.3h25.33V174H217.82v4.12H259.5v6.63h14.4v2.75H259.5v5.27h32.84V178.09h9.59V149.51ZM273.65,153h-15v-3.46h-6.86L258.65,139v-7.57h15Zm11.59-29.63h-4.33V119h4.33Z"/><rect class="cls-8" x="21.97" y="146.01" width="9.48" height="7"/><rect class="cls-8" x="112.31" y="111.96" width="7" height="7"/><rect class="cls-8" x="121.17" y="115.97" width="4.33" height="4.33"/><rect class="cls-8" x="215.6" y="128.97" width="2.3" height="7"/><rect class="cls-8" x="296.46" y="104.42" width="7" height="7"/><rect class="cls-8" x="305.33" y="108.43" width="4.33" height="4.33"/><rect class="cls-8" x="224.26" y="122.46" width="4.33" height="4.33"/><rect class="cls-8" x="203.68" y="101.92" width="4.29" height="4.29"/></g><g class="cls-11"><path class="cls-8" d="M120.21,167V149.51h-9.59v-11h-6v-7h6v-9.09h-5.38v-7h5.38v-5.37H90.32v-1.25h20.3v-1.37H89v7.17h.17V119H84.82V115.8H79V112h-.83v-7H79V100.3H89V105h21.64V93.84H76.51l-9.12,13h9.74v1.25H66.52l-1,1.38h9.58V112H63.8l-9.56,13.62H71.4v5.63H50.3L36.1,151.47v7.82H71.46v1.88H36.1v4.55h63V167h-63v4.25h10v4.25h-10v2.62H77.79v3.63h22.86V189H77.79v3.77h32.83V178.09h9.59v-6.25h-6.84V167ZM45.73,156.13H41.4V151.8h4.33ZM56.32,153h-7v-7h7Zm34.08-1.67H78.27v-1.83h-8.2L78.27,137v-6.15H90.4Zm10.9-20.46H97v-4.33h4.32Z"/><path class="cls-8" d="M209.54,151.74a93.59,93.59,0,0,0,.57-10.58c0-10-1.36-18.55-4-25.7h-30.8v-4.87H204c-6.67-13.29-18.68-20.34-35.37-20.34-9.83,0-18,2.45-24.48,7.17H184v2.5H141.16a35.33,35.33,0,0,0-5,5.8h9.46V112h-13c-3.58,7.78-5.44,17.55-5.44,29.19,0,2.11.08,4.15.2,6.14h10.25V162h-8c.46,1.73,1,3.41,1.56,5h28.72v4.87H133.31a39.45,39.45,0,0,0,2.21,3.88h43.8v2.5h-42c7,9.16,17.6,14,31.37,14,23.13,0,37.27-13.58,40.65-38.58H188.14v-1.88ZM186.4,101.92h4.29v4.3H186.4Zm-2,53.55v10H168.65v-4.24c-7.91,0-9.41-7.06-9.41-20.07,0-11.43,1.18-18.22,6.91-19.65v-3.79h19V131h-7.76a66.42,66.42,0,0,1,.54,8.25h10.72V143H177.93c-.06,5.27-.44,9.46-1.49,12.5Z"/><rect class="cls-8" x="277.65" y="99.92" width="14.91" height="1.38"/><rect class="cls-8" x="277.65" y="93.84" width="14.91" height="3.58"/><path class="cls-8" d="M292.56,149.51V131h-3.75v-7h3.75v-9.08H289.4v-7h3.16v-5.37H277.65v18.92H264.9V110.72h-.5v-6.3h-2.09v-7h2.09V93.84h-5.95l-3.83,5.46h6.67v1.25h-7.55l-1,1.37h6.51v2.5H251l-4.94,7H262.9v6.75H241.36l-6.32,9H249.4V150H219.09l-1.05,1.5v.27h37.58v1.88H218v4.55H283.3v1.25H218v5.3h25.11V174H218v4.12h41.69v6.63H273.9v2.75H259.73v5.27h32.83V178.09h9.59V149.51ZM273.65,153h-15v-3.46H252l6.64-10.13v-7.91h15Zm11.81-29.63h-4.33V119h4.33Z"/><rect class="cls-8" x="22.19" y="146.01" width="9.48" height="7"/><rect class="cls-8" x="112.53" y="111.96" width="7" height="7"/><rect class="cls-8" x="121.39" y="115.97" width="4.33" height="4.33"/><rect class="cls-8" x="215.82" y="128.97" width="2.08" height="7"/><rect class="cls-8" x="296.69" y="104.42" width="7" height="7"/><rect class="cls-8" x="305.55" y="108.43" width="4.33" height="4.33"/><rect class="cls-8" x="224.49" y="122.46" width="4.33" height="4.33"/><rect class="cls-8" x="203.9" y="101.92" width="4.29" height="4.29"/></g><g class="cls-12"><path class="cls-8" d="M120.43,167V149.51h-9.59v-11h-6v-7h6v-9.09h-5.38v-7h5.38v-5.37H90.54v-1.25h20.3v-1.37H89v7.17h.39V119H85V115.8H79V112h-.6v-7H79V100.3H89V105h21.86V93.84H76.73l-9.12,13h9.74v1.25H66.74l-1,1.38h9.58V112H64l-9.55,13.62H71.4v5.63H50.52l-14.2,20.25v7.82H71.68v1.88H36.32v4.55h63V167h-63v4.25h9.83v4.25H36.32v2.62H78v3.63h22.64V189H78v3.77h32.83V178.09h9.59v-6.25h-6.84V167ZM46,156.13H41.63V151.8H46ZM56.54,153h-7v-7h7Zm33.86-1.67H78.27v-1.83h-8l8-12.19v-6.48H90.4Zm11.12-20.46H97.2v-4.33h4.32Z"/><path class="cls-8" d="M209.77,151.74a96,96,0,0,0,.57-10.58c0-10-1.37-18.55-4-25.7h-30.8v-4.87h28.71c-6.66-13.29-18.67-20.34-35.37-20.34-9.83,0-18,2.45-24.48,7.17h39.81v2.5H141.38a35.81,35.81,0,0,0-5,5.8h9.24V112H132.86c-3.58,7.78-5.44,17.55-5.44,29.19,0,2.11.08,4.15.2,6.14h10V162h-7.77c.46,1.73,1,3.41,1.56,5h28.71v4.87H133.53a41.58,41.58,0,0,0,2.21,3.88h43.8v2.5h-42c7,9.16,17.6,14,31.37,14,23.14,0,37.27-13.58,40.65-38.58H188.37v-1.88Zm-23.15-49.82h4.29v4.3h-4.29Zm-2.22,53.55v10H168.65v-4.25c-7.71-.14-9.19-7.17-9.19-20.06,0-11.28,1.14-18,6.69-19.6v-3.84h19V131h-7.54a62.77,62.77,0,0,1,.54,8.25h10.5V143h-10.5c-.06,5.27-.44,9.46-1.48,12.5Z"/><path class="cls-8" d="M292.78,149.51V131H289v-7h3.75v-9.08h-3.16v-7h3.16v-5.37H277.65v18.92H264.9V110.72h-.5v-6.3h-1.87v-7h1.87V93.84h-5.73l-3.83,5.46h6.67v1.25H254l-1,1.37h6.51v2.5h-8.26l-4.94,7H262.9v6.75H241.58l-6.31,9H249.4V150H219.31l-1.05,1.5v.27h37.58v1.88H218.26v4.55h65.26v1.25H218.26v5.3h24.89V174H218.26v4.12H260v6.63H273.9v2.75H260v5.27h32.83V178.09h9.59V149.51ZM273.65,153h-15v-3.46h-6.41l6.41-9.8v-8.24h15Zm12-29.63h-4.32V119h4.32Z"/><rect class="cls-8" x="277.65" y="99.92" width="15.13" height="1.38"/><rect class="cls-8" x="277.65" y="93.84" width="15.13" height="3.58"/><rect class="cls-8" x="22.41" y="146.01" width="9.48" height="7"/><rect class="cls-8" x="112.75" y="111.96" width="7" height="7"/><rect class="cls-8" x="121.61" y="115.97" width="4.33" height="4.33"/><rect class="cls-8" x="216.05" y="128.97" width="1.85" height="7"/><rect class="cls-8" x="296.91" y="104.42" width="7" height="7"/><rect class="cls-8" x="305.77" y="108.43" width="4.33" height="4.33"/><rect class="cls-8" x="224.71" y="122.46" width="4.33" height="4.33"/><rect class="cls-8" x="204.12" y="101.92" width="4.29" height="4.29"/></g><g class="cls-13"><path class="cls-8" d="M120.65,167V149.51h-9.59v-11h-6v-7h6v-9.09h-5.38v-7h5.38v-5.37H90.76v-1.25h20.3v-1.37H89v7.17h.61V119H85.26V115.8H79V112H78.6v-7H79V100.3H89V105h22.08V93.84H77l-9.11,13h9.73v1.25H67l-1,1.38h9.57V112H64.24l-9.55,13.62H71.4v5.63H50.74l-14.2,20.25v7.82H71.9v1.88H36.54v4.55h63V167h-63v4.25h9.61v4.25H36.54v2.62H78.23v3.63h22.42V189H78.23v3.77h32.83V178.09h9.59v-6.25h-6.84V167ZM46.17,156.13H41.85V151.8h4.32ZM56.76,153h-7v-7h7Zm33.64-1.67H78.27v-1.83H70.52l7.75-11.85v-6.82H90.4Zm11.35-20.46H97.42v-4.33h4.33Z"/><path class="cls-8" d="M210,151.74a96,96,0,0,0,.57-10.58c0-10-1.36-18.55-4-25.7h-30.8v-4.87h28.71C197.81,97.3,185.8,90.25,169.1,90.25c-9.83,0-18,2.45-24.48,7.17h39.81v2.5H141.61a35.38,35.38,0,0,0-5,5.8h9V112H133.08c-3.58,7.78-5.43,17.55-5.43,29.19,0,2.11.07,4.15.19,6.14h9.81V162H130.1c.46,1.73,1,3.41,1.56,5h28.72v4.87H133.75a41.58,41.58,0,0,0,2.21,3.88h43.8v2.5h-42c7,9.16,17.6,14,31.37,14,23.14,0,37.27-13.58,40.66-38.58H188.59v-1.88Zm-23.15-49.82h4.3v4.3h-4.3Zm-2.44,53.55v10H168.65v-4.26c-7.51-.28-9-7.29-9-20.05,0-11.12,1.12-17.85,6.47-19.52v-3.92h19V131h-7.32a62.77,62.77,0,0,1,.54,8.25h10.28V143H178.38c-.07,5.27-.44,9.46-1.49,12.5Z"/><rect class="cls-8" x="277.65" y="99.92" width="15.35" height="1.38"/><path class="cls-8" d="M293,149.51V131h-3.74v-7H293v-9.08h-3.16v-7H293v-5.37H277.65v18.92H264.9V110.72h-.5v-6.3h-1.64v-7h1.64V93.84h-5.51l-3.82,5.46h6.66v1.25h-7.54l-1,1.37h6.51v2.5h-8.26l-4.94,7H262.9v6.75H241.8l-6.31,9H249.4V150H219.54l-1.06,1.5v.27h37.58v1.88H218.48v4.55h65.26v1.25H218.48v5.3h24.67V174H218.48v4.12h41.69v6.63H273.9v2.75H260.17v5.27H293V178.09h9.59V149.51ZM273.65,153h-15v-3.46h-6.19l6.19-9.46v-8.58h15Zm12.25-29.63h-4.32V119h4.32Z"/><rect class="cls-8" x="277.65" y="93.84" width="15.35" height="3.58"/><rect class="cls-8" x="22.64" y="146.01" width="9.48" height="7"/><rect class="cls-8" x="112.97" y="111.96" width="7" height="7"/><rect class="cls-8" x="121.84" y="115.97" width="4.33" height="4.33"/><rect class="cls-8" x="216.27" y="128.97" width="1.63" height="7"/><rect class="cls-8" x="297.13" y="104.42" width="7" height="7"/><rect class="cls-8" x="305.99" y="108.43" width="4.33" height="4.33"/><rect class="cls-8" x="224.93" y="122.46" width="4.33" height="4.33"/><rect class="cls-8" x="204.34" y="101.92" width="4.29" height="4.29"/></g><g class="cls-14"><path class="cls-8" d="M120.88,167V149.51h-9.59v-11h-6v-7h6v-9.09H105.9v-7h5.39v-5.37H91v-1.25h20.31v-1.37H89v7.17h.83V119H85.49V115.8H79V112h-.16v-7H79V100.3H89V105h22.31V93.84H77.17l-9.11,13H77.8v1.25H67.18l-1,1.38H75.8V112H64.46l-9.55,13.62H71.4v5.63H51l-14.2,20.25v7.82H72.13v1.88H36.77v4.55h63V167h-63v4.25h9.38v4.25H36.77v2.62H78.45v3.63h22.2V189H78.45v3.77h32.84V178.09h9.59v-6.25H114V167ZM46.4,156.13H42.07V151.8H46.4ZM57,153H50v-7h7Zm33.42-1.67H78.27v-1.83H70.74L78.27,138v-7.16H90.4ZM102,130.88H97.64v-4.33H102Z"/><path class="cls-8" d="M210.21,151.74a96,96,0,0,0,.57-10.58c0-10-1.36-18.55-4-25.7H176v-4.87H204.7C198,97.3,186,90.25,169.33,90.25c-9.84,0-18,2.45-24.48,7.17h39.8v2.5H141.83a34.85,34.85,0,0,0-5,5.8h8.79V112H133.31c-3.58,7.78-5.44,17.55-5.44,29.19,0,2.11.07,4.15.19,6.14h9.59V162h-7.33c.46,1.73,1,3.41,1.56,5H160.6v4.87H134a41.58,41.58,0,0,0,2.21,3.88H180v2.5H138c7,9.16,17.6,14,31.38,14,23.13,0,37.26-13.58,40.65-38.58H188.81v-1.88Zm-23.15-49.82h4.3v4.3h-4.3ZM188.65,143H178.6c-.07,5.27-.44,9.46-1.49,12.5h7.29v10H168.65V161.2c-7.32-.41-8.75-7.41-8.75-20,0-11,1.1-17.65,6.25-19.44v-4h19V131h-7.1a62.77,62.77,0,0,1,.54,8.25h10.06Z"/><rect class="cls-8" x="277.65" y="99.92" width="15.58" height="1.38"/><path class="cls-8" d="M293.23,149.51V131h-3.75v-7h3.75v-9.08h-3.17v-7h3.17v-5.37H277.65v18.92H264.9V110.72h-.5v-6.3H263v-7h1.42V93.84h-5.29l-3.82,5.46H262v1.25h-7.54l-1,1.37H260v2.5h-8.26l-4.94,7H262.9v6.75H242l-6.31,9H249.4V150H219.76l-1.06,1.5v.27h37.58v1.88H218.7v4.55H284v1.25H218.7v5.3h24.45V174H218.7v4.12h41.69v6.63H273.9v2.75H260.39v5.27h32.84V178.09h9.59V149.51ZM273.65,153h-15v-3.46h-6l6-9.12v-8.92h15Zm12.48-29.63H281.8V119h4.33Z"/><rect class="cls-8" x="277.65" y="93.84" width="15.58" height="3.58"/><rect class="cls-8" x="22.86" y="146.01" width="9.48" height="7"/><rect class="cls-8" x="113.2" y="111.96" width="7" height="7"/><rect class="cls-8" x="122.06" y="115.97" width="4.33" height="4.33"/><rect class="cls-8" x="216.49" y="128.97" width="1.41" height="7"/><rect class="cls-8" x="297.35" y="104.42" width="7" height="7"/><rect class="cls-8" x="306.22" y="108.43" width="4.33" height="4.33"/><rect class="cls-8" x="225.15" y="122.46" width="4.33" height="4.33"/><rect class="cls-8" x="204.56" y="101.92" width="4.29" height="4.29"/></g><g class="cls-15"><path class="cls-8" d="M121.1,167V149.51h-9.59v-11h-6v-7h6v-9.09h-5.38v-7h5.38v-5.37H91.2v-1.25h20.31v-1.37H89v7.17h1V119H85.71V115.8H79V100.3H89V105h22.53V93.84H77.4l-9.12,13H78v1.25H67.4l-1,1.38H76V112H64.69l-9.56,13.62H71.4v5.63H51.19L37,151.47v7.82H72.35v1.88H37v4.55h63V167H37v4.25h9.16v4.25H37v2.62H78.67v3.63h22V189h-22v3.77h32.84V178.09h9.59v-6.25h-6.84V167ZM46.62,156.13H42.29V151.8h4.33ZM57.2,153h-7v-7h7Zm33.2-1.67H78.27v-1.83H71l7.31-11.17v-7.5H90.4Zm11.79-20.46H97.86v-4.33h4.33Z"/><path class="cls-8" d="M210.43,151.74a96,96,0,0,0,.57-10.58c0-10-1.36-18.55-4-25.7H176.2v-4.87h28.72c-6.67-13.29-18.68-20.34-35.37-20.34-9.83,0-18,2.45-24.48,7.17h39.8v2.5H142.05a34.85,34.85,0,0,0-5,5.8h8.57V112H133.53c-3.58,7.78-5.44,17.55-5.44,29.19,0,2.11.08,4.15.2,6.14h9.36V162h-7.11c.46,1.73,1,3.41,1.56,5h28.72v4.87H134.19a44,44,0,0,0,2.21,3.88h43.8v2.5h-42c7,9.16,17.6,14,31.37,14,23.13,0,37.27-13.58,40.65-38.58H189v-1.88Zm-23.14-49.82h4.29v4.3h-4.29ZM188.65,143h-9.83c-.06,5.27-.44,9.46-1.49,12.5h7.07v10H168.65v-4.29c-7.12-.54-8.52-7.52-8.52-20,0-10.81,1.06-17.46,6-19.36v-4.08h19V131h-6.88a64.38,64.38,0,0,1,.55,8.25h9.83Z"/><rect class="cls-8" x="277.65" y="99.92" width="15.8" height="1.38"/><path class="cls-8" d="M293.45,149.51V131H289.7v-7h3.75v-9.08h-3.17v-7h3.17v-5.37h-15.8v18.92H264.9V110.72h-.5v-6.3h-1.2v-7h1.2V93.84h-5.06l-3.83,5.46h6.66v1.25h-7.54l-1,1.37h6.5v2.5h-8.25l-4.94,7H262.9v6.75H242.24l-6.31,9H249.4V150H220l-1,1.5v.27H256.5v1.88H218.93v4.55h65.26v1.25H218.93v5.3h24.22V174H218.93v4.12h41.68v6.63H273.9v2.75H260.61v5.27h32.84V178.09H303V149.51ZM273.65,153h-15v-3.46H252.9l5.75-8.78v-9.26h15Zm12.7-29.63H282V119h4.33Z"/><rect class="cls-8" x="277.65" y="93.84" width="15.8" height="3.58"/><rect class="cls-8" x="23.08" y="146.01" width="9.48" height="7"/><rect class="cls-8" x="113.42" y="111.96" width="7" height="7"/><rect class="cls-8" x="122.28" y="115.97" width="4.33" height="4.33"/><rect class="cls-8" x="216.71" y="128.97" width="1.19" height="7"/><rect class="cls-8" x="297.58" y="104.42" width="7" height="7"/><rect class="cls-8" x="306.44" y="108.43" width="4.33" height="4.33"/><rect class="cls-8" x="225.38" y="122.46" width="4.33" height="4.33"/><rect class="cls-8" x="204.79" y="101.92" width="4.29" height="4.29"/></g><g class="cls-16"><path class="cls-8" d="M121.32,167V149.51h-9.59v-11h-6v-7h6v-9.09h-5.38v-7h5.38v-5.37H91.43v-1.25h20.3v-1.37H89v7.17h1.28V119H85.93V115.8H79V100.3H89V105h22.75V93.84H77.62l-9.12,13h9.74v1.25H67.63l-1,1.38h9.58V112H64.91l-9.55,13.62h16v5.63h-20l-14.2,20.25v7.82H72.57v1.88H37.21v4.55h63V167h-63v4.25h8.94v4.25H37.21v2.62H78.9v3.63h21.75V189H78.9v3.77h32.83V178.09h9.59v-6.25h-6.84V167ZM46.84,156.13H42.51V151.8h4.33ZM57.43,153h-7v-7h7Zm33-1.67H78.27v-1.83H71.19l7.08-10.83v-7.84H90.4Zm12-20.46H98.09v-4.33h4.32Z"/><path class="cls-8" d="M210.65,151.74a93.52,93.52,0,0,0,.58-10.58c0-10-1.37-18.55-4-25.7h-30.8v-4.87h28.71c-6.66-13.29-18.68-20.34-35.37-20.34-9.83,0-18,2.45-24.48,7.17h39.8v2.5H142.27a35.33,35.33,0,0,0-5,5.8h8.35V112h-11.9c-3.58,7.78-5.44,17.55-5.44,29.19,0,2.11.08,4.15.2,6.14h9.14V162h-6.88c.46,1.73,1,3.41,1.55,5H161v4.87H134.42a41.58,41.58,0,0,0,2.21,3.88h43.8v2.5h-42c7,9.16,17.6,14,31.37,14,23.14,0,37.27-13.58,40.65-38.58H189.25v-1.88Zm-23.14-49.82h4.29v4.3h-4.29ZM188.65,143H179c-.06,5.27-.44,9.46-1.48,12.5h6.84v10H168.65v-4.3c-6.93-.66-8.3-7.64-8.3-20,0-10.65,1-17.27,5.8-19.28v-4.16h19V131H178.5a66.42,66.42,0,0,1,.54,8.25h9.61Z"/><rect class="cls-8" x="277.65" y="99.92" width="16.02" height="1.38"/><rect class="cls-8" x="277.65" y="93.84" width="16.02" height="3.58"/><path class="cls-8" d="M293.67,149.51V131h-3.75v-7h3.75v-9.08h-3.16v-7h3.16v-5.37h-16v18.92H264.9V110.72h-.5v-6.3h-1v-7h1V93.84h-4.84l-3.83,5.46h6.67v1.25h-7.54l-1,1.37h6.51v2.5h-8.26l-4.94,7h15.7v6.75H242.47l-6.31,9H249.4V150H220.2l-1,1.5v.27h37.58v1.88H219.15v4.55h65.26v1.25H219.15v5.3h24V174h-24v4.12h41.69v6.63H273.9v2.75H260.84v5.27h32.83V178.09h9.59V149.51Zm-20,3.46h-15v-3.46h-5.53l5.53-8.44v-9.6h15Zm12.92-29.63h-4.33V119h4.33Z"/><rect class="cls-8" x="23.3" y="146.01" width="9.48" height="7"/><rect class="cls-8" x="113.64" y="111.96" width="7" height="7"/><rect class="cls-8" x="122.5" y="115.97" width="4.33" height="4.33"/><rect class="cls-8" x="216.94" y="128.97" width="0.96" height="7"/><rect class="cls-8" x="297.8" y="104.42" width="7" height="7"/><rect class="cls-8" x="306.66" y="108.43" width="4.33" height="4.33"/><rect class="cls-8" x="225.6" y="122.46" width="4.33" height="4.33"/><rect class="cls-8" x="205.01" y="101.92" width="4.29" height="4.29"/></g><path class="cls-8" d="M121.54,167V149.51H112v-11h-6v-7h6v-9.09h-5.38v-7H112v-5.37H91.65v-1.25H112v-1.37H89v7.17h1.5V119H86.15V115.8H79V100.3H89V105h23V93.84H77.84l-9.11,13h9.73v1.25H67.85l-1,1.38h9.58V112H65.13l-9.55,13.62H71.4v5.63H51.63l-14.2,20.25v7.82H72.79v1.88H37.43v4.55h63V167h-63v4.25h8.72v4.25H37.43v2.62H79.12v3.63h21.53V189H79.12v3.77H112V178.09h9.59v-6.25H114.7V167ZM47.06,156.13H42.74V151.8h4.32ZM57.65,153h-7v-7h7Zm32.75-1.67H78.27v-1.83H71.41L78.27,139v-8.18H90.4Zm12.24-20.46H98.31v-4.33h4.33Z"/><path class="cls-8" d="M210.88,151.74a96,96,0,0,0,.57-10.58c0-10-1.36-18.55-4-25.7h-30.8v-4.87h28.71C198.7,97.3,186.69,90.25,170,90.25c-9.83,0-18,2.45-24.48,7.17h39.81v2.5H142.49a35.81,35.81,0,0,0-5,5.8h8.13V112H134c-3.58,7.78-5.43,17.55-5.43,29.19,0,2.11.07,4.15.19,6.14h8.92V162H131c.46,1.73,1,3.41,1.56,5h28.71v4.87H134.64a41.58,41.58,0,0,0,2.21,3.88h43.8v2.5h-42c7,9.16,17.6,14,31.37,14,23.14,0,37.27-13.58,40.66-38.58H189.48v-1.88Zm-23.15-49.82H192v4.3h-4.29Zm.92,41.05h-9.38c-.07,5.27-.44,9.46-1.49,12.5h6.62v10H168.65v-4.31c-6.75-.79-8.08-7.76-8.08-20,0-10.49,1-17.07,5.58-19.19v-4.25h19V131h-6.43a62.77,62.77,0,0,1,.54,8.25h9.39Z"/><rect class="cls-8" x="277.65" y="99.92" width="16.24" height="1.38"/><path class="cls-8" d="M293.89,149.51V131h-3.75v-7h3.75v-9.08h-3.16v-7h3.16v-5.37H277.65v18.92H264.9V110.72h-.5v-6.3h-.76v-7h.76V93.84h-4.62L256,99.3h6.67v1.25h-7.54l-1,1.37h6.51v2.5h-8.26l-4.94,7H262.9v6.75H242.69l-6.31,9h13V150h-29l-1.06,1.5v.27H257v1.88H219.37v4.55h65.26v1.25H219.37v5.3h23.78V174H219.37v4.12h41.69v6.63H273.9v2.75H261.06v5.27h32.83V178.09h9.59V149.51ZM273.65,153h-15v-3.46h-5.3l5.3-8.1v-9.94h15Zm13.14-29.63h-4.32V119h4.32Z"/><rect class="cls-8" x="277.65" y="93.84" width="16.24" height="3.58"/><rect class="cls-8" x="23.52" y="146.01" width="9.48" height="7"/><rect class="cls-8" x="113.86" y="111.96" width="7" height="7"/><rect class="cls-8" x="122.73" y="115.97" width="4.33" height="4.33"/><rect class="cls-8" x="217.16" y="128.97" width="0.74" height="7"/><rect class="cls-8" x="298.02" y="104.42" width="7" height="7"/><rect class="cls-8" x="306.88" y="108.43" width="4.33" height="4.33"/><rect class="cls-8" x="225.82" y="122.46" width="4.33" height="4.33"/><rect class="cls-8" x="205.23" y="101.92" width="4.29" height="4.29"/><g class="cls-7"><path class="cls-17" d="M118,138.55h-6v-7h6v-9.09h-5.38v-7H118v-5.37H97.65v-1.25H118v-1.37H94.32V105H118V95H83.05l-8.32,11.87h9.73v1.25H73.85l-1,1.38h9.58V112H71.13l-27.7,39.5v7.82H78.79v1.88H43.43v4.55h63V167h-63v9.25H83.65v1.87h1.47V192H118V178.09h9.59v-6.25H120.7V167h6.84V149.51H118ZM53.06,156.13H48.74V151.8h4.32ZM63.65,153h-7v-7h7Zm21.84-48h7v7h-7Zm2,44.54H77.41l10.11-15.44Zm9-30.55H95.4v2h-12v-8h12v1.67h1.08Zm12.16,11.92h-2.49V133H96.9v-7.25h9.25v.83h2.49Z"/><path class="cls-17" d="M216.88,151.74a96,96,0,0,0,.57-10.58c0-10-1.36-18.55-4-25.7h-30.8v-4.87h28.71C204.7,97.3,192.69,90.25,176,90.25c-9.83,0-18,2.45-24.48,7.17h39.81v2.5H148.49c-9.13,8.51-14,22.45-14,41.24,0,10,1.36,18.63,4,25.81h28.71v4.87h-1.61v1.38H141.38c.47.86,1,1.7,1.47,2.5h43.8v2.5h-42c7,9.16,17.6,14,31.37,14,23.14,0,37.27-13.58,40.66-38.58H195.48v-1.88Zm-23.15-49.82H198v4.3h-4.29ZM176,161.23c-7.92,0-9.42-7-9.42-20.07s1.5-19.94,9.42-19.94,9.29,7,9.29,19.94S183.8,161.23,176,161.23Z"/><path class="cls-17" d="M268.12,155.59a94.82,94.82,0,0,0-12.47-2H225.37v2Z"/><path class="cls-17" d="M299.89,149.51V131h-3.75v-7h3.75v-9.08h-3.16v-7h3.16v-5.37H281.81V101.3h18.08V99.92H278.47v-2.5h21.42V94.3H265.46l-3.51,5h6.67v1.25h-7.54l-1,1.37h6.51v2.5h-8.26l-33,47.05v.27H263v1.34c3.08.54,6.14,1.21,9.17,1.87.93.2,1.85.42,2.78.64H282l-6-6c-.68-.68.38-1.74,1.07-1.06l7,7H289v2.58h1.61v1.25H289v1.11l.79.78a.71.71,0,0,1,.2.61l.71.32c.88.37.5,1.82-.4,1.45-.44-.18-.87-.39-1.3-.61v1.64H225.37v10.5h41v2.87h.66v11.63h32.83V178.09h9.59V149.51Zm-62.67-.92h-4.33v-4.33h4.33Zm10.59-3.12h-7v-7h7Zm21.65,4H259.35l10.11-15.44Zm.18-45.09v-7h7v7Zm11,7h-4.33v-4.33h4.33Zm12.15,11.92h-3.14v3.13h-8v-11h8V119h3.14Z"/><rect class="cls-17" x="29.52" y="146.01" width="9.48" height="7"/><rect class="cls-17" x="119.86" y="111.96" width="7" height="7"/><rect class="cls-17" x="128.73" y="115.97" width="4.33" height="4.33"/><rect class="cls-17" x="223.16" y="128.97" width="9.48" height="7"/><rect class="cls-17" x="304.02" y="104.42" width="7" height="7"/><rect class="cls-17" x="312.88" y="108.43" width="4.33" height="4.33"/><rect class="cls-17" x="231.82" y="122.46" width="4.33" height="4.33"/><rect class="cls-17" x="211.23" y="101.92" width="4.29" height="4.29"/></g><g class="cls-9"><path class="cls-17" d="M117.51,138.55h-6v-7h6v-9.09h-5.38v-7h5.38v-5.37H97.2v-1.25h20.31v-1.37H93.87V105h23.64V95H82.61l-8.33,11.87H84v1.25H73.4l-1,1.38H82V112H70.69L43,151.47v7.82H78.35v1.88H43v4.55h63V167H43v9.25H83.65v1.87h1V192h32.84V178.09h9.59v-6.25h-6.84V167h6.84V149.51h-9.59ZM52.62,156.13H48.29V151.8h4.33ZM63.2,153h-7v-7h7ZM85,105h7v7H85Zm2,44.54H77l10.11-15.44ZM96,119H95.4v2h-12v-8h12v1.67H96Zm12.16,11.92h-2V133H96.9v-7.25h9.25v.83h2Z"/><path class="cls-17" d="M216.43,151.74a96,96,0,0,0,.57-10.58c0-10-1.36-18.55-4-25.7H182.2v-4.87h28.72c-6.67-13.29-18.68-20.34-35.37-20.34-9.83,0-18,2.45-24.48,7.17h39.8v2.5H148.05c-9.13,8.51-14,22.45-14,41.24,0,10,1.37,18.63,4,25.81h28.72v4.87h-1.17v1.38H140.93c.47.86,1,1.7,1.47,2.5h43.8v2.5h-42c7,9.16,17.6,14,31.37,14,23.13,0,37.27-13.58,40.65-38.58H195v-1.88Zm-23.14-49.82h4.29v4.3h-4.29Zm-17.74,59.31c-7.92,0-9.42-7-9.42-20.07s1.5-19.94,9.42-19.94,9.28,7,9.28,19.94S183.35,161.23,175.55,161.23Z"/><path class="cls-17" d="M268.12,155.59a94.82,94.82,0,0,0-12.47-2H224.93v2Z"/><path class="cls-17" d="M299.45,149.51V131H295.7v-7h3.75v-9.08h-3.17v-7h3.17v-5.37H281.36V101.3h18.09V99.92H278v-2.5h21.42V94.3H265l-3.5,5h6.66v1.25h-7.54l-1,1.37h6.5v2.5h-8.25l-33,47.05v.27H262.5V153c3.24.55,6.44,1.26,9.62,1.95.93.2,1.85.42,2.78.64H282l-6-6c-.68-.68.38-1.74,1.07-1.06l7,7H289v2.58h1.17v1.25H289v1.11l.79.78a.71.71,0,0,1,.2.61l.71.32c.88.37.5,1.82-.4,1.45-.44-.18-.87-.39-1.3-.61v1.64H224.93v10.5H266.4v2.87h.21v11.63h32.84V178.09H309V149.51Zm-62.67-.92h-4.33v-4.33h4.33Zm10.58-3.12h-7v-7h7Zm21.65,4H258.9L269,134.07Zm.19-45.09v-7h7v7Zm11,7h-4.32v-4.33h4.32Zm12.16,11.92h-2.7v3.13h-8v-11h8V119h2.7Z"/><rect class="cls-17" x="29.08" y="146.01" width="9.48" height="7"/><rect class="cls-17" x="119.42" y="111.96" width="7" height="7"/><rect class="cls-17" x="128.28" y="115.97" width="4.33" height="4.33"/><rect class="cls-17" x="222.71" y="128.97" width="9.48" height="7"/><rect class="cls-17" x="303.58" y="104.42" width="7" height="7"/><rect class="cls-17" x="312.44" y="108.43" width="4.33" height="4.33"/><rect class="cls-17" x="231.38" y="122.46" width="4.33" height="4.33"/><rect class="cls-17" x="210.79" y="101.92" width="4.29" height="4.29"/></g><g class="cls-10"><path class="cls-17" d="M117.06,138.55h-6v-7h6v-9.09h-5.38v-7h5.38v-5.37H96.76v-1.25h20.3v-1.37H93.43V105h23.63V95H82.16l-8.32,11.87h9.73v1.25H73l-1,1.38h9.57V112H70.24l-27.7,39.5v7.82H77.9v1.88H42.54v4.55h63V167h-63v9.25H83.65v1.87h.58V192h32.83V178.09h9.59v-6.25h-6.84V167h6.84V149.51h-9.59ZM52.17,156.13H47.85V151.8h4.32ZM62.76,153h-7v-7h7ZM84.6,105h7v7h-7Zm2,44.54H76.52l10.11-15.44Zm9-30.55H95.4v2h-12v-8h12v1.67h.19Zm12.16,11.92h-1.6V133H96.9v-7.25h9.25v.83h1.6Z"/><path class="cls-17" d="M216,151.74a96,96,0,0,0,.57-10.58c0-10-1.36-18.55-4-25.7h-30.8v-4.87h28.71C203.81,97.3,191.8,90.25,175.1,90.25c-9.83,0-18,2.45-24.48,7.17h39.81v2.5H147.61c-9.14,8.51-14,22.45-14,41.24,0,10,1.36,18.63,4,25.81h28.72v4.87h-.73v1.38H140.49c.47.86.95,1.7,1.47,2.5h43.8v2.5h-42c7,9.16,17.6,14,31.37,14,23.14,0,37.27-13.58,40.66-38.58H194.59v-1.88Zm-23.15-49.82h4.3v4.3h-4.3ZM175.1,161.23c-7.92,0-9.42-7-9.42-20.07s1.5-19.94,9.42-19.94,9.29,7,9.29,19.94S182.91,161.23,175.1,161.23Z"/><path class="cls-17" d="M268.12,155.59a94.82,94.82,0,0,0-12.47-2H224.48v2Z"/><path class="cls-17" d="M299,149.51V131h-3.74v-7H299v-9.08h-3.16v-7H299v-5.37H280.92V101.3H299V99.92H277.58v-2.5H299V94.3H264.57l-3.5,5h6.66v1.25h-7.54l-1,1.37h6.51v2.5h-8.26l-33,47.05v.27h37.58v1.19c3.38.56,6.74,1.3,10.06,2,.93.2,1.85.42,2.78.64H282l-6-6c-.68-.68.38-1.74,1.07-1.06l7,7H289v2.58h.72v1.25H289v1.11l.79.78a.71.71,0,0,1,.2.61l.71.32c.88.37.5,1.82-.4,1.45-.44-.18-.87-.39-1.3-.61v1.64H224.48v10.5H266.4v8h-.23v6.5H299V178.09h9.59V149.51Zm-62.67-.92H232v-4.33h4.33Zm10.59-3.12h-7v-7h7Zm21.65,4H258.46l10.11-15.44Zm.19-45.09v-7h7v7Zm11,7h-4.33v-4.33h4.33Zm12.15,11.92h-2.25v3.13h-8v-11h8V119h2.25Z"/><rect class="cls-17" x="28.64" y="146.01" width="9.48" height="7"/><rect class="cls-17" x="118.97" y="111.96" width="7" height="7"/><rect class="cls-17" x="127.84" y="115.97" width="4.33" height="4.33"/><rect class="cls-17" x="222.27" y="128.97" width="9.48" height="7"/><rect class="cls-17" x="303.13" y="104.42" width="7" height="7"/><rect class="cls-17" x="311.99" y="108.43" width="4.33" height="4.33"/><rect class="cls-17" x="230.93" y="122.46" width="4.33" height="4.33"/><rect class="cls-17" x="210.34" y="101.92" width="4.29" height="4.29"/></g><g class="cls-11"><path class="cls-17" d="M116.62,138.55h-6v-7h6v-9.09h-5.38v-7h5.38v-5.37H96.32v-1.25h20.3v-1.37H93V105h23.64V95H81.72l-8.33,11.87h9.74v1.25H72.52l-1,1.38h9.58V112H69.8l-27.7,39.5v7.82H77.46v1.88H42.1v4.55h63V167h-63v9.25H83.65v1.87h.14V192h32.83V178.09h9.59v-6.25h-6.84V167h6.84V149.51h-9.59ZM51.73,156.13H47.4V151.8h4.33ZM62.32,153h-7v-7h7Zm21.83-48h7v7h-7Zm2,44.54H76.07l10.11-15.44ZM95.4,121h-12v-8h12Zm11.9,9.91h-1.15V133H96.9v-7.25h9.25v.83h1.15Z"/><path class="cls-17" d="M215.54,151.74a93.59,93.59,0,0,0,.57-10.58c0-10-1.36-18.55-4-25.7h-30.8v-4.87H210c-6.67-13.29-18.68-20.34-35.37-20.34-9.83,0-18,2.45-24.48,7.17H190v2.5H147.16c-9.13,8.51-14,22.45-14,41.24,0,10,1.37,18.63,4,25.81h28.72v4.87h-.28v1.38H140c.47.86,1,1.7,1.48,2.5h43.8v2.5h-42c7,9.16,17.6,14,31.37,14,23.13,0,37.27-13.58,40.65-38.58H194.14v-1.88ZM192.4,101.92h4.29v4.3H192.4Zm-17.74,59.31c-7.92,0-9.42-7-9.42-20.07s1.5-19.94,9.42-19.94,9.29,7,9.29,19.94S182.47,161.23,174.66,161.23Z"/><path class="cls-17" d="M298.56,149.51V131h-3.75v-7h3.75v-9.08H295.4v-7h3.16v-5.37H280.47V101.3h18.09V99.92H277.14v-2.5h21.42V94.3H264.13l-3.51,5h6.67v1.25h-7.55l-1,1.37h6.51v2.5H257l-33,47.05v.27h37.58v1.12c3.53.57,7,1.34,10.5,2.09.93.2,1.85.42,2.78.64H282l-6-6c-.68-.68.38-1.74,1.07-1.06l7,7H289v2.58h.28v1.25H289v1.11l.79.78a.71.71,0,0,1,.2.61l.71.32c.88.37.5,1.82-.4,1.45-.44-.18-.87-.39-1.3-.61v1.64H224v10.5H266.4v8h-.67v6.5h32.83V178.09h9.59V149.51Zm-62.67-.92h-4.33v-4.33h4.33Zm10.58-3.12h-7v-7h7Zm21.65,4H258l10.11-15.44Zm.19-45.09v-7h7v7Zm11,7H275v-4.33h4.32Zm12.16,11.92h-1.81v3.13h-8v-11h8V119h1.81Z"/><path class="cls-17" d="M268.12,155.59a94.82,94.82,0,0,0-12.47-2H224v2Z"/><rect class="cls-17" x="28.19" y="146.01" width="9.48" height="7"/><rect class="cls-17" x="118.53" y="111.96" width="7" height="7"/><rect class="cls-17" x="127.39" y="115.97" width="4.33" height="4.33"/><rect class="cls-17" x="221.82" y="128.97" width="9.48" height="7"/><rect class="cls-17" x="302.69" y="104.42" width="7" height="7"/><rect class="cls-17" x="311.55" y="108.43" width="4.33" height="4.33"/><rect class="cls-17" x="230.49" y="122.46" width="4.33" height="4.33"/><rect class="cls-17" x="209.9" y="101.92" width="4.29" height="4.29"/></g><g class="cls-12"><path class="cls-17" d="M116.18,138.55h-6v-7h6v-9.09h-5.39v-7h5.39v-5.37H95.87v-1.25h20.31v-1.37H92.54V105h23.64V95H81.27L73,106.84h9.73v1.25H72.07l-1,1.38h9.57V112H69.35l-27.7,39.5v7.82H77v1.88H41.65v4.55h63V167h-63v9.25h42v8.5h-.31V192h32.84V178.09h9.59v-6.25h-6.85V167h6.85V149.51h-9.59Zm-64.9,17.58H47V151.8h4.32ZM61.87,153h-7v-7h7Zm21.84-48h7v7h-7Zm2,44.54H75.63l10.11-15.44ZM95.4,121h-12v-8h12Zm11.46,9.91h-.71V133H96.9v-7.25h9.25v.83h.71Z"/><path class="cls-17" d="M215.1,151.74a96,96,0,0,0,.57-10.58c0-10-1.36-18.55-4-25.7H180.87v-4.87h28.72c-6.67-13.29-18.68-20.34-35.38-20.34-9.83,0-18,2.45-24.48,7.17h39.81v2.5H146.72c-9.13,8.51-14,22.45-14,41.24,0,10,1.37,18.63,4,25.81h28.72v2.75h.16v3.5H139.6c.47.86,1,1.7,1.47,2.5h43.8v2.5h-42c7,9.16,17.6,14,31.37,14,23.14,0,37.27-13.58,40.66-38.58H193.7v-1.88ZM192,101.92h4.3v4.3H192Zm-17.74,59.31c-7.92,0-9.42-7-9.42-20.07s1.5-19.94,9.42-19.94,9.29,7,9.29,19.94S182,161.23,174.21,161.23Z"/><path class="cls-17" d="M268.12,155.59a94.82,94.82,0,0,0-12.47-2H223.59v2Z"/><path class="cls-17" d="M298.11,149.51V131h-3.74v-7h3.74v-9.08H295v-7h3.16v-5.37H280V101.3h18.08V99.92H276.7v-2.5h21.41V94.3H263.68l-3.5,5h6.66v1.25H259.3l-1,1.37h6.5v2.5h-8.26l-33,47.05v.27h37.58v1c3.68.58,7.34,1.38,10.95,2.16.93.2,1.85.42,2.78.64H282l-6-6c-.68-.68.38-1.74,1.07-1.06l7,7H289v4.94l.79.78a.71.71,0,0,1,.2.61l.71.32c.88.37.5,1.82-.4,1.45-.44-.18-.87-.39-1.3-.61v1.64H223.59v10.5H266.4v8h-1.12v6.5h32.83V178.09h9.59V149.51Zm-62.67-.92h-4.32v-4.33h4.32ZM246,145.47h-7v-7h7Zm21.65,4H257.57l10.11-15.44Zm.19-45.09v-7h7v7Zm11,7h-4.33v-4.33h4.33ZM291,123.34h-1.37v3.13h-8v-11h8V119H291Z"/><rect class="cls-17" x="27.75" y="146.01" width="9.48" height="7"/><rect class="cls-17" x="118.08" y="111.96" width="7" height="7"/><rect class="cls-17" x="126.95" y="115.97" width="4.33" height="4.33"/><rect class="cls-17" x="221.38" y="128.97" width="9.48" height="7"/><rect class="cls-17" x="302.24" y="104.42" width="7" height="7"/><rect class="cls-17" x="311.11" y="108.43" width="4.33" height="4.33"/><rect class="cls-17" x="230.04" y="122.46" width="4.33" height="4.33"/><rect class="cls-17" x="209.45" y="101.92" width="4.29" height="4.29"/></g><g class="cls-13"><path class="cls-17" d="M115.73,138.55h-6v-7h6v-9.09h-5.38v-7h5.38v-5.37H95.43v-1.25h20.3v-1.37H92.09V105h23.64V95H80.83L72.5,106.84h9.74v1.25H71.63l-1,1.38h9.58V112H68.91l-27.7,39.5v7.82H76.57v1.88H41.21v4.55h63V167h-63v9.25H83.65v8.5H82.9V192h32.83V178.09h9.59v-6.25h-6.84V167h6.84V149.51h-9.59ZM50.84,156.13H46.51V151.8h4.33ZM61.43,153h-7v-7h7Zm21.84-48h7v7h-7Zm2,44.54H75.19l10.1-15.44ZM95.4,121h-12v-8h12Zm11,9.91h-.26V133H96.9v-7.25h9.25v.83h.26Z"/><path class="cls-17" d="M214.65,151.74a93.52,93.52,0,0,0,.58-10.58c0-10-1.37-18.55-4-25.7h-30.8v-4.87h28.71c-6.66-13.29-18.68-20.34-35.37-20.34-9.83,0-18,2.45-24.48,7.17h39.8v2.5H146.27c-9.13,8.51-14,22.45-14,41.24,0,10,1.37,18.63,4,25.81H165v2.75h.61v3.5h-26.5c.47.86,1,1.7,1.48,2.5h43.8v2.5h-42c7,9.16,17.6,14,31.37,14,23.14,0,37.27-13.58,40.65-38.58H193.25v-1.88Zm-23.14-49.82h4.29v4.3h-4.29Zm-17.74,59.31c-7.92,0-9.42-7-9.42-20.07s1.5-19.94,9.42-19.94,9.29,7,9.29,19.94S181.58,161.23,173.77,161.23Z"/><path class="cls-17" d="M268.12,155.59a94.82,94.82,0,0,0-12.47-2h-32.5v2Z"/><path class="cls-17" d="M297.67,149.51V131h-3.75v-7h3.75v-9.08h-3.16v-7h3.16v-5.37H279.58V101.3h18.09V99.92H276.25v-2.5h21.42V94.3H263.24l-3.51,5h6.67v1.25h-7.54l-1,1.37h6.51v2.5h-8.26l-33,47.05v.27h37.58v1c3.83.58,7.63,1.42,11.39,2.23.93.2,1.85.42,2.78.64H282l-6-6c-.68-.68.38-1.74,1.07-1.06l7,7H289v4.94l.79.78a.71.71,0,0,1,.2.61l.71.32c.88.37.5,1.82-.4,1.45-.44-.18-.87-.39-1.3-.61v1.64H223.15v10.5H266.4v8h-1.56v6.5h32.83V178.09h9.59V149.51ZM235,148.59h-4.33v-4.33H235Zm10.58-3.12h-7v-7h7Zm21.65,4H257.12l10.11-15.44Zm.19-45.09v-7h7v7Zm11,7h-4.32v-4.33h4.32Zm12.16,11.92h-.92v3.13h-8v-11h8V119h.92Z"/><rect class="cls-17" x="27.3" y="146.01" width="9.48" height="7"/><rect class="cls-17" x="117.64" y="111.96" width="7" height="7"/><rect class="cls-17" x="126.5" y="115.97" width="4.33" height="4.33"/><rect class="cls-17" x="220.94" y="128.97" width="9.48" height="7"/><rect class="cls-17" x="301.8" y="104.42" width="7" height="7"/><rect class="cls-17" x="310.66" y="108.43" width="4.33" height="4.33"/><rect class="cls-17" x="229.6" y="122.46" width="4.33" height="4.33"/><rect class="cls-17" x="209.01" y="101.92" width="4.29" height="4.29"/></g><g class="cls-14"><path class="cls-17" d="M115.29,138.55h-6v-7h6v-9.09H109.9v-7h5.39v-5.37H95v-1.25h20.31v-1.37H91.65V105h23.64V95H80.38l-8.32,11.87H81.8v1.25H71.18l-1,1.38H79.8V112H68.46l-27.69,39.5v7.82H76.13v1.88H40.77v4.55h63V167h-63v9.25H83.65v8.5h-1.2V192h32.84V178.09h9.59v-6.25H118V167h6.85V149.51h-9.59ZM50.4,156.13H46.07V151.8H50.4ZM61,153H54v-7h7Zm21.84-48h7v7h-7Zm2,44.54H74.74l10.11-15.44ZM95.4,121h-12v-8h12Zm10.75,12H96.9v-7.25h9.25Z"/><path class="cls-17" d="M214.21,151.74a96,96,0,0,0,.57-10.58c0-10-1.36-18.55-4-25.7H180v-4.87H208.7C202,97.3,190,90.25,173.33,90.25c-9.84,0-18,2.45-24.48,7.17h39.8v2.5H145.83c-9.13,8.51-14,22.45-14,41.24,0,10,1.37,18.63,4,25.81H164.6v2.75h1.05v3.5H138.71c.47.86,1,1.7,1.47,2.5H184v2.5H142c7,9.16,17.6,14,31.38,14,23.13,0,37.26-13.58,40.65-38.58H192.81v-1.88Zm-23.15-49.82h4.3v4.3h-4.3Zm-17.73,59.31c-7.93,0-9.43-7-9.43-20.07s1.5-19.94,9.43-19.94,9.28,7,9.28,19.94S181.13,161.23,173.33,161.23Z"/><path class="cls-17" d="M268.12,155.59a94.82,94.82,0,0,0-12.47-2h-33v2Z"/><path class="cls-17" d="M297.23,149.51V131h-3.75v-7h3.75v-9.08h-3.17v-7h3.17v-5.37H279.14V101.3h18.09V99.92H275.81v-2.5h21.42V94.3H262.79l-3.5,5H266v1.25h-7.54l-1,1.37H264v2.5h-8.26l-33,47.05v.27h37.58v.91c4,.58,7.94,1.45,11.84,2.3.93.2,1.85.42,2.78.64H282l-6-6c-.68-.68.38-1.74,1.07-1.06l7,7H289v4.94l.79.78a.71.71,0,0,1,.2.61l.71.32c.88.37.5,1.82-.4,1.45-.44-.18-.87-.39-1.3-.61v1.64H222.7v10.5h43.7v8h-2v6.5h32.84V178.09h9.59V149.51Zm-62.68-.92h-4.32v-4.33h4.32Zm10.59-3.12h-7v-7h7Zm21.65,4H256.68l10.11-15.44Zm.19-45.09v-7h7v7Zm11,7h-4.33v-4.33H278Zm12.16,11.92h-.48v3.13h-8v-11h8V119h.48Z"/><rect class="cls-17" x="26.86" y="146.01" width="9.48" height="7"/><rect class="cls-17" x="117.2" y="111.96" width="7" height="7"/><rect class="cls-17" x="126.06" y="115.97" width="4.33" height="4.33"/><rect class="cls-17" x="220.49" y="128.97" width="9.48" height="7"/><rect class="cls-17" x="301.35" y="104.42" width="7" height="7"/><rect class="cls-17" x="310.22" y="108.43" width="4.33" height="4.33"/><rect class="cls-17" x="229.15" y="122.46" width="4.33" height="4.33"/><rect class="cls-17" x="208.56" y="101.92" width="4.29" height="4.29"/></g><g class="cls-15"><path class="cls-17" d="M114.84,138.55h-6v-7h6v-9.09h-5.38v-7h5.38v-5.37H94.54v-1.25h20.3v-1.37H91.21V105h23.63V95H79.94l-8.33,11.87h9.74v1.25H70.74l-1,1.38h9.58V112H68l-27.7,39.5v7.82H75.68v1.88H40.32v4.55h63V167h-63v9.25H83.65v8.5H82V192h32.83V178.09h9.59v-6.25h-6.84V167h6.84V149.51h-9.59ZM50,156.13H45.63V151.8H50ZM60.54,153h-7v-7h7Zm21.84-48h7v7h-7Zm2,44.54H74.3l10.11-15.44ZM95.4,121h-12v-8h12Zm10.75,12H96.9v-7.25h9.25Z"/><path class="cls-17" d="M213.77,151.74a96,96,0,0,0,.57-10.58c0-10-1.37-18.55-4-25.7h-30.8v-4.87h28.71c-6.66-13.29-18.67-20.34-35.37-20.34-9.83,0-18,2.45-24.48,7.17h39.81v2.5H145.38c-9.13,8.51-14,22.45-14,41.24,0,10,1.37,18.63,4,25.81h28.71v2.75h1.5v3.5H138.26c.48.86,1,1.7,1.48,2.5h43.8v2.5h-42c7,9.16,17.6,14,31.37,14,23.14,0,37.27-13.58,40.65-38.58H192.37v-1.88Zm-23.15-49.82h4.29v4.3h-4.29Zm-17.74,59.31c-7.92,0-9.42-7-9.42-20.07s1.5-19.94,9.42-19.94,9.29,7,9.29,19.94S180.69,161.23,172.88,161.23Z"/><path class="cls-17" d="M268.12,155.59a94.82,94.82,0,0,0-12.47-2H222.26v2Z"/><path class="cls-17" d="M296.78,149.51V131H293v-7h3.75v-9.08h-3.16v-7h3.16v-5.37H278.7V101.3h18.08V99.92H275.36v-2.5h21.42V94.3H262.35l-3.51,5h6.67v1.25H258l-1,1.37h6.51v2.5h-8.26l-33,47.05v.27h37.58v.84c4.13.58,8.23,1.49,12.28,2.37.93.2,1.85.42,2.78.64H282l-6-6c-.68-.68.38-1.74,1.07-1.06l7,7H289v4.94l.79.78a.71.71,0,0,1,.2.61l.71.32c.88.37.5,1.82-.4,1.45-.44-.18-.87-.39-1.3-.61v1.64H222.26v10.5H266.4v8H264v6.5h32.83V178.09h9.59V149.51Zm-62.67-.92h-4.33v-4.33h4.33Zm10.59-3.12h-7v-7h7Zm21.65,4H256.24l10.11-15.44Zm.18-45.09v-7h7v7Zm11,7H273.2v-4.33h4.33Zm12.15,11.92h0v3.13h-8v-11h8V119h0Z"/><rect class="cls-17" x="26.41" y="146.01" width="9.48" height="7"/><rect class="cls-17" x="116.75" y="111.96" width="7" height="7"/><rect class="cls-17" x="125.61" y="115.97" width="4.33" height="4.33"/><rect class="cls-17" x="220.05" y="128.97" width="9.48" height="7"/><rect class="cls-17" x="300.91" y="104.42" width="7" height="7"/><rect class="cls-17" x="309.77" y="108.43" width="4.33" height="4.33"/><rect class="cls-17" x="228.71" y="122.46" width="4.33" height="4.33"/><rect class="cls-17" x="208.12" y="101.92" width="4.29" height="4.29"/></g><g class="cls-16"><path class="cls-17" d="M114.4,138.55h-6v-7h6v-9.09H109v-7h5.38v-5.37H94.09v-1.25H114.4v-1.37H90.76V105H114.4V95H79.5l-8.33,11.87h9.74v1.25H70.29l-1,1.38h9.58V112H67.58l-27.7,39.5v7.82H75.24v1.88H39.88v4.55h63V167h-63v9.25H83.65v8.5H81.56V192H114.4V178.09H124v-6.25h-6.84V167H124V149.51H114.4ZM49.51,156.13H45.18V151.8h4.33ZM60.09,153h-7v-7h7Zm21.84-48h7v7h-7Zm2,44.54H73.85L84,134.07ZM95.4,121h-12v-8h12Zm10.75,12H96.9v-7.25h9.25Z"/><path class="cls-17" d="M213.32,151.74a96,96,0,0,0,.57-10.58c0-10-1.36-18.55-4-25.7H179.09v-4.87h28.72c-6.67-13.29-18.68-20.34-35.37-20.34-9.84,0-18,2.45-24.48,7.17h39.8v2.5H144.94c-9.13,8.51-14,22.45-14,41.24,0,10,1.37,18.63,4,25.81h28.72v2.75h1.94v3.5H137.82c.47.86,1,1.7,1.47,2.5h43.8v2.5h-42c7,9.16,17.6,14,31.37,14,23.13,0,37.26-13.58,40.65-38.58H191.92v-1.88Zm-23.14-49.82h4.29v4.3h-4.29Zm-17.74,59.31c-7.92,0-9.43-7-9.43-20.07s1.51-19.94,9.43-19.94,9.28,7,9.28,19.94S180.24,161.23,172.44,161.23Z"/><path class="cls-17" d="M268.12,155.59a94.82,94.82,0,0,0-12.47-2H221.82v2Z"/><path class="cls-17" d="M296.34,149.51V131h-3.75v-7h3.75v-9.08h-3.17v-7h3.17v-5.37H278.25V101.3h18.09V99.92H274.92v-2.5h21.42V94.3H261.9l-3.5,5h6.66v1.25h-7.54l-1,1.37h6.5v2.5H254.8l-33,47.05v.27h37.57v.79c4.28.57,8.54,1.51,12.73,2.42.93.2,1.85.42,2.78.64H282l-6-6c-.68-.68.38-1.74,1.07-1.06l7,7H289v4.94l.79.78a.71.71,0,0,1,.2.61l.71.32c.88.37.5,1.82-.4,1.45-.44-.18-.87-.39-1.3-.61v1.64h-67.2v10.5H266.4v8h-2.9v6.5h32.84V178.09h9.59V149.51Zm-62.68-.92h-4.32v-4.33h4.32Zm10.59-3.12h-7v-7h7Zm21.65,4H255.79l10.11-15.44Zm.19-45.09v-7h7v7Zm11,7h-4.33v-4.33h4.33Zm12.57,15h-8v-11h8Z"/><rect class="cls-17" x="25.97" y="146.01" width="9.48" height="7"/><rect class="cls-17" x="116.31" y="111.96" width="7" height="7"/><rect class="cls-17" x="125.17" y="115.97" width="4.33" height="4.33"/><rect class="cls-17" x="219.6" y="128.97" width="9.48" height="7"/><rect class="cls-17" x="300.46" y="104.42" width="7" height="7"/><rect class="cls-17" x="309.33" y="108.43" width="4.33" height="4.33"/><rect class="cls-17" x="228.26" y="122.46" width="4.33" height="4.33"/><rect class="cls-17" x="207.68" y="101.92" width="4.29" height="4.29"/></g><path class="cls-17" d="M114,138.55h-6v-7h6v-9.09h-5.38v-7H114v-5.37H93.65v-1.25H114v-1.37H90.32V105H114V95H79.05l-8.32,11.87h9.73v1.25H69.85l-1,1.38h9.58V112H67.13l-27.7,39.5v7.82H74.79v1.88H39.43v4.55h63V167h-63v9.25H83.65v8.5H81.12V192H114V178.09h9.59v-6.25H116.7V167h6.84V149.51H114ZM49.06,156.13H44.74V151.8h4.32ZM59.65,153h-7v-7h7Zm21.84-48h7v7h-7Zm2,44.54H73.41l10.11-15.44ZM95.4,121h-12v-8h12Zm10.75,12H96.9v-7.25h9.25Z"/><path class="cls-17" d="M212.88,151.74a96,96,0,0,0,.57-10.58c0-10-1.36-18.55-4-25.7h-30.8v-4.87h28.71C200.7,97.3,188.69,90.25,172,90.25c-9.83,0-18,2.45-24.48,7.17h39.81v2.5H144.49c-9.13,8.51-14,22.45-14,41.24,0,10,1.36,18.63,4,25.81h28.71v2.75h2.39v3.5H137.38c.47.86,1,1.7,1.47,2.5h43.8v2.5h-42c7,9.16,17.6,14,31.37,14,23.14,0,37.27-13.58,40.66-38.58H191.48v-1.88Zm-23.15-49.82H194v4.3h-4.29ZM172,161.23c-7.92,0-9.42-7-9.42-20.07s1.5-19.94,9.42-19.94,9.29,7,9.29,19.94S179.8,161.23,172,161.23Z"/><path class="cls-17" d="M268.12,155.59a94.82,94.82,0,0,0-12.47-2H221.37v2Z"/><path class="cls-17" d="M295.89,149.51V131h-3.75v-7h3.75v-9.08h-3.16v-7h3.16v-5.37H277.81V101.3h18.08V99.92H274.47v-2.5h21.42V94.3H261.46l-3.51,5h6.67v1.25h-7.54l-1,1.37h6.51v2.5h-8.26l-33,47.05v.27H259v.73c4.43.57,8.83,1.54,13.17,2.48.93.2,1.85.42,2.78.64H282l-6-6c-.68-.68.38-1.74,1.07-1.06l7,7H289v4.94l.79.78a.71.71,0,0,1,.2.61l.71.32c.88.37.5,1.82-.4,1.45-.44-.18-.87-.39-1.3-.61v1.64H221.37v10.5h45v8h-3.34v6.5h32.83V178.09h9.59V149.51Zm-62.67-.92h-4.33v-4.33h4.33Zm10.59-3.12h-7v-7h7Zm21.65,4H255.35l10.11-15.44Zm.18-45.09v-7h7v7Zm11,7h-4.33v-4.33h4.33Zm13,15h-8v-11h8Z"/><rect class="cls-17" x="25.52" y="146.01" width="9.48" height="7"/><rect class="cls-17" x="115.86" y="111.96" width="7" height="7"/><rect class="cls-17" x="124.73" y="115.97" width="4.33" height="4.33"/><rect class="cls-17" x="219.16" y="128.97" width="9.48" height="7"/><rect class="cls-17" x="300.02" y="104.42" width="7" height="7"/><rect class="cls-17" x="308.88" y="108.43" width="4.33" height="4.33"/><rect class="cls-17" x="227.82" y="122.46" width="4.33" height="4.33"/><rect class="cls-17" x="207.23" y="101.92" width="4.29" height="4.29"/><path class="cls-18" d="M115.7,167h6.84V149.51H113v-11h-6v-7h6v-9.09h-5.38v-7H113v-5.37H92.65v-1.25H113v-1.37H89.32V105H113V93.84H78.84l-9.11,13h9.73v1.25H68.85l-1,1.38h9.58V112H66.13l-27.7,39.5v7.82H73.79v1.88H38.43v4.55h63V167h-63v11.12H80.12v14.65H113V178.09h9.59v-6.25H115.7ZM80.49,105h7v7h-7ZM48.06,156.13H43.74V151.8h4.32ZM58.65,153h-7v-7h7Zm23.87-3.5H72.41l10.11-15.44Zm9-30.55H87.15v-4.32h4.33Zm12.16,11.92H99.31v-4.33h4.33Z"/><path class="cls-18" d="M190.48,151.74h21.4a96,96,0,0,0,.57-10.58c0-10-1.36-18.55-4-25.7h-30.8v-4.87h28.71C199.7,97.3,187.69,90.25,171,90.25c-9.83,0-18,2.45-24.48,7.17h39.81v2.5H143.49c-9.13,8.51-14,22.45-14,41.24,0,10,1.36,18.63,4,25.81h28.71v4.87H135.64a41.58,41.58,0,0,0,2.21,3.88h43.8v2.5h-42c7,9.16,17.6,14,31.37,14,23.14,0,37.27-13.58,40.66-38.58H190.48Zm-1.75-49.82H193v4.3h-4.29ZM171,161.23c-7.92,0-9.42-7-9.42-20.07s1.5-19.94,9.42-19.94,9.29,7,9.29,19.94S178.8,161.23,171,161.23Z"/><path class="cls-18" d="M294.89,131h-3.75v-7h3.75v-9.08h-3.16v-7h3.16v-5.37H276.81V101.3h18.08V99.92H273.47v-2.5h21.42V93.84H260.78L257,99.3h6.67v1.25h-7.54l-1,1.37h6.51v2.5h-8.26l-33,47.05v.27H258v1.88H220.37v4.55h65.26v1.25H220.37v18.67h41.69v14.65h32.83V178.09h9.59V149.51h-9.59Zm-62.67,17.59h-4.33v-4.33h4.33Zm10.59-3.12h-7v-7h7Zm21.65,4H254.35l10.11-15.44Zm.18-52.09h7v7h-7Zm11,14h-4.33v-4.33h4.33Zm12.15,11.92h-4.32V119h4.32Z"/><rect class="cls-18" x="24.52" y="146.01" width="9.48" height="7"/><rect class="cls-18" x="114.86" y="111.96" width="7" height="7"/><rect class="cls-18" x="123.73" y="115.97" width="4.33" height="4.33"/><rect class="cls-18" x="218.16" y="128.97" width="9.48" height="7"/><rect class="cls-18" x="299.02" y="104.42" width="7" height="7"/><rect class="cls-18" x="307.88" y="108.43" width="4.33" height="4.33"/><rect class="cls-18" x="226.82" y="122.46" width="4.33" height="4.33"/><rect class="cls-18" x="206.23" y="101.92" width="4.29" height="4.29"/><rect class="cls-19" x="16.69" y="64.91" width="52.54" height="1.5"/><rect class="cls-19" x="28.01" y="61.16" width="17.09" height="1"/><rect class="cls-19" x="22.01" y="18.66" width="20.93" height="4.5"/><rect class="cls-19" x="66.19" y="14.91" width="13.12" height="2.25"/><rect class="cls-19" x="78.64" y="27.07" width="11.44" height="2"/><rect class="cls-19" x="77.75" y="32.57" width="9.28" height="6.83"/><rect class="cls-19" x="77.97" y="42.74" width="33.71" height="1.5"/><rect class="cls-19" x="78.2" y="49.57" width="11.89" height="2.67"/><rect class="cls-19" x="109.02" y="17.16" width="22.22" height="2.75"/><rect class="cls-19" x="131.98" y="45.07" width="12.87" height="2.17"/><rect class="cls-19" x="128.55" y="49.57" width="20.64" height="3.67"/><rect class="cls-19" x="172.26" y="17.16" width="17.59" height="3.75"/><rect class="cls-19" x="178.52" y="23.16" width="10.73" height="1.42"/><rect class="cls-19" x="200.19" y="49.57" width="19.68" height="1.33"/><rect class="cls-19" x="185.1" y="58.41" width="21.95" height="2.75"/><rect class="cls-19" x="223.41" y="45.07" width="16.32" height="3.33"/><rect class="cls-19" x="235.08" y="25.74" width="17.65" height="3.33"/><rect class="cls-19" x="278.68" y="62.16" width="37.02" height="3.5"/><rect class="cls-19" x="292.17" y="56.24" width="13.67" height="2.17"/><rect class="cls-19" x="251.17" y="14.91" width="19.13" height="2.25"/><rect class="cls-19" x="251.61" y="18.53" width="30.23" height="1.38"/><rect class="cls-19" x="296.95" y="25.74" width="17.92" height="2.33"/><rect class="cls-19" x="251.17" y="62.16" width="11.37" height="2.75"/><rect class="cls-19" x="26.75" y="217.24" width="86.04" height="2"/><rect class="cls-19" x="120.47" y="223.41" width="61.96" height="1.17"/><rect class="cls-19" x="120.92" y="227.24" width="62.4" height="2.33"/><rect class="cls-19" x="193.02" y="217.24" width="92.83" height="1"/><rect class="cls-19" x="192.35" y="228.41" width="95.17" height="1.17"/></g></g></svg>