<svg xmlns="http://www.w3.org/2000/svg" viewBox="0 0 445.95 219.74"><defs><style>.cls-1,.cls-2{fill:#14684e;}.cls-2{font-size:36px;font-family:OpenSans-SemiBold, Open Sans;font-weight:600;letter-spacing:-0.01em;}.cls-3{fill:#38af79;}.cls-3,.cls-4,.cls-5,.cls-6{stroke:#14684e;stroke-miterlimit:10;stroke-width:4px;}.cls-4{fill:#57d6a1;}.cls-5{fill:#befea8;}.cls-6{fill:none;}</style></defs><g id="Capa_2" data-name="Capa 2"><g id="Objects"><path class="cls-1" d="M310.9,7.46h22.52a8.11,8.11,0,0,1,8.1,8.19v96.89c0,33-23.64,56.18-63.95,56.18-21.38,0-40.3-7.05-50.88-18.19a6.2,6.2,0,0,1,1.12-9.56l17.34-10.23a6,6,0,0,1,7,.45c4.73,4.33,13.06,7.74,23.64,7.74,22.29,0,29.05-12.28,29.05-30.25v-5.24c-6.3,8.19-16.21,14.11-32,14.11-34.9,0-54.94-26.16-54.94-56.41S238,4.73,272.85,4.73c15.76,0,25.67,6.37,32,15.24V13.6A6.08,6.08,0,0,1,310.9,7.46Zm-7.21,53.68c0-15.47-10.58-24.79-24.31-24.79-15.32,0-24.55,10.46-24.55,24.79,0,14.1,9.23,24.56,24.55,24.56C293.11,85.7,303.69,76.38,303.69,61.14Z"/><text class="cls-2" transform="translate(217.75 209.58) scale(0.99 1)">PRESTA FACIL</text><path class="cls-1" d="M436.77,3.76a6.31,6.31,0,0,1,7.5,6.09V36.8a6.4,6.4,0,0,1-6.8,6.32c-27.65-1.87-30.93,15.94-30.93,34.68v82.43a8.36,8.36,0,0,1-8.2,8.44H376.78a8.36,8.36,0,0,1-8.2-8.44V14.3a8.35,8.35,0,0,1,8.2-8.43h21.56a8.35,8.35,0,0,1,8.2,8.43v9.61A45.82,45.82,0,0,1,436.77,3.76Z"/><circle class="cls-1" cx="104.85" cy="104.85" r="102.85"/><path class="cls-3" d="M58.59,196.72c36-64.45,13.35-108.33,13.35-108.33-27,1.93-48,20.57-48,20.57,34.28,31.54,21.44,79.81,21.44,79.81S54.85,195.35,58.59,196.72Z"/><path class="cls-4" d="M129.42,62.69c-31.64-9.25-63,3.76-63,3.76,26.06,86.39-7.86,130.27-7.86,130.27s20.2,11,50.37,11C109,207.69,154,101.43,129.42,62.69Z"/><path class="cls-5" d="M200.62,67.3C172,30.8,124.05,34.91,124.05,34.91,150.1,162.44,70.53,201.82,70.53,201.82s48,18.22,89.45-10.14C160,191.68,229.63,147.36,200.62,67.3Z"/><circle class="cls-6" cx="104.85" cy="104.85" r="102.85"/><path class="cls-6" d="M84.28,205c7.75-5.16,15.08-12.66,21.25-20.3"/><path class="cls-6" d="M206.32,88.39c-15.59-23.39-37-34-54.07-39.31-1.49,7.2-7.11,11.86-14.43,13,4.9,52.66-8.94,88-22.7,109.29a151.44,151.44,0,0,1-9.59,13.26"/><path class="cls-6" d="M163.66,189.23a24,24,0,0,1-8.41-1.18"/><path class="cls-6" d="M155.25,188.05a23.63,23.63,0,0,1-3.42-1.44c-13.27-6.9-17.44-25.19-9.3-40.85S168,123,181.3,129.91c8.55,4.44,13.32,13.6,13.46,23.74"/><path class="cls-6" d="M129,72.1C123.35,70.8,111.41,69,105.15,69a96.51,96.51,0,0,0-13.63,1c0,.29,0,.58,0,.88A14.52,14.52,0,0,1,81.08,84.79c11.66,54.81,1.15,88.92-13.6,115.45"/><path class="cls-6" d="M73.66,97.25a91.88,91.88,0,0,0-28.36,9,8,8,0,0,1-2.18,10.47c15,22.58,16.54,48.68,10.56,76.73"/></g></g></svg>