<svg xmlns="http://www.w3.org/2000/svg" viewBox="0 0 1455.54 2872"><defs><style>.cls-1,.cls-6{fill:#14684e;}.cls-2{fill:#38af79;}.cls-2,.cls-3,.cls-4,.cls-5{stroke:#14684e;stroke-miterlimit:10;stroke-width:4px;}.cls-3{fill:#57d6a1;}.cls-4{fill:#befea8;}.cls-5{fill:none;}.cls-6{isolation:isolate;font-size:229.17px;font-family:OpenSans-SemiBold, Open Sans;font-weight:600;letter-spacing:-0.01em;}</style></defs><g id="Capa_2" data-name="Capa 2"><g id="Capa_1-2" data-name="Capa 1"><circle class="cls-1" cx="728.39" cy="656.73" r="654.73"/><path class="cls-2" d="M433.91,1241.57c229.17-410.28,85-689.62,85-689.62C347,564.24,213.33,682.9,213.33,682.9,431.55,883.68,349.81,1191,349.81,1191S410.1,1232.85,433.91,1241.57Z"/><path class="cls-3" d="M884.8,388.35c-201.41-58.89-401,23.93-401,23.93,165.9,550-50,829.29-50,829.29s128.59,70,320.65,70C754.81,1311.4,1041.28,635,884.8,388.35Z"/><path class="cls-4" d="M1338.06,417.69C1155.86,185.34,850.62,211.5,850.62,211.5,1016.45,1023.35,509.92,1274,509.92,1274s305.56,116,569.43-64.55C1079.47,1209.49,1522.73,927.35,1338.06,417.69Z"/><circle class="cls-5" cx="728.39" cy="656.73" r="654.73"/><path class="cls-5" d="M597.45,1294.28c49.33-32.85,96-80.59,135.27-129.23"/><path class="cls-5" d="M1374.34,552c-99.24-148.9-235.54-216.44-344.2-250.24-9.49,45.83-45.26,75.5-91.86,82.75,31.19,335.23-56.91,560.2-144.51,695.73a962.76,962.76,0,0,1-61,84.42"/><path class="cls-5" d="M1102.77,1193.89a152.83,152.83,0,0,1-53.53-7.51"/><path class="cls-5" d="M1049.24,1186.38a150.73,150.73,0,0,1-21.78-9.17c-84.47-43.92-111-160.36-59.2-260.05s162.14-144.89,246.81-100.9c54.43,28.27,84.79,86.58,85.68,151.13"/><path class="cls-5" d="M882.13,448.25c-36-8.28-112-19.73-151.83-19.73a612.91,612.91,0,0,0-86.76,6.36v5.6A92.43,92.43,0,0,1,577.08,529C651.3,878,584.4,1095.09,490.5,1264"/><path class="cls-5" d="M529.84,608.35a584.91,584.91,0,0,0-180.54,57.3,50.93,50.93,0,0,1-13.87,66.65c95.49,143.74,105.29,309.89,67.22,488.45"/><path class="cls-1" d="M593,1520.64H736.34a51.64,51.64,0,0,1,51.57,51.69c0,.15,0,.3,0,.45v616.79c0,210.08-150.49,357.64-407.1,357.64-136.1,0-256.54-44.88-323.89-115.8a39.46,39.46,0,0,1,.74-55.81,38.83,38.83,0,0,1,6.39-5l110.38-65.13A38.18,38.18,0,0,1,219,2308.3c30.11,27.56,83.14,49.27,150.49,49.27,141.9,0,184.93-78.17,184.93-192.57v-33.36c-40.1,52.14-103.19,89.83-203.71,89.83C128.52,2221.47,1,2054.93,1,1862.37s128-359.11,349.81-359.11c100.32,0,163.41,40.55,203.71,97v-40.55a38.71,38.71,0,0,1,38.32-39.09Zm-45.9,341.72c0-98.48-67.35-157.81-154.75-157.81-97.53,0-156.29,66.59-156.29,157.81,0,89.76,58.76,156.35,156.29,156.35C479.73,2018.71,547.08,1959.38,547.08,1862.36Z"/><text class="cls-6" transform="translate(0 2807.32) scale(0.99 1)">PRESTA FACIL</text><path class="cls-1" d="M1394.26,1497.09a40.17,40.17,0,0,1,47,31.86,41.1,41.1,0,0,1,.71,6.91v171.56a40.74,40.74,0,0,1-41.17,40.31c-.7,0-1.41,0-2.12-.08-176-11.9-196.89,101.47-196.89,220.77v524.74a53.22,53.22,0,0,1-52.2,53.73H1012.37a53.21,53.21,0,0,1-52.2-53.73v-929a53.15,53.15,0,0,1,52.2-53.67h137.25a53.16,53.16,0,0,1,52.2,53.67v61.17A291.66,291.66,0,0,1,1394.26,1497.09Z"/></g></g></svg>