<svg xmlns="http://www.w3.org/2000/svg" viewBox="0 0 1496.13 1414"><defs><style>.cls-1,.cls-2{fill:#14684e;}.cls-2{isolation:isolate;font-size:235.56px;font-family:OpenSans-SemiBold, Open Sans;font-weight:600;letter-spacing:-0.01em;}</style></defs><g id="Capa_2" data-name="Capa 2"><g id="Capa_1-2" data-name="Capa 1"><path class="cls-1" d="M609.52,25H756.88a53.06,53.06,0,0,1,53,53.13V712.54c0,215.94-154.69,367.61-418.45,367.61-139.9,0-263.7-46.13-332.93-119a40.57,40.57,0,0,1,.76-57.37,41.1,41.1,0,0,1,6.57-5.19l113.46-66.94a39.25,39.25,0,0,1,45.8,3c31,28.33,85.46,50.64,154.69,50.64,145.85,0,190.09-80.35,190.09-197.93V653c-41.23,53.59-106.07,92.33-209.39,92.33C132.11,745.33,1,574.15,1,376.21S132.5,7.1,360.54,7.1c103.13,0,168,41.68,209.39,99.72V65.14A39.8,39.8,0,0,1,609.32,25ZM562.34,376.21C562.34,275,493.11,214,403.27,214,303,214,242.63,282.44,242.63,376.21c0,92.26,60.4,160.71,160.64,160.71C493.11,536.92,562.34,475.93,562.34,376.21Z"/><text class="cls-2" transform="translate(0 1347.52) scale(0.99 1)">PRESTA FACIL</text><path class="cls-1" d="M1433.14.75a41.31,41.31,0,0,1,49.08,39.85V216.94a41.89,41.89,0,0,1-42.32,41.44c-.73,0-1.45,0-2.18-.08-180.92-12.24-202.39,104.3-202.39,226.92V1024.6a54.71,54.71,0,0,1-53.65,55.23H1040.6a54.71,54.71,0,0,1-53.66-55.23V69.72a54.63,54.63,0,0,1,53.66-55.16h141.08a54.63,54.63,0,0,1,53.65,55.16V132.6A299.83,299.83,0,0,1,1433.14.75Z"/></g></g></svg>