<svg xmlns="http://www.w3.org/2000/svg" viewBox="0 0 292.35 218.57"><defs><style>.cls-1{fill:#fb1806;}.cls-2{fill:#fff;}</style></defs><g id="Capa_2" data-name="Capa 2"><g id="Capa_3" data-name="Capa 3"><path class="cls-1" d="M176.38,129.72c1.56-3.2,2.23-6.69,3.27-10.06q5.46-17.65,10.8-35.35,5.72-18.81,11.41-37.63,4.94-16.28,9.91-32.54,1.65-5.44,3.31-10.9c.12-.39.11-.84.68-1.18.27,1.88-.45,3.55-.78,5.22-1.81,9.27-3.75,18.52-5.61,27.78-2.56,12.75-5.08,25.51-7.65,38.26-1.86,9.26-3.81,18.51-5.68,27.77s-3.71,18.65-5.56,28a2.57,2.57,0,0,0-.09,2.59l.59-2.6q4.28-13.88,8.56-27.75T208,73.53q5-16.24,10-32.5L228,8.35c.72-2.34,1.43-4.67,2.3-7C230.67,3,230,4.52,229.71,6c-2.3,11.3-4.72,22.58-7.06,33.87C220.08,52.28,217.57,64.66,215,77c-1.83,8.83-3.71,17.65-5.54,26.47-1.62,7.84-3.21,15.68-4.82,23.52a3.44,3.44,0,0,0-.21,3.27c.28-1.08.57-2.15.86-3.23l8-26.09Q218.64,83.41,224,65.82q5.25-17.13,10.54-34.26l8.58-27.93c.1-.33,0-.77.68-.87.18,1.81-.52,3.47-.86,5.13-2.78,13.4-5.68,26.76-8.5,40.15s-5.57,26.78-8.39,40.17q-3.59,17-7.27,34a19.19,19.19,0,0,0-.81,4.44c-.76,1.12-.55,2.44-.71,3.71.54-1.14,1.34-2.17,1.14-3.54,2.36-6.34,4.14-12.88,6.18-19.33C228,96.69,231.3,85.84,234.65,75q6.48-21,13-42,4.88-15.7,9.78-31.41c0-.1.15-.18.59-.2q-13.05,63.89-26.12,127.75l.47.13Q252,65.35,271.56,1.39l.5.12L246.41,126.88l.48.15Q266.54,64,286.2,1l.4.09c-.53,2.57-1,5.15-1.59,7.73q-4.38,20.42-8.77,40.84c-2.37,11-4.79,21.93-7.15,32.9-2.3,10.74-4.5,21.5-6.86,32.22-1.09,4.9-1.58,10-3.4,14.68-3.89,10-11.62,15.93-21.48,19.44a28.87,28.87,0,0,1-9.94,1.53q-44.53-.08-89.09,0c-2.09,0-4.18-.11-6.27-.16a1.08,1.08,0,0,0-1.08-.57,14.71,14.71,0,0,1-5.94-1.59c-7.1-3.36-11.82-8.85-13.09-16.63a35.4,35.4,0,0,1,.71-15.18c1.5-5.34,3.39-10.59,5.33-15.79,1.71-4.57,3.18-9.22,4.91-13.78,1.12-2.94,1.72-6.08,3.25-8.89.63,1.29-.41,2.31-.35,3.47.14,2.9-.6,5.72-1,8.56-.29,2.24-.3,4.53-.73,6.74-1,4.79-1.25,9.67-1.89,14.5-.39,2.95-.65,6-1.1,8.91-.43,2.77-.16,5.63-1.09,8.35a5.76,5.76,0,0,0,.15,3.84l20.19-54.4A12.12,12.12,0,0,1,140.2,82c-.62,3.23-1.4,6.43-1.82,9.68-.47,3.69-1.25,7.33-1.74,11-.67,5-2,9.92-2.63,14.92-.49,3.75-1.2,7.47-1.79,11.2-.32,2-.59,4.1-1,6.13s-1.45,4-.74,6.05l22.86-61.39a4.8,4.8,0,0,1,.41,2.75c-.39,2.45-.95,4.89-1.34,7.34-.6,3.86-.9,7.77-1.7,11.58-1.08,5.13-1.78,10.32-2.62,15.48-.63,3.84-1.24,7.71-1.83,11.57-.32,2-.58,4.09-1,6.12s-1.23,3.94-.74,6.26l23-61.35a3.2,3.2,0,0,1,.35,2.22c-.15,2.94-1,5.77-1.42,8.66-.59,3.92-1.07,7.85-1.71,11.76-.84,5.17-2,10.29-2.64,15.48-.49,3.88-1.29,7.71-1.8,11.58a27.79,27.79,0,0,1-.95,5,6.51,6.51,0,0,0,.17,4.51q10.61-29.46,21.23-59a.76.76,0,0,1,.45.91c-.57,4.85-1,9.73-1.81,14.54-.28,1.7-.32,3.41-.59,5.1-.69,4.39-1.53,8.78-1.93,13.2-.25,2.81-.81,5.56-1.06,8.37a58,58,0,0,1-.77,5.82c-.81,4.13-1.23,8.31-1.76,12.48,0,.05-.08.09-.12.13l.11,0a14.46,14.46,0,0,0,1.74-4.77C175.38,133.45,176.49,131.73,176.38,129.72Z"/><path class="cls-2" d="M176.38,129.72c.11,2-1,3.73-1.41,5.62a14.46,14.46,0,0,1-1.74,4.77l-.11,0s.11-.08.12-.13c.53-4.17.95-8.35,1.76-12.48a58,58,0,0,0,.77-5.82c.25-2.81.81-5.56,1.06-8.37.4-4.42,1.24-8.81,1.93-13.2.27-1.69.31-3.4.59-5.1.81-4.81,1.24-9.69,1.81-14.54a.76.76,0,0,0-.45-.91q-10.64,29.52-21.23,59a6.51,6.51,0,0,1-.17-4.51,27.79,27.79,0,0,0,.95-5c.51-3.87,1.31-7.7,1.8-11.58.65-5.19,1.8-10.31,2.64-15.48.64-3.91,1.12-7.84,1.71-11.76.43-2.89,1.27-5.72,1.42-8.66a3.2,3.2,0,0,0-.35-2.22l-23,61.35c-.49-2.32.32-4.33.74-6.26s.71-4.1,1-6.12c.59-3.86,1.2-7.73,1.83-11.57.84-5.16,1.54-10.35,2.62-15.48.8-3.81,1.1-7.72,1.7-11.58.39-2.45,1-4.89,1.34-7.34a4.8,4.8,0,0,0-.41-2.75L130.45,141c-.71-2.06.31-4.09.74-6.05s.71-4.1,1-6.13c.59-3.73,1.3-7.45,1.79-11.2.66-5,2-9.92,2.63-14.92.49-3.69,1.27-7.33,1.74-11,.42-3.25,1.2-6.45,1.82-9.68a12.12,12.12,0,0,0,.15-4.14l-20.19,54.4a5.76,5.76,0,0,1-.15-3.84c.93-2.72.66-5.58,1.09-8.35.45-2.93.71-6,1.1-8.91.64-4.83.94-9.71,1.89-14.5.43-2.21.44-4.5.73-6.74.37-2.84,1.11-5.66,1-8.56-.06-1.16,1-2.18.35-3.47-1.53,2.81-2.13,6-3.25,8.89-1.73,4.56-3.2,9.21-4.91,13.78-1.94,5.2-3.83,10.45-5.33,15.79a35.4,35.4,0,0,0-.71,15.18c1.27,7.78,6,13.27,13.09,16.63a14.71,14.71,0,0,0,5.94,1.59,1.08,1.08,0,0,1,1.08.57c-.61.05-1.21.14-1.82.14-22.2,0-44.39.3-66.58-.11-12.08-.22-21.18-8.3-22.79-20.71-1-7.35.46-14.19,3.18-21C48.51,97.36,52.59,86,56.84,74.65a1.94,1.94,0,0,1,.66-1q-3.34,26.35-6.7,52.72l.36.1q10-25.72,20-51.45c.51,2.4-.17,4.68-.53,7-2.25,14.17-4.61,28.32-6.9,42.48-.42,2.59-1.17,5.15-1.07,7.81-.4.21-.46.49-.08.94l.06-.95c1.76-3.31,2.8-6.9,4.11-10.38q8.89-23.51,17.7-47a1.61,1.61,0,0,1,.71-.91L76.1,132.09l.49.2L99.27,74.2l.39.12q-4.51,29-9,57.92l.41.13L111.77,75l.56.11q-3.75,27.93-7.51,55.88l.54.15,40.71-130,.53.13L122.45,120.87l.37.1L159.75,1.19l.51.12-24,119,.48.14q18.49-59.52,37-119l.54.14q-12.15,60-24.29,119.89l.45.13q18.5-60.79,37-121.6l.4.1L164,121.81l.47.13Q183.14,61.21,201.81.46l.4.09c-.53,2.78-1,5.56-1.6,8.34q-7.71,38.22-15.43,76.46-4.37,21.54-8.73,43.09A7.79,7.79,0,0,0,176.38,129.72Z"/><path class="cls-2" d="M167.57,217.1l-12.76.05a6.4,6.4,0,0,1-6.19-4.49c-.49-1.58-1.23-3.89-2.06-6.55l-5.77,0,3.09-8.66c-2.73-8.77-5.45-17.6-5.45-17.6L127.1,217.25l-14.34.05,15.61-51.48,17.82-.06a7.93,7.93,0,0,1,7.6,5.56c.08.26.15.53.23.79l-6.68,26.54,7-17.44-3.4,18.12,5.42-12.43-2,13.73,4.46-8.91-1,11,3.52-5.29-.42,7.8,2.48-3c1.86,6,3.42,11,4.18,13.4Zm69.43.39-13-.09a3.54,3.54,0,0,1-3.46-3.55c-.25-7.36-.94-29.74-.94-29.74l-11.11,33.2-12.71-.08a6.29,6.29,0,0,1-5.9-4.38c-2.12-6.94-8.28-27.36-8.28-27.36L180,217.13l-12.49,0,0-1.53,1.25-50,22.27.14a4.48,4.48,0,0,1,4.3,3.32c1.71,7,7,28.26,7,28.26l9.65-31.44,18.43.11a4.54,4.54,0,0,1,4.43,4.2c.5,9.28,1.81,37.59,2.37,47.27m0,0,16-51.35,17.85.07a7.87,7.87,0,0,1,7.53,5.62l.26.8-6.9,26.48,7.09-17.39-3.53,18.1,5.5-12.39-2.08,13.71,4.51-8.87-1.06,11,3.56-5.27-.51,7.8,2.54-2.95c2.5,8.36,4.48,14.9,4.48,14.9l-13.17-.05a6.49,6.49,0,0,1-6.19-4.54c-.46-1.58-1.15-3.89-2-6.57l-5.77,0,3.17-8.64c-2.68-8.79-5.33-17.63-5.33-17.63l-11.6,37.28-14.35-.06M93,201.8c0,3.91-3.78,7.07-8.47,7.09s-8.49-3.14-8.5-7l-.1-35.4-16.16.05.11,37.85c0,7.9,11.06,14.27,24.68,14.23s24.63-6.46,24.61-14.37l-.1-37.84-16.17,0Zm-59.87,0c0,3.91-3.87,7-8.54,7s-8.45-3.24-8.42-7.15l.07-6.37L.09,195.13,0,203.94c-.08,7.91,10.87,14.41,24.5,14.55s24.7-6.15,24.78-14.05l.38-37.85-16.16-.16Z"/></g></g></svg>